Padauk-Regular.ufo
<glyph name="parenleft" format="2">
  <advance width="396"/>
  <unicode hex="0028"/>
  <outline>
    <contour>
      <point x="340" y="-450" type="curve"/>
      <point x="289" y="-450" type="line"/>
      <point x="132" y="-256"/>
      <point x="75" y="-49"/>
      <point x="75" y="210" type="curve" smooth="yes"/>
      <point x="75" y="482"/>
      <point x="137" y="692"/>
      <point x="289" y="903" type="curve"/>
      <point x="340" y="903" type="line"/>
      <point x="193" y="703"/>
      <point x="126" y="500"/>
      <point x="126" y="210" type="curve" smooth="yes"/>
      <point x="126" y="-41"/>
      <point x="188" y="-262"/>
    </contour>
  </outline>
</glyph>
<glyph name="zero" format="2">
  <advance width="498"/>
  <unicode hex="0030"/>
  <outline>
    <contour>
      <point x="367" y="334" type="curve" smooth="yes"/>
      <point x="367" y="472"/>
      <point x="352" y="580"/>
      <point x="249" y="580" type="curve" smooth="yes"/>
      <point x="144" y="580"/>
      <point x="130" y="472"/>
      <point x="130" y="334" type="curve" smooth="yes"/>
      <point x="130" y="195"/>
      <point x="144" y="61"/>
      <point x="249" y="61" type="curve" smooth="yes"/>
      <point x="352" y="61"/>
      <point x="367" y="195"/>
    </contour>
    <contour>
      <point x="453" y="334" type="curve" smooth="yes"/>
      <point x="453" y="183"/>
      <point x="432" y="-14"/>
      <point x="249" y="-14" type="curve" smooth="yes"/>
      <point x="66" y="-14"/>
      <point x="45" y="183"/>
      <point x="45" y="334" type="curve" smooth="yes"/>
      <point x="45" y="486"/>
      <point x="66" y="655"/>
      <point x="249" y="655" type="curve" smooth="yes"/>
      <point x="432" y="655"/>
      <point x="453" y="486"/>
    </contour>
  </outline>
</glyph>
<glyph name="O" format="2">
  <advance width="688"/>
  <unicode hex="004F"/>
  <outline>
    <contour>
      <point x="543" y="334" type="curve" smooth="yes"/>
      <point x="543" y="469"/>
      <point x="501" y="577"/>
      <point x="345" y="577" type="curve" smooth="yes"/>
      <point x="189" y="577"/>
      <point x="145" y="469"/>
      <point x="145" y="334" type="curve" smooth="yes"/>
      <point x="145" y="199"/>
      <point x="189" y="66"/>
      <point x="345" y="66" type="curve" smooth="yes"/>
      <point x="501" y="66"/>
      <point x="543" y="199"/>
    </contour>
    <contour>
      <point x="636" y="334" type="curve" smooth="yes"/>
      <point x="636" y="150"/>
      <point x="543" y="-14"/>
      <point x="345" y="-14" type="curve" smooth="yes"/>
      <point x="148" y="-14"/>
      <point x="52" y="150"/>
      <point x="52" y="334" type="curve" smooth="yes"/>
      <point x="52" y="517"/>
      <point x="148" y="655"/>
      <point x="345" y="655" type="curve" smooth="yes"/>
      <point x="543" y="655"/>
      <point x="636" y="517"/>
    </contour>
  </outline>
</glyph>
<glyph name="W" format="2">
  <advance width="865"/>
  <unicode hex="0057"/>
  <outline>
    <contour>
      <point x="852" y="643" type="line"/>
      <point x="661" y="0" type="line"/>
      <point x="580" y="0" type="line"/>
      <point x="432" y="535" type="line"/>
      <point x="283" y="0" type="line"/>
      <point x="204" y="0" type="line"/>
      <point x="13" y="643" type="line"/>
      <point x="108" y="643" type="line"/>
      <point x="243" y="133" type="line"/>
      <point x="379" y="643" type="line"/>
      <point x="486" y="643" type="line"/>
      <point x="622" y="133" type="line"/>
      <point x="757" y="643" type="line"/>
    </contour>
  </outline>
</glyph>
<glyph name="Z" format="2">
  <advance width="549"/>
  <unicode hex="005A"/>
  <outline>
    <contour>
      <point x="508" y="0" type="line"/>
      <point x="40" y="0" type="line"/>
      <point x="40" y="97" type="line"/>
      <point x="402" y="565" type="line"/>
      <point x="57" y="565" type="line"/>
      <point x="57" y="643" type="line"/>
      <point x="499" y="643" type="line"/>
      <point x="499" y="544" type="line"/>
      <point x="138" y="78" type="line"/>
      <point x="508" y="78" type="line"/>
    </contour>
  </outline>
</glyph>
<glyph name="a" format="2">
  <advance width="492"/>
  <unicode hex="0061"/>
  <outline>
    <contour>
      <point x="345" y="219" type="curve"/>
      <point x="335" y="220"/>
      <point x="312" y="222"/>
      <point x="300" y="222" type="curve" smooth="yes"/>
      <point x="241" y="222"/>
      <point x="126" y="204"/>
      <point x="126" y="127" type="curve" smooth="yes"/>
      <point x="126" y="78"/>
      <point x="166" y="48"/>
      <point x="214" y="48" type="curve" smooth="yes"/>
      <point x="325" y="48"/>
      <point x="345" y="126"/>
    </contour>
    <contour>
      <point x="439" y="0" type="curve"/>
      <point x="360" y="0" type="line"/>
      <point x="355" y="23"/>
      <point x="352" y="41"/>
      <point x="349" y="64" type="curve"/>
      <point x="308" y="12"/>
      <point x="273" y="-12"/>
      <point x="214" y="-12" type="curve" smooth="yes"/>
      <point x="138" y="-12"/>
      <point x="43" y="30"/>
      <point x="43" y="117" type="curve" smooth="yes"/>
      <point x="43" y="252"/>
      <point x="180" y="280"/>
      <point x="285" y="280" type="curve" smooth="yes"/>
      <point x="346" y="280" type="line"/>
      <point x="347" y="289"/>
      <point x="348" y="298"/>
      <point x="348" y="307" type="curve" smooth="yes"/>
      <point x="348" y="359"/>
      <point x="323" y="396"/>
      <point x="249" y="396" type="curve" smooth="yes"/>
      <point x="204" y="396"/>
      <point x="150" y="378"/>
      <point x="150" y="325" type="curve"/>
      <point x="67" y="325" type="line"/>
      <point x="67" y="430"/>
      <point x="158" y="456"/>
      <point x="246" y="456" type="curve" smooth="yes"/>
      <point x="306" y="456"/>
      <point x="394" y="447"/>
      <point x="418" y="381" type="curve" smooth="yes"/>
      <point x="426" y="361"/>
      <point x="427" y="309"/>
      <point x="427" y="271" type="curve" smooth="yes"/>
      <point x="427" y="125" type="line" smooth="yes"/>
      <point x="427" y="84"/>
      <point x="429" y="25"/>
    </contour>
  </outline>
</glyph>
<glyph name="c" format="2">
  <advance width="463"/>
  <unicode hex="0063"/>
  <outline>
    <contour>
      <point x="420" y="150" type="line"/>
      <point x="420" y="69"/>
      <point x="375" y="-12"/>
      <point x="241" y="-12" type="curve" smooth="yes"/>
      <point x="108" y="-12"/>
      <point x="45" y="67"/>
      <point x="45" y="222" type="curve" smooth="yes"/>
      <point x="45" y="378"/>
      <point x="99" y="456"/>
      <point x="232" y="456" type="curve" smooth="yes"/>
      <point x="358" y="456"/>
      <point x="416" y="401"/>
      <point x="416" y="323" type="curve" smooth="yes"/>
      <point x="416" y="317"/>
      <point x="416" y="312"/>
      <point x="415" y="306" type="curve"/>
      <point x="336" y="306" type="line"/>
      <point x="337" y="312"/>
      <point x="337" y="318"/>
      <point x="337" y="323" type="curve" smooth="yes"/>
      <point x="337" y="380"/>
      <point x="280" y="396"/>
      <point x="226" y="396" type="curve" smooth="yes"/>
      <point x="169" y="396"/>
      <point x="124" y="351"/>
      <point x="124" y="222" type="curve" smooth="yes"/>
      <point x="124" y="94"/>
      <point x="166" y="48"/>
      <point x="241" y="48" type="curve" smooth="yes"/>
      <point x="318" y="48"/>
      <point x="340" y="111"/>
      <point x="340" y="150" type="curve"/>
    </contour>
  </outline>
</glyph>
<glyph name="f" format="2">
  <advance width="294"/>
  <unicode hex="0066"/>
  <outline>
    <contour>
      <point x="294" y="577" type="line"/>
      <point x="280" y="583"/>
      <point x="265" y="588"/>
      <point x="246" y="588" type="curve" smooth="yes"/>
      <point x="198" y="588"/>
      <point x="178" y="567"/>
      <point x="178" y="510" type="curve" smooth="yes"/>
      <point x="178" y="445" type="line"/>
      <point x="285" y="445" type="line"/>
      <point x="285" y="387" type="line"/>
      <point x="178" y="387" type="line"/>
      <point x="178" y="0" type="line"/>
      <point x="97" y="0" type="line"/>
      <point x="97" y="387" type="line"/>
      <point x="9" y="387" type="line"/>
      <point x="9" y="445" type="line"/>
      <point x="97" y="445" type="line"/>
      <point x="97" y="513" type="line" smooth="yes"/>
      <point x="97" y="623"/>
      <point x="146" y="651"/>
      <point x="230" y="651" type="curve" smooth="yes"/>
      <point x="251" y="651"/>
      <point x="272" y="649"/>
      <point x="294" y="643" type="curve"/>
    </contour>
  </outline>
</glyph>
<glyph name="p" format="2">
  <advance width="534"/>
  <unicode hex="0070"/>
  <outline>
    <contour>
      <point x="403" y="222" type="curve" smooth="yes"/>
      <point x="403" y="313"/>
      <point x="366" y="400"/>
      <point x="273" y="400" type="curve" smooth="yes"/>
      <point x="178" y="400"/>
      <point x="142" y="313"/>
      <point x="142" y="222" type="curve" smooth="yes"/>
      <point x="142" y="130"/>
      <point x="178" y="45"/>
      <point x="273" y="45" type="curve" smooth="yes"/>
      <point x="366" y="45"/>
      <point x="403" y="130"/>
    </contour>
    <contour>
      <point x="489" y="222" type="curve" smooth="yes"/>
      <point x="489" y="91"/>
      <point x="433" y="-14"/>
      <point x="282" y="-14" type="curve" smooth="yes"/>
      <point x="223" y="-14"/>
      <point x="180" y="16"/>
      <point x="142" y="46" type="curve"/>
      <point x="142" y="-177" type="line"/>
      <point x="61" y="-177" type="line"/>
      <point x="61" y="445" type="line"/>
      <point x="142" y="445" type="line"/>
      <point x="142" y="388" type="line"/>
      <point x="184" y="427"/>
      <point x="223" y="456"/>
      <point x="282" y="456" type="curve" smooth="yes"/>
      <point x="433" y="456"/>
      <point x="489" y="352"/>
    </contour>
  </outline>
</glyph>
<glyph name="v" format="2">
  <advance width="477"/>
  <unicode hex="0076"/>
  <outline>
    <contour>
      <point x="463" y="445" type="line"/>
      <point x="279" y="0" type="line"/>
      <point x="198" y="0" type="line"/>
      <point x="13" y="445" type="line"/>
      <point x="106" y="445" type="line"/>
      <point x="243" y="97" type="line"/>
      <point x="378" y="445" type="line"/>
    </contour>
  </outline>
</glyph>
<glyph name="x" format="2">
  <advance width="487"/>
  <unicode hex="0078"/>
  <outline>
    <contour>
      <point x="469" y="0" type="line"/>
      <point x="367" y="0" type="line"/>
      <point x="237" y="175" type="line"/>
      <point x="111" y="0" type="line"/>
      <point x="18" y="0" type="line"/>
      <point x="195" y="231" type="line"/>
      <point x="31" y="445" type="line"/>
      <point x="132" y="445" type="line"/>
      <point x="249" y="285" type="line"/>
      <point x="364" y="445" type="line"/>
      <point x="457" y="445" type="line"/>
      <point x="292" y="231" type="line"/>
    </contour>
  </outline>
</glyph>
<glyph name="bar" format="2">
  <advance width="307"/>
  <unicode hex="007C"/>
  <outline>
    <contour>
      <point x="177" y="-230" type="line"/>
      <point x="130" y="-230" type="line"/>
      <point x="130" y="709" type="line"/>
      <point x="177" y="709" type="line"/>
    </contour>
  </outline>
</glyph>
<glyph name="u1003" format="2">
  <advance width="999"/>
  <unicode hex="1003"/>
  <anchor x="0" y="0" name="_R"/>
  <anchor x="712" y="-53" name="BS"/>
  <anchor x="712" y="-53" name="L"/>
  <anchor x="495" y="-53" name="BD"/>
  <anchor x="712" y="495" name="U"/>
  <outline>
    <contour>
      <point x="943" y="222" type="curve" smooth="yes"/>
      <point x="943" y="91"/>
      <point x="837" y="-15"/>
      <point x="711" y="-15" type="curve" smooth="yes"/>
      <point x="622" y="-15"/>
      <point x="543" y="46"/>
      <point x="501" y="130" type="curve"/>
      <point x="463" y="40"/>
      <point x="381" y="-15"/>
      <point x="285" y="-15" type="curve" smooth="yes"/>
      <point x="144" y="-15"/>
      <point x="55" y="88"/>
      <point x="55" y="168" type="curve" smooth="yes"/>
      <point x="55" y="294"/>
      <point x="195" y="285"/>
      <point x="195" y="339" type="curve" smooth="yes"/>
      <point x="195" y="388"/>
      <point x="166" y="405"/>
      <point x="142" y="405" type="curve" smooth="yes"/>
      <point x="118" y="405"/>
      <point x="100" y="382"/>
      <point x="99" y="375" type="curve"/>
      <point x="55" y="402" type="line"/>
      <point x="61" y="422"/>
      <point x="106" y="456"/>
      <point x="142" y="456" type="curve" smooth="yes"/>
      <point x="196" y="456"/>
      <point x="246" y="415"/>
      <point x="246" y="339" type="curve" smooth="yes"/>
      <point x="246" y="243"/>
      <point x="106" y="255"/>
      <point x="106" y="168" type="curve" smooth="yes"/>
      <point x="106" y="144"/>
      <point x="156" y="36"/>
      <point x="285" y="36" type="curve" smooth="yes"/>
      <point x="403" y="36"/>
      <point x="471" y="135"/>
      <point x="471" y="252" type="curve" smooth="yes"/>
      <point x="471" y="321"/>
      <point x="434" y="380"/>
      <point x="394" y="414" type="curve"/>
      <point x="424" y="457" type="line"/>
      <point x="480" y="412"/>
      <point x="522" y="347"/>
      <point x="522" y="240" type="curve" smooth="yes"/>
      <point x="522" y="148"/>
      <point x="616" y="36"/>
      <point x="711" y="36" type="curve" smooth="yes"/>
      <point x="811" y="36"/>
      <point x="892" y="120"/>
      <point x="892" y="222" type="curve" smooth="yes"/>
      <point x="892" y="324"/>
      <point x="811" y="408"/>
      <point x="711" y="408" type="curve" smooth="yes"/>
      <point x="694" y="408"/>
      <point x="676" y="405"/>
      <point x="660" y="397" type="curve"/>
      <point x="640" y="444" type="line"/>
      <point x="663" y="454"/>
      <point x="687" y="459"/>
      <point x="711" y="459" type="curve" smooth="yes"/>
      <point x="837" y="459"/>
      <point x="943" y="351"/>
    </contour>
  </outline>
</glyph>
<glyph name="u100A" format="2">
  <advance width="990"/>
  <unicode hex="100A"/>
  <anchor x="0" y="0" name="_R"/>
  <anchor x="1063" y="-53" name="BS"/>
  <anchor x="702" y="-53" name="L"/>
  <anchor x="702" y="495" name="U"/>
  <anchor x="1063" y="-53" name="BD"/>
  <outline>
    <contour>
      <point x="934" y="222" type="curve" smooth="yes"/>
      <point x="934" y="91"/>
      <point x="828" y="-15"/>
      <point x="702" y="-15" type="curve" smooth="yes"/>
      <point x="613" y="-15"/>
      <point x="535" y="45"/>
      <point x="493" y="127" type="curve"/>
      <point x="456" y="43"/>
      <point x="372" y="-15"/>
      <point x="276" y="-15" type="curve" smooth="yes"/>
      <point x="216" y="-15"/>
      <point x="153" y="7"/>
      <point x="106" y="49" type="curve"/>
      <point x="106" y="-167" type="line" smooth="yes"/>
      <point x="106" y="-244"/>
      <point x="116" y="-304"/>
      <point x="159" y="-347" type="curve" smooth="yes"/>
      <point x="202" y="-391"/>
      <point x="264" y="-399"/>
      <point x="337" y="-399" type="curve" smooth="yes"/>
      <point x="810" y="-399" type="line" smooth="yes"/>
      <point x="864" y="-399"/>
      <point x="868" y="-393"/>
      <point x="868" y="-338" type="curve" smooth="yes"/>
      <point x="868" y="-302" type="line"/>
      <point x="919" y="-302" type="line"/>
      <point x="919" y="-347" type="line" smooth="yes"/>
      <point x="919" y="-392"/>
      <point x="914" y="-410"/>
      <point x="903" y="-423" type="curve" smooth="yes"/>
      <point x="889" y="-440"/>
      <point x="874" y="-450"/>
      <point x="835" y="-450" type="curve" smooth="yes"/>
      <point x="321" y="-450" type="line" smooth="yes"/>
      <point x="227" y="-450"/>
      <point x="169" y="-430"/>
      <point x="121" y="-381" type="curve" smooth="yes"/>
      <point x="72" y="-331"/>
      <point x="55" y="-271"/>
      <point x="55" y="-185" type="curve" smooth="yes"/>
      <point x="55" y="121" type="line"/>
      <point x="100" y="147" type="line"/>
      <point x="136" y="76"/>
      <point x="205" y="36"/>
      <point x="276" y="36" type="curve" smooth="yes"/>
      <point x="378" y="36"/>
      <point x="462" y="119"/>
      <point x="462" y="219" type="curve" smooth="yes"/>
      <point x="462" y="309"/>
      <point x="385" y="408"/>
      <point x="276" y="408" type="curve" smooth="yes"/>
      <point x="203" y="408"/>
      <point x="138" y="371"/>
      <point x="100" y="297" type="curve"/>
      <point x="55" y="322" type="line"/>
      <point x="93" y="412"/>
      <point x="187" y="459"/>
      <point x="276" y="459" type="curve" smooth="yes"/>
      <point x="402" y="459"/>
      <point x="508" y="352"/>
      <point x="513" y="228" type="curve"/>
      <point x="525" y="132"/>
      <point x="610" y="36"/>
      <point x="702" y="36" type="curve" smooth="yes"/>
      <point x="802" y="36"/>
      <point x="883" y="120"/>
      <point x="883" y="222" type="curve" smooth="yes"/>
      <point x="883" y="324"/>
      <point x="802" y="408"/>
      <point x="702" y="408" type="curve" smooth="yes"/>
      <point x="687" y="408"/>
      <point x="666" y="403"/>
      <point x="651" y="397" type="curve"/>
      <point x="631" y="444" type="line"/>
      <point x="654" y="452"/>
      <point x="681" y="459"/>
      <point x="702" y="459" type="curve" smooth="yes"/>
      <point x="828" y="459"/>
      <point x="934" y="351"/>
    </contour>
  </outline>
</glyph>
<glyph name="u100C" format="2">
  <advance width="568"/>
  <unicode hex="100C"/>
  <anchor x="0" y="0" name="_R"/>
  <anchor x="657" y="-53" name="BS"/>
  <anchor x="657" y="-53" name="L"/>
  <anchor x="292" y="495" name="U"/>
  <anchor x="657" y="-53" name="BD"/>
  <outline>
    <contour>
      <point x="513" y="121" type="line"/>
      <point x="513" y="-275" type="line" smooth="yes"/>
      <point x="513" y="-327"/>
      <point x="488" y="-369"/>
      <point x="462" y="-395" type="curve" smooth="yes"/>
      <point x="432" y="-425"/>
      <point x="390" y="-450"/>
      <point x="337" y="-450" type="curve" smooth="yes"/>
      <point x="171" y="-450" type="line" smooth="yes"/>
      <point x="106" y="-450"/>
      <point x="70" y="-399"/>
      <point x="70" y="-347" type="curve" smooth="yes"/>
      <point x="70" y="-297"/>
      <point x="111" y="-245"/>
      <point x="181" y="-245" type="curve" smooth="yes"/>
      <point x="208" y="-245"/>
      <point x="229" y="-252"/>
      <point x="244" y="-267" type="curve"/>
      <point x="210" y="-306" type="line"/>
      <point x="199" y="-299"/>
      <point x="190" y="-296"/>
      <point x="181" y="-296" type="curve" smooth="yes"/>
      <point x="141" y="-296"/>
      <point x="121" y="-318"/>
      <point x="121" y="-347" type="curve" smooth="yes"/>
      <point x="121" y="-371"/>
      <point x="141" y="-399"/>
      <point x="171" y="-399" type="curve" smooth="yes"/>
      <point x="307" y="-399" type="line" smooth="yes"/>
      <point x="369" y="-399"/>
      <point x="389" y="-394"/>
      <point x="423" y="-362" type="curve" smooth="yes"/>
      <point x="448" y="-339"/>
      <point x="462" y="-300"/>
      <point x="462" y="-264" type="curve" smooth="yes"/>
      <point x="462" y="49" type="line"/>
      <point x="415" y="7"/>
      <point x="351" y="-15"/>
      <point x="292" y="-15" type="curve" smooth="yes"/>
      <point x="162" y="-15"/>
      <point x="55" y="91"/>
      <point x="55" y="222" type="curve" smooth="yes"/>
      <point x="55" y="351"/>
      <point x="162" y="459"/>
      <point x="292" y="459" type="curve" smooth="yes"/>
      <point x="381" y="459"/>
      <point x="475" y="412"/>
      <point x="513" y="322" type="curve"/>
      <point x="469" y="297" type="line"/>
      <point x="432" y="367"/>
      <point x="363" y="408"/>
      <point x="292" y="408" type="curve" smooth="yes"/>
      <point x="190" y="408"/>
      <point x="106" y="324"/>
      <point x="106" y="222" type="curve" smooth="yes"/>
      <point x="106" y="120"/>
      <point x="190" y="36"/>
      <point x="292" y="36" type="curve" smooth="yes"/>
      <point x="363" y="36"/>
      <point x="432" y="76"/>
      <point x="469" y="147" type="curve"/>
    </contour>
  </outline>
</glyph>
<glyph name="u1013" format="2">
  <advance width="576"/>
  <unicode hex="1013"/>
  <anchor x="0" y="0" name="_R"/>
  <anchor x="288" y="-53" name="BS"/>
  <anchor x="288" y="-53" name="L"/>
  <anchor x="288" y="495" name="U"/>
  <anchor x="288" y="-53" name="BD"/>
  <outline>
    <contour>
      <point x="430" y="108" type="curve"/>
      <point x="378" y="160"/>
      <point x="324" y="171"/>
      <point x="289" y="171" type="curve" smooth="yes"/>
      <point x="256" y="171"/>
      <point x="200" y="158"/>
      <point x="145" y="106" type="curve"/>
      <point x="180" y="62"/>
      <point x="230" y="36"/>
      <point x="286" y="36" type="curve" smooth="yes"/>
      <point x="345" y="36"/>
      <point x="397" y="64"/>
    </contour>
    <contour>
      <point x="469" y="222" type="curve" smooth="yes"/>
      <point x="469" y="323"/>
      <point x="388" y="408"/>
      <point x="289" y="408" type="curve" smooth="yes"/>
      <point x="187" y="408"/>
      <point x="106" y="323"/>
      <point x="106" y="222" type="curve" smooth="yes"/>
      <point x="106" y="197"/>
      <point x="111" y="174"/>
      <point x="120" y="153" type="curve"/>
      <point x="172" y="205"/>
      <point x="234" y="222"/>
      <point x="286" y="222" type="curve" smooth="yes"/>
      <point x="342" y="222"/>
      <point x="404" y="205"/>
      <point x="456" y="153" type="curve"/>
      <point x="465" y="175"/>
      <point x="469" y="198"/>
    </contour>
    <contour>
      <point x="520" y="222" type="curve" smooth="yes"/>
      <point x="520" y="91"/>
      <point x="417" y="-15"/>
      <point x="289" y="-15" type="curve" smooth="yes"/>
      <point x="157" y="-15"/>
      <point x="55" y="91"/>
      <point x="55" y="222" type="curve" smooth="yes"/>
      <point x="55" y="351"/>
      <point x="158" y="459"/>
      <point x="286" y="459" type="curve" smooth="yes"/>
      <point x="418" y="459"/>
      <point x="520" y="351"/>
    </contour>
  </outline>
</glyph>
<glyph name="u1019" format="2">
  <advance width="585"/>
  <unicode hex="1019"/>
  <anchor x="0" y="0" name="_R"/>
  <anchor x="294" y="-53" name="BS"/>
  <anchor x="294" y="-53" name="L"/>
  <anchor x="292" y="495" name="U"/>
  <anchor x="294" y="-53" name="BD"/>
  <outline>
    <contour>
      <point x="436" y="106" type="curve"/>
      <point x="383" y="158"/>
      <point x="327" y="171"/>
      <point x="292" y="171" type="curve" smooth="yes"/>
      <point x="259" y="171"/>
      <point x="202" y="158"/>
      <point x="150" y="105" type="curve"/>
      <point x="183" y="61"/>
      <point x="235" y="36"/>
      <point x="292" y="36" type="curve" smooth="yes"/>
      <point x="352" y="36"/>
      <point x="400" y="59"/>
    </contour>
    <contour>
      <point x="529" y="240" type="curve" smooth="yes"/>
      <point x="529" y="86"/>
      <point x="423" y="-15"/>
      <point x="292" y="-15" type="curve" smooth="yes"/>
      <point x="162" y="-15"/>
      <point x="55" y="86"/>
      <point x="55" y="240" type="curve" smooth="yes"/>
      <point x="55" y="349"/>
      <point x="97" y="412"/>
      <point x="153" y="457" type="curve"/>
      <point x="183" y="414" type="line"/>
      <point x="136" y="371"/>
      <point x="106" y="316"/>
      <point x="106" y="240" type="curve" smooth="yes"/>
      <point x="106" y="211"/>
      <point x="112" y="181"/>
      <point x="123" y="151" type="curve"/>
      <point x="176" y="203"/>
      <point x="239" y="222"/>
      <point x="292" y="222" type="curve" smooth="yes"/>
      <point x="347" y="222"/>
      <point x="410" y="205"/>
      <point x="462" y="153" type="curve"/>
      <point x="473" y="181"/>
      <point x="478" y="210"/>
      <point x="478" y="240" type="curve" smooth="yes"/>
      <point x="478" y="316"/>
      <point x="447" y="371"/>
      <point x="402" y="414" type="curve"/>
      <point x="432" y="457" type="line"/>
      <point x="489" y="412"/>
      <point x="529" y="349"/>
    </contour>
  </outline>
</glyph>
<glyph name="u102E" format="2">
  <advance width="0"/>
  <unicode hex="102E"/>
  <anchor x="-75" y="495" name="_Y"/>
  <anchor x="-237" y="495" name="_U"/>
  <anchor x="-237" y="495" name="UM"/>
  <outline>
    <contour>
      <point x="-120" y="634" type="curve"/>
      <point x="-157" y="676"/>
      <point x="-211" y="687"/>
      <point x="-234" y="687" type="curve" smooth="yes"/>
      <point x="-258" y="687"/>
      <point x="-304" y="677"/>
      <point x="-345" y="634" type="curve"/>
      <point x="-322" y="603"/>
      <point x="-277" y="576"/>
      <point x="-234" y="576" type="curve" smooth="yes"/>
      <point x="-187" y="576"/>
      <point x="-145" y="597"/>
    </contour>
    <contour>
      <point x="-234" y="864" type="curve" smooth="yes"/>
      <point x="-310" y="864"/>
      <point x="-373" y="798"/>
      <point x="-373" y="720" type="curve" smooth="yes"/>
      <point x="-373" y="704"/>
      <point x="-370" y="686"/>
      <point x="-363" y="667" type="curve"/>
      <point x="-322" y="708"/>
      <point x="-277" y="721"/>
      <point x="-234" y="721" type="curve" smooth="yes"/>
      <point x="-191" y="721"/>
      <point x="-142" y="708"/>
      <point x="-103" y="667" type="curve"/>
      <point x="-97" y="684"/>
      <point x="-94" y="701"/>
      <point x="-94" y="720" type="curve" smooth="yes"/>
      <point x="-94" y="798"/>
      <point x="-157" y="864"/>
    </contour>
    <contour>
      <point x="-55" y="720" type="curve" smooth="yes"/>
      <point x="-55" y="618"/>
      <point x="-135" y="537"/>
      <point x="-234" y="537" type="curve" smooth="yes"/>
      <point x="-331" y="537"/>
      <point x="-412" y="618"/>
      <point x="-412" y="720" type="curve" smooth="yes"/>
      <point x="-412" y="821"/>
      <point x="-331" y="903"/>
      <point x="-234" y="903" type="curve" smooth="yes"/>
      <point x="-135" y="903"/>
      <point x="-55" y="821"/>
    </contour>
  </outline>
</glyph>
<glyph name="u102F" format="2">
  <advance width="147"/>
  <unicode hex="102F"/>
  <anchor x="290" y="-53" name="BS"/>
  <anchor x="67" y="495" name="Y"/>
  <anchor x="290" y="-53" name="L"/>
  <anchor x="67" y="495" name="U"/>
  <anchor x="290" y="-53" name="BD"/>
  <outline>
    <contour>
      <point x="174" y="-450" type="line"/>
      <point x="40" y="-450" type="line"/>
      <point x="40" y="444" type="line"/>
      <point x="91" y="444" type="line"/>
      <point x="91" y="-399" type="line"/>
      <point x="174" y="-399" type="line"/>
    </contour>
  </outline>
</glyph>
<glyph name="u1031" format="2">
  <advance width="576"/>
  <unicode hex="1031"/>
  <anchor x="0" y="0" name="_R"/>
  <anchor x="292" y="-53" name="BS"/>
  <anchor x="292" y="-53" name="L"/>
  <anchor x="292" y="495" name="U"/>
  <anchor x="292" y="-53" name="BD"/>
  <outline>
    <contour>
      <point x="460" y="127" type="curve"/>
      <point x="428" y="143"/>
      <point x="396" y="151"/>
      <point x="363" y="151" type="curve" smooth="yes"/>
      <point x="291" y="151"/>
      <point x="239" y="119"/>
      <point x="202" y="58" type="curve"/>
      <point x="230" y="45"/>
      <point x="259" y="36"/>
      <point x="292" y="36" type="curve" smooth="yes"/>
      <point x="360" y="36"/>
      <point x="424" y="63"/>
    </contour>
    <contour>
      <point x="520" y="153" type="curve"/>
      <point x="517" y="105"/>
      <point x="449" y="-15"/>
      <point x="292" y="-15" type="curve" smooth="yes"/>
      <point x="162" y="-15"/>
      <point x="55" y="91"/>
      <point x="55" y="222" type="curve" smooth="yes"/>
      <point x="55" y="351"/>
      <point x="162" y="459"/>
      <point x="292" y="459" type="curve" smooth="yes"/>
      <point x="386" y="459"/>
      <point x="479" y="409"/>
      <point x="513" y="322" type="curve"/>
      <point x="469" y="297" type="line"/>
      <point x="432" y="366"/>
      <point x="363" y="408"/>
      <point x="292" y="408" type="curve" smooth="yes"/>
      <point x="190" y="408"/>
      <point x="106" y="323"/>
      <point x="106" y="222" type="curve" smooth="yes"/>
      <point x="106" y="170"/>
      <point x="127" y="126"/>
      <point x="159" y="91" type="curve"/>
      <point x="208" y="164"/>
      <point x="278" y="202"/>
      <point x="366" y="202" type="curve" smooth="yes"/>
      <point x="419" y="202"/>
      <point x="464" y="182"/>
    </contour>
  </outline>
</glyph>
<glyph name="u1035" format="2">
  <advance width="0"/>
  <unicode hex="1035"/>
  <anchor x="-75" y="495" name="_Y"/>
  <anchor x="-231" y="495" name="_U"/>
  <anchor x="-231" y="495" name="UM"/>
  <outline>
    <contour>
      <point x="-99" y="654" type="curve"/>
      <point x="-123" y="667"/>
      <point x="-147" y="675"/>
      <point x="-174" y="675" type="curve" smooth="yes"/>
      <point x="-226" y="675"/>
      <point x="-280" y="645"/>
      <point x="-304" y="598" type="curve"/>
      <point x="-281" y="587"/>
      <point x="-256" y="579"/>
      <point x="-231" y="579" type="curve" smooth="yes"/>
      <point x="-178" y="579"/>
      <point x="-122" y="606"/>
    </contour>
    <contour>
      <point x="-55" y="670" type="curve"/>
      <point x="-55" y="633"/>
      <point x="-112" y="540"/>
      <point x="-231" y="540" type="curve" smooth="yes"/>
      <point x="-331" y="540"/>
      <point x="-412" y="621"/>
      <point x="-412" y="723" type="curve" smooth="yes"/>
      <point x="-412" y="824"/>
      <point x="-331" y="906"/>
      <point x="-231" y="906" type="curve" smooth="yes"/>
      <point x="-164" y="906"/>
      <point x="-90" y="868"/>
      <point x="-61" y="801" type="curve"/>
      <point x="-94" y="780" type="line"/>
      <point x="-123" y="836"/>
      <point x="-176" y="867"/>
      <point x="-231" y="867" type="curve" smooth="yes"/>
      <point x="-310" y="867"/>
      <point x="-373" y="801"/>
      <point x="-373" y="723" type="curve" smooth="yes"/>
      <point x="-373" y="684"/>
      <point x="-359" y="650"/>
      <point x="-331" y="622" type="curve"/>
      <point x="-301" y="671"/>
      <point x="-248" y="709"/>
      <point x="-174" y="709" type="curve" smooth="yes"/>
      <point x="-133" y="709"/>
      <point x="-99" y="694"/>
    </contour>
  </outline>
</glyph>
<glyph name="u1037" format="2">
  <advance width="55"/>
  <unicode hex="1037"/>
  <anchor x="-74" y="-53" name="_L"/>
  <anchor x="-74" y="-53" name="_LM"/>
  <anchor x="-74" y="-53" name="_LLM"/>
  <outline>
    <contour>
      <point x="-29" y="-227" type="curve" smooth="yes"/>
      <point x="-29" y="-200"/>
      <point x="-50" y="-180"/>
      <point x="-75" y="-180" type="curve" smooth="yes"/>
      <point x="-102" y="-180"/>
      <point x="-122" y="-200"/>
      <point x="-122" y="-227" type="curve" smooth="yes"/>
      <point x="-122" y="-252"/>
      <point x="-102" y="-275"/>
      <point x="-75" y="-275" type="curve" smooth="yes"/>
      <point x="-50" y="-275"/>
      <point x="-29" y="-252"/>
    </contour>
    <contour>
      <point x="0" y="-227" type="curve" smooth="yes"/>
      <point x="0" y="-267"/>
      <point x="-35" y="-303"/>
      <point x="-75" y="-303" type="curve" smooth="yes"/>
      <point x="-116" y="-303"/>
      <point x="-150" y="-267"/>
      <point x="-150" y="-227" type="curve" smooth="yes"/>
      <point x="-150" y="-186"/>
      <point x="-116" y="-152"/>
      <point x="-75" y="-152" type="curve" smooth="yes"/>
      <point x="-35" y="-152"/>
      <point x="0" y="-186"/>
    </contour>
  </outline>
</glyph>
<glyph name="u103C" format="2">
  <advance width="172"/>
  <unicode hex="103C"/>
  <anchor x="172" y="0" name="R"/>
  <anchor x="841" y="-53" name="BS"/>
  <anchor x="502" y="-53" name="LL"/>
  <anchor x="841" y="-53" name="L"/>
  <anchor x="841" y="-53" name="BD"/>
  <outline>
    <contour>
      <point x="697" y="-95" type="line"/>
      <point x="697" y="-185" type="line" smooth="yes"/>
      <point x="697" y="-239"/>
      <point x="688" y="-322"/>
      <point x="631" y="-381" type="curve" smooth="yes"/>
      <point x="573" y="-442"/>
      <point x="503" y="-450"/>
      <point x="432" y="-450" type="curve" smooth="yes"/>
      <point x="336" y="-450" type="line" smooth="yes"/>
      <point x="264" y="-450"/>
      <point x="195" y="-442"/>
      <point x="136" y="-381" type="curve" smooth="yes"/>
      <point x="79" y="-323"/>
      <point x="70" y="-239"/>
      <point x="70" y="-185" type="curve" smooth="yes"/>
      <point x="70" y="690" type="line" smooth="yes"/>
      <point x="70" y="744"/>
      <point x="80" y="830"/>
      <point x="136" y="886" type="curve" smooth="yes"/>
      <point x="195" y="945"/>
      <point x="265" y="955"/>
      <point x="336" y="955" type="curve" smooth="yes"/>
      <point x="432" y="955" type="line" smooth="yes"/>
      <point x="503" y="955"/>
      <point x="572" y="944"/>
      <point x="630" y="885" type="curve" smooth="yes"/>
      <point x="674" y="839"/>
      <point x="697" y="776"/>
      <point x="697" y="742" type="curve"/>
      <point x="646" y="742" type="line"/>
      <point x="646" y="762"/>
      <point x="624" y="817"/>
      <point x="591" y="850" type="curve" smooth="yes"/>
      <point x="540" y="903"/>
      <point x="467" y="904"/>
      <point x="411" y="904" type="curve" smooth="yes"/>
      <point x="357" y="904" type="line" smooth="yes"/>
      <point x="301" y="904"/>
      <point x="228" y="903"/>
      <point x="175" y="852" type="curve" smooth="yes"/>
      <point x="124" y="801"/>
      <point x="121" y="720"/>
      <point x="121" y="670" type="curve" smooth="yes"/>
      <point x="121" y="-167" type="line" smooth="yes"/>
      <point x="121" y="-214"/>
      <point x="124" y="-296"/>
      <point x="175" y="-347" type="curve" smooth="yes"/>
      <point x="222" y="-394"/>
      <point x="293" y="-399"/>
      <point x="358" y="-399" type="curve" smooth="yes"/>
      <point x="409" y="-399" type="line" smooth="yes"/>
      <point x="476" y="-399"/>
      <point x="546" y="-393"/>
      <point x="592" y="-347" type="curve" smooth="yes"/>
      <point x="640" y="-299"/>
      <point x="646" y="-223"/>
      <point x="646" y="-167" type="curve" smooth="yes"/>
      <point x="646" y="-95" type="line"/>
    </contour>
  </outline>
</glyph>
<glyph name="u103E" format="2">
  <advance width="0"/>
  <unicode hex="103E"/>
  <anchor x="-81" y="-53" name="_BS"/>
  <anchor x="-250" y="-53" name="LLM"/>
  <anchor x="-81" y="-53" name="_BSM"/>
  <anchor x="89" y="-53" name="LM"/>
  <anchor x="144" y="-53" name="BSM"/>
  <outline>
    <contour>
      <point x="-55" y="-450" type="line"/>
      <point x="-189" y="-450" type="line"/>
      <point x="-189" y="-399" type="line"/>
      <point x="-106" y="-399" type="line"/>
      <point x="-106" y="-95" type="line"/>
      <point x="-55" y="-95" type="line"/>
    </contour>
  </outline>
</glyph>
<glyph name="u1042" format="2">
  <advance width="503"/>
  <unicode hex="1042"/>
  <anchor x="252" y="-53" name="BS"/>
  <anchor x="252" y="-53" name="L"/>
  <anchor x="252" y="495" name="U"/>
  <anchor x="252" y="-53" name="BD"/>
  <outline>
    <contour>
      <point x="448" y="445" type="line"/>
      <point x="448" y="-285" type="line" smooth="yes"/>
      <point x="448" y="-373"/>
      <point x="384" y="-450"/>
      <point x="252" y="-450" type="curve" smooth="yes"/>
      <point x="120" y="-450"/>
      <point x="55" y="-377"/>
      <point x="55" y="-269" type="curve"/>
      <point x="106" y="-269" type="line"/>
      <point x="106" y="-367"/>
      <point x="176" y="-399"/>
      <point x="252" y="-399" type="curve" smooth="yes"/>
      <point x="328" y="-399"/>
      <point x="397" y="-361"/>
      <point x="397" y="-269" type="curve" smooth="yes"/>
      <point x="397" y="445" type="line"/>
    </contour>
  </outline>
</glyph>
<glyph name="u104E" format="2">
  <advance width="568"/>
  <unicode hex="104E"/>
  <anchor x="292" y="495" name="U"/>
  <anchor x="292" y="0" name="BS"/>
  <outline>
    <contour>
      <point x="513" y="-450" type="line"/>
      <point x="462" y="-450" type="line"/>
      <point x="462" y="49" type="line"/>
      <point x="415" y="6"/>
      <point x="352" y="-15"/>
      <point x="292" y="-15" type="curve" smooth="yes"/>
      <point x="161" y="-15"/>
      <point x="55" y="91"/>
      <point x="55" y="222" type="curve" smooth="yes"/>
      <point x="55" y="351"/>
      <point x="161" y="459"/>
      <point x="292" y="459" type="curve" smooth="yes"/>
      <point x="380" y="459"/>
      <point x="476" y="412"/>
      <point x="513" y="322" type="curve"/>
      <point x="469" y="297" type="line"/>
      <point x="432" y="368"/>
      <point x="364" y="408"/>
      <point x="292" y="408" type="curve" smooth="yes"/>
      <point x="190" y="408"/>
      <point x="106" y="324"/>
      <point x="106" y="222" type="curve" smooth="yes"/>
      <point x="106" y="120"/>
      <point x="190" y="36"/>
      <point x="292" y="36" type="curve" smooth="yes"/>
      <point x="364" y="36"/>
      <point x="432" y="75"/>
      <point x="469" y="147" type="curve"/>
      <point x="513" y="121" type="line"/>
    </contour>
  </outline>
</glyph>
<glyph name="u1052" format="2">
  <advance width="577"/>
  <unicode hex="1052"/>
  <anchor x="0" y="0" name="_R"/>
  <anchor x="285" y="-53" name="BS"/>
  <anchor x="285" y="-53" name="L"/>
  <anchor x="285" y="495" name="U"/>
  <anchor x="285" y="-53" name="BD"/>
  <outline>
    <contour>
      <point x="522" y="168" type="curve" smooth="yes"/>
      <point x="522" y="88"/>
      <point x="433" y="-15"/>
      <point x="292" y="-15" type="curve" smooth="yes"/>
      <point x="160" y="-15"/>
      <point x="55" y="88"/>
      <point x="55" y="240" type="curve" smooth="yes"/>
      <point x="55" y="349"/>
      <point x="93" y="410"/>
      <point x="153" y="457" type="curve"/>
      <point x="183" y="414" type="line"/>
      <point x="136" y="371"/>
      <point x="106" y="316"/>
      <point x="106" y="240" type="curve" smooth="yes"/>
      <point x="106" y="120"/>
      <point x="190" y="36"/>
      <point x="292" y="36" type="curve" smooth="yes"/>
      <point x="420" y="36"/>
      <point x="471" y="145"/>
      <point x="471" y="168" type="curve" smooth="yes"/>
      <point x="471" y="256"/>
      <point x="331" y="243"/>
      <point x="331" y="339" type="curve" smooth="yes"/>
      <point x="331" y="415"/>
      <point x="381" y="456"/>
      <point x="435" y="456" type="curve" smooth="yes"/>
      <point x="473" y="456"/>
      <point x="514" y="428"/>
      <point x="522" y="402" type="curve"/>
      <point x="478" y="375" type="line"/>
      <point x="475" y="388"/>
      <point x="455" y="405"/>
      <point x="435" y="405" type="curve" smooth="yes"/>
      <point x="410" y="405"/>
      <point x="382" y="388"/>
      <point x="382" y="339" type="curve" smooth="yes"/>
      <point x="382" y="285"/>
      <point x="522" y="295"/>
    </contour>
  </outline>
</glyph>
<glyph name="u1053" format="2">
  <advance width="630"/>
  <unicode hex="1053"/>
  <anchor x="30" y="0" name="_R"/>
  <anchor x="315" y="-53" name="BS"/>
  <anchor x="315" y="-53" name="L"/>
  <anchor x="315" y="495" name="U"/>
  <anchor x="315" y="-53" name="BD"/>
  <outline>
    <contour>
      <point x="574" y="403" type="curve"/>
      <point x="531" y="376" type="line"/>
      <point x="526" y="382"/>
      <point x="516" y="406"/>
      <point x="487" y="406" type="curve" smooth="yes"/>
      <point x="463" y="406"/>
      <point x="435" y="390"/>
      <point x="435" y="340" type="curve" smooth="yes"/>
      <point x="435" y="286"/>
      <point x="544" y="294"/>
      <point x="544" y="168" type="curve" smooth="yes"/>
      <point x="544" y="88"/>
      <point x="456" y="-15"/>
      <point x="315" y="-15" type="curve" smooth="yes"/>
      <point x="174" y="-15"/>
      <point x="85" y="88"/>
      <point x="85" y="168" type="curve" smooth="yes"/>
      <point x="85" y="294"/>
      <point x="195" y="286"/>
      <point x="195" y="340" type="curve" smooth="yes"/>
      <point x="195" y="390"/>
      <point x="166" y="406"/>
      <point x="142" y="406" type="curve" smooth="yes"/>
      <point x="114" y="406"/>
      <point x="103" y="382"/>
      <point x="99" y="376" type="curve"/>
      <point x="55" y="403" type="line"/>
      <point x="61" y="420"/>
      <point x="90" y="457"/>
      <point x="142" y="457" type="curve" smooth="yes"/>
      <point x="196" y="457"/>
      <point x="246" y="417"/>
      <point x="246" y="340" type="curve" smooth="yes"/>
      <point x="246" y="244"/>
      <point x="136" y="255"/>
      <point x="136" y="168" type="curve" smooth="yes"/>
      <point x="136" y="144"/>
      <point x="186" y="36"/>
      <point x="315" y="36" type="curve" smooth="yes"/>
      <point x="444" y="36"/>
      <point x="493" y="144"/>
      <point x="493" y="168" type="curve" smooth="yes"/>
      <point x="493" y="255"/>
      <point x="384" y="244"/>
      <point x="384" y="340" type="curve" smooth="yes"/>
      <point x="384" y="417"/>
      <point x="433" y="457"/>
      <point x="487" y="457" type="curve" smooth="yes"/>
      <point x="540" y="457"/>
      <point x="568" y="420"/>
    </contour>
  </outline>
</glyph>
<glyph name="u1057" format="2">
  <advance width="511"/>
  <unicode hex="1057"/>
  <anchor x="0" y="0" name="_R"/>
  <anchor x="238" y="-53" name="BS"/>
  <anchor x="238" y="-53" name="L"/>
  <anchor x="277" y="495" name="U"/>
  <anchor x="238" y="-53" name="BD"/>
  <outline>
    <contour>
      <point x="456" y="175" type="curve" smooth="yes"/>
      <point x="456" y="94"/>
      <point x="402" y="-15"/>
      <point x="353" y="-15" type="curve" smooth="yes"/>
      <point x="284" y="-15"/>
      <point x="278" y="96"/>
      <point x="258" y="96" type="curve" smooth="yes"/>
      <point x="238" y="96"/>
      <point x="234" y="-15"/>
      <point x="164" y="-15" type="curve" smooth="yes"/>
      <point x="113" y="-15"/>
      <point x="74" y="37"/>
      <point x="55" y="96" type="curve"/>
      <point x="102" y="116" type="line"/>
      <point x="118" y="68"/>
      <point x="142" y="36"/>
      <point x="164" y="36" type="curve" smooth="yes"/>
      <point x="194" y="36"/>
      <point x="198" y="147"/>
      <point x="258" y="147" type="curve" smooth="yes"/>
      <point x="318" y="147"/>
      <point x="322" y="36"/>
      <point x="352" y="36" type="curve" smooth="yes"/>
      <point x="377" y="36"/>
      <point x="405" y="125"/>
      <point x="405" y="175" type="curve" smooth="yes"/>
      <point x="405" y="286"/>
      <point x="211" y="243"/>
      <point x="211" y="364" type="curve" smooth="yes"/>
      <point x="211" y="427"/>
      <point x="260" y="460"/>
      <point x="299" y="460" type="curve" smooth="yes"/>
      <point x="326" y="460"/>
      <point x="371" y="454"/>
      <point x="406" y="412" type="curve"/>
      <point x="373" y="373" type="line"/>
      <point x="332" y="408"/>
      <point x="321" y="409"/>
      <point x="299" y="409" type="curve" smooth="yes"/>
      <point x="279" y="409"/>
      <point x="262" y="389"/>
      <point x="262" y="364" type="curve" smooth="yes"/>
      <point x="262" y="301"/>
      <point x="456" y="329"/>
    </contour>
  </outline>
</glyph>
<glyph name="u105A" format="2">
  <advance width="568"/>
  <unicode hex="105A"/>
  <anchor x="0" y="0" name="_R"/>
  <anchor x="292" y="-53" name="BS"/>
  <anchor x="292" y="-53" name="L"/>
  <anchor x="292" y="495" name="U"/>
  <anchor x="292" y="-53" name="BD"/>
  <outline>
    <contour>
      <point x="380" y="-192" type="curve" smooth="yes"/>
      <point x="380" y="-248"/>
      <point x="285" y="-317"/>
      <point x="285" y="-373" type="curve" smooth="yes"/>
      <point x="285" y="-386"/>
      <point x="292" y="-399"/>
      <point x="311" y="-399" type="curve" smooth="yes"/>
      <point x="322" y="-399"/>
      <point x="331" y="-395"/>
      <point x="339" y="-388" type="curve"/>
      <point x="353" y="-433" type="line"/>
      <point x="344" y="-442"/>
      <point x="328" y="-450"/>
      <point x="311" y="-450" type="curve" smooth="yes"/>
      <point x="274" y="-450"/>
      <point x="233" y="-434"/>
      <point x="233" y="-373" type="curve" smooth="yes"/>
      <point x="233" y="-298"/>
      <point x="330" y="-219"/>
      <point x="330" y="-192" type="curve" smooth="yes"/>
      <point x="330" y="-158"/>
      <point x="309" y="-152"/>
      <point x="290" y="-152" type="curve" smooth="yes"/>
      <point x="267" y="-152"/>
      <point x="253" y="-169"/>
      <point x="253" y="-192" type="curve"/>
      <point x="203" y="-192" type="line"/>
      <point x="203" y="-152"/>
      <point x="232" y="-101"/>
      <point x="290" y="-101" type="curve" smooth="yes"/>
      <point x="330" y="-101"/>
      <point x="380" y="-124"/>
    </contour>
    <contour>
      <point x="513" y="121" type="line"/>
      <point x="476" y="30"/>
      <point x="380" y="-15"/>
      <point x="292" y="-15" type="curve" smooth="yes"/>
      <point x="161" y="-15"/>
      <point x="55" y="91"/>
      <point x="55" y="222" type="curve" smooth="yes"/>
      <point x="55" y="351"/>
      <point x="161" y="459"/>
      <point x="292" y="459" type="curve" smooth="yes"/>
      <point x="380" y="459"/>
      <point x="476" y="412"/>
      <point x="513" y="322" type="curve"/>
      <point x="469" y="297" type="line"/>
      <point x="432" y="368"/>
      <point x="364" y="408"/>
      <point x="292" y="408" type="curve" smooth="yes"/>
      <point x="190" y="408"/>
      <point x="106" y="324"/>
      <point x="106" y="222" type="curve" smooth="yes"/>
      <point x="106" y="120"/>
      <point x="190" y="36"/>
      <point x="292" y="36" type="curve" smooth="yes"/>
      <point x="364" y="36"/>
      <point x="432" y="75"/>
      <point x="469" y="147" type="curve"/>
    </contour>
  </outline>
</glyph>
<glyph name="u1061" format="2">
  <advance width="588"/>
  <unicode hex="1061"/>
  <anchor x="0" y="0" name="_R"/>
  <anchor x="247" y="-53" name="BS"/>
  <anchor x="236" y="-53" name="LL"/>
  <anchor x="646" y="-53" name="L"/>
  <anchor x="87" y="-53" name="BD"/>
  <anchor x="295" y="495" name="U"/>
  <outline>
    <contour>
      <point x="384" y="-450" type="line"/>
      <point x="250" y="-450" type="line"/>
      <point x="250" y="-399" type="line"/>
      <point x="333" y="-399" type="line"/>
      <point x="333" y="-95" type="line"/>
      <point x="384" y="-95" type="line"/>
    </contour>
    <contour>
      <point x="333" y="39" type="curve"/>
      <point x="314" y="96"/>
      <point x="289" y="139"/>
      <point x="229" y="165" type="curve" smooth="yes"/>
      <point x="202" y="176"/>
      <point x="178" y="181"/>
      <point x="154" y="181" type="curve" smooth="yes"/>
      <point x="140" y="181"/>
      <point x="126" y="180"/>
      <point x="112" y="177" type="curve"/>
      <point x="132" y="97"/>
      <point x="203" y="36"/>
      <point x="292" y="36" type="curve" smooth="yes"/>
      <point x="308" y="36"/>
      <point x="318" y="36"/>
    </contour>
    <contour>
      <point x="532" y="-450" type="line"/>
      <point x="481" y="-450" type="line"/>
      <point x="481" y="202" type="line" smooth="yes"/>
      <point x="481" y="324"/>
      <point x="394" y="408"/>
      <point x="292" y="408" type="curve" smooth="yes"/>
      <point x="193" y="408"/>
      <point x="111" y="325"/>
      <point x="106" y="230" type="curve"/>
      <point x="120" y="232"/>
      <point x="135" y="233"/>
      <point x="149" y="233" type="curve" smooth="yes"/>
      <point x="184" y="233"/>
      <point x="219" y="226"/>
      <point x="252" y="210" type="curve" smooth="yes"/>
      <point x="337" y="169"/>
      <point x="368" y="107"/>
      <point x="399" y="7" type="curve"/>
      <point x="366" y="-8"/>
      <point x="330" y="-15"/>
      <point x="292" y="-15" type="curve" smooth="yes"/>
      <point x="162" y="-15"/>
      <point x="55" y="91"/>
      <point x="55" y="222" type="curve" smooth="yes"/>
      <point x="55" y="350"/>
      <point x="162" y="457"/>
      <point x="292" y="457" type="curve" smooth="yes"/>
      <point x="424" y="457"/>
      <point x="532" y="356"/>
      <point x="532" y="202" type="curve" smooth="yes"/>
    </contour>
  </outline>
</glyph>
<glyph name="u1063" format="2">
  <advance width="568"/>
  <unicode hex="1063"/>
  <anchor x="0" y="0" name="_R"/>
  <anchor x="276" y="-53" name="BS"/>
  <anchor x="276" y="-53" name="L"/>
  <anchor x="276" y="495" name="U"/>
  <anchor x="276" y="-53" name="BD"/>
  <outline>
    <contour>
      <point x="513" y="222" type="curve" smooth="yes"/>
      <point x="513" y="91"/>
      <point x="406" y="-15"/>
      <point x="276" y="-15" type="curve" smooth="yes"/>
      <point x="217" y="-15"/>
      <point x="153" y="7"/>
      <point x="106" y="49" type="curve"/>
      <point x="106" y="-450" type="line"/>
      <point x="55" y="-450" type="line"/>
      <point x="55" y="121" type="line"/>
      <point x="99" y="147" type="line"/>
      <point x="136" y="76"/>
      <point x="205" y="36"/>
      <point x="276" y="36" type="curve" smooth="yes"/>
      <point x="378" y="36"/>
      <point x="462" y="120"/>
      <point x="462" y="222" type="curve" smooth="yes"/>
      <point x="462" y="324"/>
      <point x="378" y="408"/>
      <point x="276" y="408" type="curve" smooth="yes"/>
      <point x="205" y="408"/>
      <point x="136" y="367"/>
      <point x="99" y="297" type="curve"/>
      <point x="55" y="322" type="line"/>
      <point x="85" y="394"/>
      <point x="165" y="459"/>
      <point x="276" y="459" type="curve" smooth="yes"/>
      <point x="406" y="459"/>
      <point x="513" y="351"/>
    </contour>
  </outline>
</glyph>
<glyph name="u106B" format="2">
  <advance width="291"/>
  <unicode hex="106B"/>
  <anchor x="210" y="-53" name="BS"/>
  <anchor x="210" y="-53" name="L"/>
  <anchor x="138" y="495" name="U"/>
  <anchor x="210" y="-53" name="BD"/>
  <outline>
    <contour>
      <point x="235" y="0" type="line"/>
      <point x="184" y="0" type="line"/>
      <point x="184" y="346" type="line" smooth="yes"/>
      <point x="184" y="390"/>
      <point x="160" y="408"/>
      <point x="138" y="408" type="curve" smooth="yes"/>
      <point x="115" y="408"/>
      <point x="91" y="390"/>
      <point x="91" y="361" type="curve"/>
      <point x="40" y="361" type="line"/>
      <point x="40" y="414"/>
      <point x="76" y="459"/>
      <point x="138" y="459" type="curve" smooth="yes"/>
      <point x="195" y="459"/>
      <point x="235" y="414"/>
      <point x="235" y="346" type="curve" smooth="yes"/>
    </contour>
  </outline>
</glyph>
<glyph name="u106C" format="2">
  <advance width="291"/>
  <unicode hex="106C"/>
  <anchor x="138" y="-53" name="BS"/>
  <anchor x="138" y="-53" name="L"/>
  <anchor x="66" y="495" name="U"/>
  <anchor x="138" y="-53" name="BD"/>
  <outline>
    <contour>
      <point x="235" y="82" type="line"/>
      <point x="235" y="30"/>
      <point x="199" y="-15"/>
      <point x="138" y="-15" type="curve" smooth="yes"/>
      <point x="81" y="-15"/>
      <point x="40" y="30"/>
      <point x="40" y="97" type="curve" smooth="yes"/>
      <point x="40" y="444" type="line"/>
      <point x="91" y="444" type="line"/>
      <point x="91" y="97" type="line" smooth="yes"/>
      <point x="91" y="54"/>
      <point x="115" y="36"/>
      <point x="138" y="36" type="curve" smooth="yes"/>
      <point x="160" y="36"/>
      <point x="184" y="54"/>
      <point x="184" y="82" type="curve"/>
    </contour>
  </outline>
</glyph>
<glyph name="u1074" format="2">
  <advance width="0"/>
  <unicode hex="1074"/>
  <anchor x="-75" y="495" name="_Y"/>
  <anchor x="-282" y="495" name="_U"/>
  <anchor x="-282" y="495" name="UM"/>
  <outline>
    <contour>
      <point x="-55" y="839" type="line"/>
      <point x="-282" y="612" type="line"/>
      <point x="-508" y="839" type="line"/>
      <point x="-480" y="867" type="line"/>
      <point x="-282" y="668" type="line"/>
      <point x="-84" y="867" type="line"/>
    </contour>
  </outline>
</glyph>
<glyph name="u1075" format="2">
  <advance width="577"/>
  <unicode hex="1075"/>
  <anchor x="0" y="0" name="_R"/>
  <anchor x="285" y="-53" name="BS"/>
  <anchor x="285" y="-53" name="L"/>
  <anchor x="285" y="495" name="U"/>
  <anchor x="285" y="-53" name="BD"/>
  <outline>
    <contour>
      <point x="522" y="202" type="curve" smooth="yes"/>
      <point x="522" y="93"/>
      <point x="484" y="32"/>
      <point x="424" y="-15" type="curve"/>
      <point x="394" y="28" type="line"/>
      <point x="441" y="71"/>
      <point x="471" y="126"/>
      <point x="471" y="202" type="curve" smooth="yes"/>
      <point x="471" y="322"/>
      <point x="387" y="406"/>
      <point x="285" y="406" type="curve" smooth="yes"/>
      <point x="157" y="406"/>
      <point x="106" y="297"/>
      <point x="106" y="274" type="curve" smooth="yes"/>
      <point x="106" y="186"/>
      <point x="246" y="199"/>
      <point x="246" y="103" type="curve" smooth="yes"/>
      <point x="246" y="27"/>
      <point x="196" y="-14"/>
      <point x="142" y="-14" type="curve" smooth="yes"/>
      <point x="102" y="-14"/>
      <point x="62" y="16"/>
      <point x="55" y="40" type="curve"/>
      <point x="99" y="67" type="line"/>
      <point x="103" y="53"/>
      <point x="122" y="37"/>
      <point x="142" y="37" type="curve" smooth="yes"/>
      <point x="166" y="37"/>
      <point x="195" y="53"/>
      <point x="195" y="103" type="curve" smooth="yes"/>
      <point x="195" y="157"/>
      <point x="55" y="147"/>
      <point x="55" y="274" type="curve" smooth="yes"/>
      <point x="55" y="354"/>
      <point x="144" y="457"/>
      <point x="285" y="457" type="curve" smooth="yes"/>
      <point x="417" y="457"/>
      <point x="522" y="354"/>
    </contour>
  </outline>
</glyph>
<glyph name="u1076" format="2">
  <advance width="582"/>
  <unicode hex="1076"/>
  <anchor x="0" y="0" name="_R"/>
  <anchor x="289" y="-53" name="BS"/>
  <anchor x="289" y="-53" name="L"/>
  <anchor x="289" y="495" name="U"/>
  <anchor x="289" y="-53" name="BD"/>
  <outline>
    <contour>
      <point x="379" y="58" type="curve"/>
      <point x="345" y="113"/>
      <point x="288" y="153"/>
      <point x="219" y="153" type="curve" smooth="yes"/>
      <point x="186" y="153"/>
      <point x="154" y="144"/>
      <point x="121" y="127" type="curve"/>
      <point x="157" y="63"/>
      <point x="222" y="36"/>
      <point x="289" y="36" type="curve" smooth="yes"/>
      <point x="324" y="36"/>
      <point x="351" y="45"/>
    </contour>
    <contour>
      <point x="526" y="222" type="curve" smooth="yes"/>
      <point x="526" y="91"/>
      <point x="420" y="-15"/>
      <point x="289" y="-15" type="curve" smooth="yes"/>
      <point x="132" y="-15"/>
      <point x="66" y="105"/>
      <point x="61" y="153" type="curve"/>
      <point x="117" y="183"/>
      <point x="162" y="204"/>
      <point x="216" y="204" type="curve" smooth="yes"/>
      <point x="296" y="204"/>
      <point x="376" y="160"/>
      <point x="423" y="91" type="curve"/>
      <point x="454" y="126"/>
      <point x="475" y="169"/>
      <point x="475" y="222" type="curve" smooth="yes"/>
      <point x="475" y="334"/>
      <point x="376" y="408"/>
      <point x="304" y="408" type="curve" smooth="yes"/>
      <point x="228" y="408"/>
      <point x="279" y="268"/>
      <point x="165" y="268" type="curve" smooth="yes"/>
      <point x="118" y="268"/>
      <point x="55" y="301"/>
      <point x="55" y="370" type="curve" smooth="yes"/>
      <point x="55" y="399"/>
      <point x="67" y="438"/>
      <point x="108" y="459" type="curve"/>
      <point x="135" y="415" type="line"/>
      <point x="115" y="406"/>
      <point x="106" y="390"/>
      <point x="106" y="372" type="curve" smooth="yes"/>
      <point x="106" y="346"/>
      <point x="127" y="319"/>
      <point x="165" y="319" type="curve" smooth="yes"/>
      <point x="235" y="319"/>
      <point x="189" y="459"/>
      <point x="304" y="459" type="curve" smooth="yes"/>
      <point x="420" y="459"/>
      <point x="526" y="348"/>
    </contour>
  </outline>
</glyph>
<glyph name="u1082" format="2">
  <advance width="426"/>
  <unicode hex="1082"/>
  <anchor x="238" y="-53" name="_BS"/>
  <anchor x="556" y="-53" name="BSM"/>
  <anchor x="25" y="-53" name="LM"/>
  <anchor x="-495" y="-53" name="BDM"/>
  <anchor x="238" y="-53" name="_BSM"/>
  <anchor x="-770" y="-53" name="LLM"/>
  <outline>
    <contour>
      <point x="469" y="-389" type="line"/>
      <point x="446" y="-436"/>
      <point x="393" y="-465"/>
      <point x="333" y="-465" type="curve" smooth="yes"/>
      <point x="241" y="-465"/>
      <point x="154" y="-390"/>
      <point x="154" y="-282" type="curve" smooth="yes"/>
      <point x="154" y="-161"/>
      <point x="265" y="-95"/>
      <point x="337" y="-95" type="curve"/>
      <point x="337" y="-134" type="line"/>
      <point x="302" y="-134"/>
      <point x="193" y="-174"/>
      <point x="193" y="-282" type="curve" smooth="yes"/>
      <point x="193" y="-370"/>
      <point x="266" y="-425"/>
      <point x="333" y="-425" type="curve" smooth="yes"/>
      <point x="368" y="-425"/>
      <point x="412" y="-412"/>
      <point x="441" y="-365" type="curve"/>
    </contour>
  </outline>
</glyph>
<glyph name="u1084" format="2">
  <advance width="534"/>
  <unicode hex="1084"/>
  <outline>
    <contour>
      <point x="478" y="115" type="line"/>
      <point x="478" y="39"/>
      <point x="406" y="-15"/>
      <point x="267" y="-15" type="curve" smooth="yes"/>
      <point x="118" y="-15"/>
      <point x="55" y="46"/>
      <point x="55" y="123" type="curve" smooth="yes"/>
      <point x="55" y="170"/>
      <point x="87" y="211"/>
      <point x="139" y="222" type="curve"/>
      <point x="87" y="233"/>
      <point x="55" y="274"/>
      <point x="55" y="321" type="curve" smooth="yes"/>
      <point x="55" y="397"/>
      <point x="118" y="459"/>
      <point x="267" y="459" type="curve" smooth="yes"/>
      <point x="406" y="459"/>
      <point x="478" y="405"/>
      <point x="478" y="328" type="curve"/>
      <point x="432" y="310" type="line"/>
      <point x="432" y="378"/>
      <point x="370" y="408"/>
      <point x="267" y="408" type="curve" smooth="yes"/>
      <point x="189" y="408"/>
      <point x="106" y="387"/>
      <point x="106" y="321" type="curve" smooth="yes"/>
      <point x="106" y="272"/>
      <point x="172" y="253"/>
      <point x="247" y="247" type="curve"/>
      <point x="247" y="196" type="line"/>
      <point x="174" y="191"/>
      <point x="106" y="173"/>
      <point x="106" y="123" type="curve" smooth="yes"/>
      <point x="106" y="57"/>
      <point x="189" y="36"/>
      <point x="267" y="36" type="curve" smooth="yes"/>
      <point x="370" y="37"/>
      <point x="432" y="65"/>
      <point x="432" y="133" type="curve"/>
    </contour>
  </outline>
</glyph>
<glyph name="u108A" format="2">
  <advance width="351"/>
  <unicode hex="108A"/>
  <outline>
    <contour>
      <point x="178" y="75" type="curve" smooth="yes"/>
      <point x="178" y="103"/>
      <point x="153" y="121"/>
      <point x="130" y="121" type="curve" smooth="yes"/>
      <point x="108" y="121"/>
      <point x="84" y="103"/>
      <point x="84" y="75" type="curve" smooth="yes"/>
      <point x="84" y="46"/>
      <point x="108" y="28"/>
      <point x="130" y="28" type="curve" smooth="yes"/>
      <point x="153" y="28"/>
      <point x="178" y="46"/>
    </contour>
    <contour>
      <point x="295" y="96" type="line"/>
      <point x="277" y="55"/>
      <point x="220" y="1"/>
      <point x="133" y="0" type="curve" smooth="yes"/>
      <point x="130" y="0" type="line" smooth="yes"/>
      <point x="88" y="0"/>
      <point x="55" y="34"/>
      <point x="55" y="75" type="curve" smooth="yes"/>
      <point x="55" y="115"/>
      <point x="88" y="150"/>
      <point x="130" y="150" type="curve" smooth="yes"/>
      <point x="172" y="150"/>
      <point x="207" y="115"/>
      <point x="207" y="75" type="curve" smooth="yes"/>
      <point x="207" y="66"/>
      <point x="205" y="57"/>
      <point x="202" y="48" type="curve"/>
      <point x="232" y="55"/>
      <point x="268" y="76"/>
      <point x="288" y="106" type="curve"/>
    </contour>
    <contour>
      <point x="178" y="384" type="curve" smooth="yes"/>
      <point x="178" y="412"/>
      <point x="153" y="430"/>
      <point x="130" y="430" type="curve" smooth="yes"/>
      <point x="108" y="430"/>
      <point x="84" y="412"/>
      <point x="84" y="384" type="curve" smooth="yes"/>
      <point x="84" y="355"/>
      <point x="108" y="337"/>
      <point x="130" y="337" type="curve" smooth="yes"/>
      <point x="153" y="337"/>
      <point x="178" y="355"/>
    </contour>
    <contour>
      <point x="295" y="405" type="line"/>
      <point x="277" y="365"/>
      <point x="221" y="311"/>
      <point x="133" y="309" type="curve" smooth="yes"/>
      <point x="130" y="309" type="line" smooth="yes"/>
      <point x="88" y="309"/>
      <point x="55" y="343"/>
      <point x="55" y="384" type="curve" smooth="yes"/>
      <point x="55" y="424"/>
      <point x="88" y="459"/>
      <point x="130" y="459" type="curve" smooth="yes"/>
      <point x="172" y="459"/>
      <point x="207" y="424"/>
      <point x="207" y="384" type="curve" smooth="yes"/>
      <point x="207" y="375"/>
      <point x="205" y="366"/>
      <point x="202" y="357" type="curve"/>
      <point x="232" y="364"/>
      <point x="268" y="385"/>
      <point x="288" y="415" type="curve"/>
    </contour>
  </outline>
</glyph>
<glyph name="u108E" format="2">
  <advance width="576"/>
  <unicode hex="108E"/>
  <anchor x="0" y="0" name="_R"/>
  <anchor x="288" y="-53" name="BS"/>
  <anchor x="288" y="-53" name="L"/>
  <anchor x="288" y="495" name="U"/>
  <anchor x="288" y="-53" name="BD"/>
  <outline>
    <contour>
      <point x="429" y="337" type="curve"/>
      <point x="394" y="381"/>
      <point x="342" y="408"/>
      <point x="286" y="408" type="curve" smooth="yes"/>
      <point x="229" y="408"/>
      <point x="180" y="380"/>
      <point x="145" y="337" type="curve"/>
      <point x="197" y="284"/>
      <point x="253" y="273"/>
      <point x="286" y="273" type="curve" smooth="yes"/>
      <point x="321" y="273"/>
      <point x="377" y="284"/>
    </contour>
    <contour>
      <point x="469" y="222" type="curve" smooth="yes"/>
      <point x="469" y="246"/>
      <point x="465" y="269"/>
      <point x="456" y="292" type="curve"/>
      <point x="404" y="240"/>
      <point x="338" y="222"/>
      <point x="286" y="222" type="curve" smooth="yes"/>
      <point x="230" y="222"/>
      <point x="172" y="239"/>
      <point x="120" y="291" type="curve"/>
      <point x="111" y="268"/>
      <point x="106" y="245"/>
      <point x="106" y="222" type="curve" smooth="yes"/>
      <point x="106" y="119"/>
      <point x="188" y="36"/>
      <point x="286" y="36" type="curve" smooth="yes"/>
      <point x="388" y="36"/>
      <point x="469" y="119"/>
    </contour>
    <contour>
      <point x="520" y="222" type="curve" smooth="yes"/>
      <point x="520" y="91"/>
      <point x="415" y="-15"/>
      <point x="286" y="-15" type="curve" smooth="yes"/>
      <point x="156" y="-15"/>
      <point x="55" y="91"/>
      <point x="55" y="222" type="curve" smooth="yes"/>
      <point x="55" y="351"/>
      <point x="158" y="459"/>
      <point x="286" y="459" type="curve" smooth="yes"/>
      <point x="418" y="459"/>
      <point x="520" y="351"/>
    </contour>
  </outline>
</glyph>
<glyph name="u1093" format="2">
  <advance width="654"/>
  <unicode hex="1093"/>
  <anchor x="182" y="495" name="U"/>
  <outline>
    <contour>
      <point x="599" y="-450" type="line"/>
      <point x="548" y="-450" type="line"/>
      <point x="548" y="-228" type="line" smooth="yes"/>
      <point x="548" y="-121"/>
      <point x="469" y="-42"/>
      <point x="366" y="-42" type="curve" smooth="yes"/>
      <point x="354" y="-42"/>
      <point x="286" y="-46"/>
      <point x="234" y="-90" type="curve"/>
      <point x="108" y="-450" type="line"/>
      <point x="55" y="-450" type="line"/>
      <point x="375" y="449" type="line"/>
      <point x="425" y="449" type="line"/>
      <point x="261" y="-14" type="line"/>
      <point x="294" y="1"/>
      <point x="335" y="9"/>
      <point x="366" y="9" type="curve" smooth="yes"/>
      <point x="515" y="9"/>
      <point x="599" y="-115"/>
      <point x="599" y="-228" type="curve" smooth="yes"/>
    </contour>
  </outline>
</glyph>
<glyph name="u1094" format="2">
  <advance width="720"/>
  <unicode hex="1094"/>
  <anchor x="200" y="495" name="U"/>
  <outline>
    <contour>
      <point x="665" y="-319" type="line"/>
      <point x="392" y="-450" type="line"/>
      <point x="392" y="301" type="line"/>
      <point x="108" y="-450" type="line"/>
      <point x="55" y="-450" type="line"/>
      <point x="393" y="449" type="line"/>
      <point x="443" y="449" type="line"/>
      <point x="443" y="-370" type="line"/>
      <point x="645" y="-273" type="line"/>
    </contour>
  </outline>
</glyph>
<glyph name="u1098" format="2">
  <advance width="584"/>
  <unicode hex="1098"/>
  <anchor x="290" y="-53" name="BS"/>
  <anchor x="290" y="-53" name="L"/>
  <anchor x="290" y="495" name="U"/>
  <anchor x="290" y="-53" name="BD"/>
  <outline>
    <contour>
      <point x="476" y="-212" type="curve" smooth="yes"/>
      <point x="476" y="-104"/>
      <point x="384" y="-16"/>
      <point x="293" y="-16" type="curve" smooth="yes"/>
      <point x="204" y="-16"/>
      <point x="112" y="-105"/>
      <point x="112" y="-212" type="curve" smooth="yes"/>
      <point x="112" y="-322"/>
      <point x="201" y="-399"/>
      <point x="294" y="-399" type="curve" smooth="yes"/>
      <point x="387" y="-399"/>
      <point x="476" y="-319"/>
    </contour>
    <contour>
      <point x="527" y="-212" type="curve" smooth="yes"/>
      <point x="527" y="-327"/>
      <point x="433" y="-450"/>
      <point x="294" y="-450" type="curve" smooth="yes"/>
      <point x="156" y="-450"/>
      <point x="62" y="-327"/>
      <point x="62" y="-212" type="curve" smooth="yes"/>
      <point x="62" y="-128"/>
      <point x="106" y="-36"/>
      <point x="201" y="3" type="curve"/>
      <point x="148" y="26"/>
      <point x="55" y="88"/>
      <point x="55" y="240" type="curve" smooth="yes"/>
      <point x="55" y="349"/>
      <point x="97" y="411"/>
      <point x="153" y="457" type="curve"/>
      <point x="183" y="414" type="line"/>
      <point x="136" y="371"/>
      <point x="106" y="316"/>
      <point x="106" y="240" type="curve" smooth="yes"/>
      <point x="106" y="120"/>
      <point x="190" y="36"/>
      <point x="292" y="36" type="curve" smooth="yes"/>
      <point x="394" y="36"/>
      <point x="478" y="120"/>
      <point x="478" y="240" type="curve" smooth="yes"/>
      <point x="478" y="316"/>
      <point x="449" y="371"/>
      <point x="402" y="414" type="curve"/>
      <point x="432" y="457" type="line"/>
      <point x="491" y="410"/>
      <point x="529" y="349"/>
      <point x="529" y="240" type="curve" smooth="yes"/>
      <point x="529" y="88"/>
      <point x="433" y="22"/>
      <point x="383" y="3" type="curve"/>
      <point x="483" y="-36"/>
      <point x="527" y="-128"/>
    </contour>
  </outline>
</glyph>
<glyph name="uA9EE" format="2">
  <advance width="989"/>
  <unicode hex="A9EE"/>
  <anchor x="0" y="0" name="_R"/>
  <anchor x="702" y="-53" name="BS"/>
  <anchor x="702" y="-53" name="L"/>
  <anchor x="495" y="-53" name="BD"/>
  <anchor x="702" y="495" name="U"/>
  <outline>
    <contour>
      <point x="777" y="222" type="curve" smooth="yes"/>
      <point x="777" y="179"/>
      <point x="742" y="146"/>
      <point x="702" y="146" type="curve" smooth="yes"/>
      <point x="661" y="146"/>
      <point x="627" y="179"/>
      <point x="627" y="222" type="curve" smooth="yes"/>
      <point x="627" y="265"/>
      <point x="661" y="297"/>
      <point x="702" y="297" type="curve" smooth="yes"/>
      <point x="742" y="297"/>
      <point x="777" y="265"/>
    </contour>
    <contour>
      <point x="364" y="222" type="curve" smooth="yes"/>
      <point x="364" y="179"/>
      <point x="329" y="146"/>
      <point x="289" y="146" type="curve" smooth="yes"/>
      <point x="248" y="146"/>
      <point x="214" y="179"/>
      <point x="214" y="222" type="curve" smooth="yes"/>
      <point x="214" y="265"/>
      <point x="248" y="297"/>
      <point x="289" y="297" type="curve" smooth="yes"/>
      <point x="329" y="297"/>
      <point x="364" y="265"/>
    </contour>
    <contour>
      <point x="469" y="222" type="curve" smooth="yes"/>
      <point x="469" y="324"/>
      <point x="389" y="408"/>
      <point x="289" y="408" type="curve" smooth="yes"/>
      <point x="187" y="408"/>
      <point x="106" y="324"/>
      <point x="106" y="222" type="curve" smooth="yes"/>
      <point x="106" y="120"/>
      <point x="186" y="36"/>
      <point x="286" y="36" type="curve" smooth="yes"/>
      <point x="387" y="36"/>
      <point x="469" y="120"/>
    </contour>
    <contour>
      <point x="883" y="222" type="curve" smooth="yes"/>
      <point x="883" y="324"/>
      <point x="802" y="408"/>
      <point x="702" y="408" type="curve" smooth="yes"/>
      <point x="601" y="408"/>
      <point x="520" y="324"/>
      <point x="520" y="222" type="curve" smooth="yes"/>
      <point x="520" y="120"/>
      <point x="601" y="36"/>
      <point x="702" y="36" type="curve" smooth="yes"/>
      <point x="802" y="36"/>
      <point x="883" y="120"/>
    </contour>
    <contour>
      <point x="934" y="222" type="curve" smooth="yes"/>
      <point x="934" y="91"/>
      <point x="828" y="-15"/>
      <point x="702" y="-15" type="curve" smooth="yes"/>
      <point x="611" y="-15"/>
      <point x="532" y="37"/>
      <point x="495" y="114" type="curve"/>
      <point x="454" y="37"/>
      <point x="380" y="-15"/>
      <point x="289" y="-15" type="curve" smooth="yes"/>
      <point x="157" y="-15"/>
      <point x="55" y="91"/>
      <point x="55" y="222" type="curve" smooth="yes"/>
      <point x="55" y="351"/>
      <point x="158" y="459"/>
      <point x="286" y="459" type="curve" smooth="yes"/>
      <point x="378" y="459"/>
      <point x="454" y="406"/>
      <point x="495" y="330" type="curve"/>
      <point x="532" y="406"/>
      <point x="611" y="459"/>
      <point x="702" y="459" type="curve" smooth="yes"/>
      <point x="828" y="459"/>
      <point x="934" y="351"/>
    </contour>
  </outline>
</glyph>
<glyph name="uA9F4" format="2">
  <advance width="576"/>
  <unicode hex="A9F4"/>
  <outline>
    <contour>
      <point x="521" y="121" type="line"/>
      <point x="483" y="30"/>
      <point x="393" y="-15"/>
      <point x="292" y="-15" type="curve" smooth="yes"/>
      <point x="153" y="-15"/>
      <point x="55" y="71"/>
      <point x="55" y="166" type="curve" smooth="yes"/>
      <point x="55" y="291"/>
      <point x="152" y="349"/>
      <point x="292" y="349" type="curve" smooth="yes"/>
      <point x="367" y="349"/>
      <point x="404" y="311"/>
      <point x="439" y="311" type="curve" smooth="yes"/>
      <point x="454" y="311"/>
      <point x="459" y="343"/>
      <point x="459" y="369" type="curve" smooth="yes"/>
      <point x="459" y="395"/>
      <point x="454" y="427"/>
      <point x="439" y="427" type="curve" smooth="yes"/>
      <point x="404" y="427"/>
      <point x="366" y="389"/>
      <point x="292" y="389" type="curve" smooth="yes"/>
      <point x="152" y="389"/>
      <point x="55" y="447"/>
      <point x="55" y="569" type="curve" smooth="yes"/>
      <point x="55" y="667"/>
      <point x="153" y="752"/>
      <point x="292" y="752" type="curve" smooth="yes"/>
      <point x="389" y="752"/>
      <point x="490" y="703"/>
      <point x="521" y="616" type="curve"/>
      <point x="474" y="596" type="line"/>
      <point x="455" y="660"/>
      <point x="374" y="701"/>
      <point x="292" y="701" type="curve" smooth="yes"/>
      <point x="202" y="701"/>
      <point x="106" y="654"/>
      <point x="106" y="569" type="curve" smooth="yes"/>
      <point x="106" y="483"/>
      <point x="178" y="440"/>
      <point x="292" y="440" type="curve" smooth="yes"/>
      <point x="358" y="440"/>
      <point x="388" y="478"/>
      <point x="443" y="478" type="curve" smooth="yes"/>
      <point x="491" y="478"/>
      <point x="510" y="418"/>
      <point x="510" y="369" type="curve" smooth="yes"/>
      <point x="510" y="320"/>
      <point x="491" y="260"/>
      <point x="443" y="260" type="curve" smooth="yes"/>
      <point x="388" y="260"/>
      <point x="358" y="298"/>
      <point x="292" y="298" type="curve" smooth="yes"/>
      <point x="178" y="298"/>
      <point x="106" y="255"/>
      <point x="106" y="166" type="curve" smooth="yes"/>
      <point x="106" y="84"/>
      <point x="202" y="36"/>
      <point x="292" y="36" type="curve" smooth="yes"/>
      <point x="378" y="36"/>
      <point x="445" y="74"/>
      <point x="476" y="146" type="curve"/>
    </contour>
  </outline>
</glyph>
<glyph name="uA9F6" format="2">
  <advance width="584"/>
  <unicode hex="A9F6"/>
  <outline>
    <contour>
      <point x="431" y="747" type="line"/>
      <point x="487" y="701"/>
      <point x="529" y="647"/>
      <point x="529" y="535" type="curve" smooth="yes"/>
      <point x="529" y="222" type="line" smooth="yes"/>
      <point x="529" y="99"/>
      <point x="437" y="-15"/>
      <point x="297" y="-15" type="curve" smooth="yes"/>
      <point x="188" y="-15"/>
      <point x="119" y="55"/>
      <point x="85" y="133" type="curve"/>
      <point x="128" y="159" type="line"/>
      <point x="156" y="90"/>
      <point x="216" y="36"/>
      <point x="297" y="36" type="curve" smooth="yes"/>
      <point x="400" y="36"/>
      <point x="478" y="115"/>
      <point x="478" y="222" type="curve" smooth="yes"/>
      <point x="478" y="380" type="line"/>
      <point x="434" y="324"/>
      <point x="367" y="290"/>
      <point x="292" y="290" type="curve" smooth="yes"/>
      <point x="161" y="290"/>
      <point x="55" y="392"/>
      <point x="55" y="535" type="curve" smooth="yes"/>
      <point x="55" y="647"/>
      <point x="94" y="701"/>
      <point x="152" y="747" type="curve"/>
      <point x="182" y="704" type="line"/>
      <point x="136" y="662"/>
      <point x="106" y="611"/>
      <point x="106" y="535" type="curve" smooth="yes"/>
      <point x="106" y="425"/>
      <point x="190" y="341"/>
      <point x="292" y="341" type="curve" smooth="yes"/>
      <point x="394" y="341"/>
      <point x="478" y="425"/>
      <point x="478" y="535" type="curve" smooth="yes"/>
      <point x="478" y="611"/>
      <point x="448" y="662"/>
      <point x="401" y="704" type="curve"/>
    </contour>
  </outline>
</glyph>
<glyph name="uA9FE" format="2">
  <advance width="997"/>
  <unicode hex="A9FE"/>
  <anchor x="0" y="0" name="_R"/>
  <anchor x="710" y="-53" name="BS"/>
  <anchor x="709" y="-53" name="L"/>
  <anchor x="501" y="-53" name="BD"/>
  <anchor x="711" y="495" name="U"/>
  <outline>
    <contour>
      <point x="855" y="715" type="curve"/>
      <point x="829" y="671" type="line"/>
      <point x="801" y="689"/>
      <point x="759" y="701"/>
      <point x="711" y="701" type="curve" smooth="yes"/>
      <point x="619" y="701"/>
      <point x="528" y="628"/>
      <point x="528" y="518" type="curve" smooth="yes"/>
      <point x="528" y="369" type="line"/>
      <point x="569" y="421"/>
      <point x="633" y="459"/>
      <point x="711" y="459" type="curve" smooth="yes"/>
      <point x="838" y="459"/>
      <point x="942" y="351"/>
      <point x="942" y="222" type="curve" smooth="yes"/>
      <point x="942" y="91"/>
      <point x="843" y="-15"/>
      <point x="711" y="-15" type="curve" smooth="yes"/>
      <point x="616" y="-15"/>
      <point x="532" y="43"/>
      <point x="496" y="127" type="curve"/>
      <point x="454" y="45"/>
      <point x="373" y="-15"/>
      <point x="288" y="-15" type="curve" smooth="yes"/>
      <point x="162" y="-15"/>
      <point x="55" y="91"/>
      <point x="55" y="222" type="curve" smooth="yes"/>
      <point x="55" y="351"/>
      <point x="162" y="459"/>
      <point x="288" y="459" type="curve" smooth="yes"/>
      <point x="312" y="459"/>
      <point x="336" y="454"/>
      <point x="358" y="444" type="curve"/>
      <point x="339" y="397" type="line"/>
      <point x="322" y="405"/>
      <point x="304" y="408"/>
      <point x="288" y="408" type="curve" smooth="yes"/>
      <point x="187" y="408"/>
      <point x="106" y="324"/>
      <point x="106" y="222" type="curve" smooth="yes"/>
      <point x="106" y="120"/>
      <point x="187" y="36"/>
      <point x="288" y="36" type="curve" smooth="yes"/>
      <point x="408" y="36"/>
      <point x="477" y="181"/>
      <point x="477" y="231" type="curve" smooth="yes"/>
      <point x="477" y="518" type="line" smooth="yes"/>
      <point x="477" y="649"/>
      <point x="584" y="752"/>
      <point x="711" y="752" type="curve" smooth="yes"/>
      <point x="774" y="752"/>
      <point x="815" y="739"/>
    </contour>
    <contour>
      <point x="786" y="222" type="curve" smooth="yes"/>
      <point x="786" y="179"/>
      <point x="751" y="146"/>
      <point x="711" y="146" type="curve" smooth="yes"/>
      <point x="670" y="146"/>
      <point x="636" y="179"/>
      <point x="636" y="222" type="curve" smooth="yes"/>
      <point x="636" y="265"/>
      <point x="670" y="297"/>
      <point x="711" y="297" type="curve" smooth="yes"/>
      <point x="751" y="297"/>
      <point x="786" y="265"/>
    </contour>
    <contour>
      <point x="891" y="222" type="curve" smooth="yes"/>
      <point x="891" y="324"/>
      <point x="808" y="408"/>
      <point x="711" y="408" type="curve" smooth="yes"/>
      <point x="604" y="408"/>
      <point x="528" y="313"/>
      <point x="528" y="226" type="curve" smooth="yes"/>
      <point x="528" y="121"/>
      <point x="604" y="36"/>
      <point x="711" y="36" type="curve" smooth="yes"/>
      <point x="810" y="36"/>
      <point x="891" y="120"/>
    </contour>
  </outline>
</glyph>
<glyph name="uAA62" format="2">
  <advance width="640"/>
  <unicode hex="AA62"/>
  <anchor x="15" y="0" name="_R"/>
  <anchor x="303" y="-53" name="BS"/>
  <anchor x="303" y="-53" name="L"/>
  <anchor x="303" y="495" name="U"/>
  <anchor x="303" y="-53" name="BD"/>
  <outline>
    <contour>
      <point x="585" y="222" type="curve" smooth="yes"/>
      <point x="585" y="93"/>
      <point x="517" y="-15"/>
      <point x="423" y="-15" type="curve" smooth="yes"/>
      <point x="294" y="-15"/>
      <point x="258" y="193"/>
      <point x="222" y="193" type="curve" smooth="yes"/>
      <point x="198" y="193"/>
      <point x="146" y="64"/>
      <point x="106" y="0" type="curve"/>
      <point x="55" y="0" type="line"/>
      <point x="55" y="444" type="line"/>
      <point x="106" y="444" type="line"/>
      <point x="106" y="109" type="line"/>
      <point x="170" y="240"/>
      <point x="201" y="249"/>
      <point x="222" y="249" type="curve" smooth="yes"/>
      <point x="304" y="249"/>
      <point x="327" y="36"/>
      <point x="423" y="36" type="curve" smooth="yes"/>
      <point x="487" y="36"/>
      <point x="534" y="120"/>
      <point x="534" y="222" type="curve" smooth="yes"/>
      <point x="534" y="361"/>
      <point x="450" y="408"/>
      <point x="382" y="408" type="curve" smooth="yes"/>
      <point x="370" y="408"/>
      <point x="359" y="406"/>
      <point x="348" y="399" type="curve"/>
      <point x="327" y="444" type="line"/>
      <point x="342" y="455"/>
      <point x="363" y="459"/>
      <point x="382" y="459" type="curve" smooth="yes"/>
      <point x="510" y="459"/>
      <point x="585" y="352"/>
    </contour>
  </outline>
</glyph>
<glyph name="uAA64" format="2">
  <advance width="999"/>
  <unicode hex="AA64"/>
  <anchor x="0" y="0" name="_R"/>
  <anchor x="714" y="-53" name="BS"/>
  <anchor x="714" y="-53" name="L"/>
  <anchor x="508" y="-53" name="BD"/>
  <anchor x="714" y="495" name="U"/>
  <outline>
    <contour>
      <point x="892" y="222" type="curve" smooth="yes"/>
      <point x="892" y="324"/>
      <point x="812" y="408"/>
      <point x="712" y="408" type="curve" smooth="yes"/>
      <point x="610" y="408"/>
      <point x="529" y="324"/>
      <point x="529" y="222" type="curve" smooth="yes"/>
      <point x="529" y="120"/>
      <point x="609" y="36"/>
      <point x="709" y="36" type="curve" smooth="yes"/>
      <point x="810" y="36"/>
      <point x="892" y="120"/>
    </contour>
    <contour>
      <point x="943" y="222" type="curve" smooth="yes"/>
      <point x="943" y="92"/>
      <point x="840" y="-15"/>
      <point x="712" y="-15" type="curve" smooth="yes"/>
      <point x="617" y="-15"/>
      <point x="538" y="39"/>
      <point x="501" y="119" type="curve"/>
      <point x="465" y="39"/>
      <point x="393" y="-13"/>
      <point x="292" y="-13" type="curve" smooth="yes"/>
      <point x="161" y="-13"/>
      <point x="55" y="90"/>
      <point x="55" y="242" type="curve" smooth="yes"/>
      <point x="55" y="351"/>
      <point x="97" y="411"/>
      <point x="153" y="457" type="curve"/>
      <point x="183" y="414" type="line"/>
      <point x="136" y="371"/>
      <point x="106" y="318"/>
      <point x="106" y="242" type="curve" smooth="yes"/>
      <point x="106" y="122"/>
      <point x="190" y="38"/>
      <point x="292" y="38" type="curve" smooth="yes"/>
      <point x="394" y="38"/>
      <point x="478" y="122"/>
      <point x="478" y="242" type="curve" smooth="yes"/>
      <point x="478" y="318"/>
      <point x="449" y="373"/>
      <point x="402" y="416" type="curve"/>
      <point x="432" y="459" type="line"/>
      <point x="468" y="432"/>
      <point x="495" y="399"/>
      <point x="514" y="348" type="curve"/>
      <point x="555" y="415"/>
      <point x="626" y="459"/>
      <point x="709" y="459" type="curve" smooth="yes"/>
      <point x="841" y="459"/>
      <point x="943" y="351"/>
    </contour>
  </outline>
</glyph>
<glyph name="uAA68" format="2">
  <advance width="937"/>
  <unicode hex="AA68"/>
  <anchor x="0" y="0" name="_R"/>
  <anchor x="645" y="-53" name="BS"/>
  <anchor x="645" y="-53" name="L"/>
  <anchor x="645" y="495" name="U"/>
  <anchor x="645" y="-53" name="BD"/>
  <outline>
    <contour>
      <point x="364" y="222" type="curve" smooth="yes"/>
      <point x="364" y="179"/>
      <point x="329" y="146"/>
      <point x="289" y="146" type="curve" smooth="yes"/>
      <point x="248" y="146"/>
      <point x="214" y="179"/>
      <point x="214" y="222" type="curve" smooth="yes"/>
      <point x="214" y="265"/>
      <point x="248" y="297"/>
      <point x="289" y="297" type="curve" smooth="yes"/>
      <point x="329" y="297"/>
      <point x="364" y="265"/>
    </contour>
    <contour>
      <point x="469" y="222" type="curve" smooth="yes"/>
      <point x="469" y="324"/>
      <point x="389" y="408"/>
      <point x="289" y="408" type="curve" smooth="yes"/>
      <point x="187" y="408"/>
      <point x="106" y="324"/>
      <point x="106" y="222" type="curve" smooth="yes"/>
      <point x="106" y="120"/>
      <point x="186" y="36"/>
      <point x="286" y="36" type="curve" smooth="yes"/>
      <point x="387" y="36"/>
      <point x="469" y="120"/>
    </contour>
    <contour>
      <point x="825" y="177" type="curve"/>
      <point x="810" y="180"/>
      <point x="797" y="181"/>
      <point x="783" y="181" type="curve" smooth="yes"/>
      <point x="757" y="181"/>
      <point x="733" y="176"/>
      <point x="709" y="165" type="curve" smooth="yes"/>
      <point x="649" y="136"/>
      <point x="625" y="97"/>
      <point x="606" y="40" type="curve"/>
      <point x="619" y="37"/>
      <point x="632" y="36"/>
      <point x="644" y="36" type="curve" smooth="yes"/>
      <point x="728" y="36"/>
      <point x="803" y="93"/>
    </contour>
    <contour>
      <point x="882" y="222" type="curve" smooth="yes"/>
      <point x="882" y="80"/>
      <point x="766" y="-15"/>
      <point x="640" y="-15" type="curve" smooth="yes"/>
      <point x="606" y="-15"/>
      <point x="571" y="-8"/>
      <point x="538" y="7" type="curve"/>
      <point x="568" y="114"/>
      <point x="606" y="173"/>
      <point x="687" y="210" type="curve" smooth="yes"/>
      <point x="724" y="227"/>
      <point x="757" y="234"/>
      <point x="791" y="234" type="curve" smooth="yes"/>
      <point x="804" y="234"/>
      <point x="818" y="233"/>
      <point x="832" y="231" type="curve"/>
      <point x="827" y="328"/>
      <point x="746" y="408"/>
      <point x="645" y="408" type="curve" smooth="yes"/>
      <point x="588" y="408"/>
      <point x="531" y="381"/>
      <point x="492" y="334" type="curve"/>
      <point x="511" y="299"/>
      <point x="520" y="261"/>
      <point x="520" y="222" type="curve" smooth="yes"/>
      <point x="520" y="91"/>
      <point x="417" y="-15"/>
      <point x="289" y="-15" type="curve" smooth="yes"/>
      <point x="159" y="-15"/>
      <point x="55" y="91"/>
      <point x="55" y="222" type="curve" smooth="yes"/>
      <point x="55" y="351"/>
      <point x="158" y="459"/>
      <point x="286" y="459" type="curve" smooth="yes"/>
      <point x="355" y="459"/>
      <point x="418" y="427"/>
      <point x="462" y="379" type="curve"/>
      <point x="511" y="434"/>
      <point x="576" y="459"/>
      <point x="645" y="459" type="curve" smooth="yes"/>
      <point x="775" y="459"/>
      <point x="882" y="354"/>
    </contour>
  </outline>
</glyph>
<glyph name="uAA69" format="2">
  <advance width="990"/>
  <unicode hex="AA69"/>
  <anchor x="0" y="0" name="_R"/>
  <anchor x="702" y="-53" name="BS"/>
  <anchor x="702" y="-53" name="L"/>
  <anchor x="495" y="-53" name="BD"/>
  <anchor x="702" y="495" name="U"/>
  <outline>
    <contour>
      <point x="364" y="222" type="curve" smooth="yes"/>
      <point x="364" y="179"/>
      <point x="329" y="146"/>
      <point x="289" y="146" type="curve" smooth="yes"/>
      <point x="248" y="146"/>
      <point x="214" y="179"/>
      <point x="214" y="222" type="curve" smooth="yes"/>
      <point x="214" y="265"/>
      <point x="248" y="297"/>
      <point x="289" y="297" type="curve" smooth="yes"/>
      <point x="329" y="297"/>
      <point x="364" y="265"/>
    </contour>
    <contour>
      <point x="469" y="222" type="curve" smooth="yes"/>
      <point x="469" y="322"/>
      <point x="389" y="408"/>
      <point x="289" y="408" type="curve" smooth="yes"/>
      <point x="187" y="408"/>
      <point x="106" y="322"/>
      <point x="106" y="222" type="curve" smooth="yes"/>
      <point x="106" y="119"/>
      <point x="188" y="36"/>
      <point x="286" y="36" type="curve" smooth="yes"/>
      <point x="387" y="36"/>
      <point x="469" y="119"/>
    </contour>
    <contour>
      <point x="746" y="40" type="curve"/>
      <point x="727" y="97"/>
      <point x="703" y="136"/>
      <point x="643" y="165" type="curve" smooth="yes"/>
      <point x="619" y="177"/>
      <point x="595" y="182"/>
      <point x="570" y="182" type="curve" smooth="yes"/>
      <point x="556" y="182"/>
      <point x="542" y="180"/>
      <point x="527" y="177" type="curve"/>
      <point x="548" y="89"/>
      <point x="624" y="36"/>
      <point x="707" y="36" type="curve" smooth="yes"/>
      <point x="723" y="36"/>
      <point x="736" y="37"/>
    </contour>
    <contour>
      <point x="884" y="222" type="curve" smooth="yes"/>
      <point x="884" y="324"/>
      <point x="804" y="408"/>
      <point x="704" y="408" type="curve" smooth="yes"/>
      <point x="608" y="408"/>
      <point x="523" y="324"/>
      <point x="520" y="231" type="curve"/>
      <point x="533" y="233"/>
      <point x="547" y="234"/>
      <point x="560" y="234" type="curve" smooth="yes"/>
      <point x="595" y="234"/>
      <point x="630" y="227"/>
      <point x="665" y="210" type="curve" smooth="yes"/>
      <point x="732" y="177"/>
      <point x="763" y="141"/>
      <point x="796" y="62" type="curve"/>
      <point x="859" y="105"/>
      <point x="884" y="161"/>
    </contour>
    <contour>
      <point x="934" y="222" type="curve" smooth="yes"/>
      <point x="934" y="91"/>
      <point x="830" y="-15"/>
      <point x="704" y="-15" type="curve" smooth="yes"/>
      <point x="611" y="-15"/>
      <point x="534" y="37"/>
      <point x="495" y="114" type="curve"/>
      <point x="456" y="37"/>
      <point x="380" y="-15"/>
      <point x="289" y="-15" type="curve" smooth="yes"/>
      <point x="157" y="-15"/>
      <point x="55" y="91"/>
      <point x="55" y="222" type="curve" smooth="yes"/>
      <point x="55" y="351"/>
      <point x="158" y="459"/>
      <point x="286" y="459" type="curve" smooth="yes"/>
      <point x="379" y="459"/>
      <point x="456" y="405"/>
      <point x="495" y="329" type="curve"/>
      <point x="534" y="405"/>
      <point x="610" y="459"/>
      <point x="701" y="459" type="curve" smooth="yes"/>
      <point x="827" y="459"/>
      <point x="934" y="351"/>
    </contour>
  </outline>
</glyph>
<glyph name="uAA6A" format="2">
  <advance width="990"/>
  <unicode hex="AA6A"/>
  <anchor x="0" y="0" name="_R"/>
  <anchor x="702" y="-53" name="BS"/>
  <anchor x="702" y="-53" name="L"/>
  <anchor x="495" y="-53" name="BD"/>
  <anchor x="702" y="495" name="U"/>
  <outline>
    <contour>
      <point x="469" y="222" type="curve" smooth="yes"/>
      <point x="469" y="322"/>
      <point x="389" y="408"/>
      <point x="289" y="408" type="curve" smooth="yes"/>
      <point x="187" y="408"/>
      <point x="106" y="322"/>
      <point x="106" y="222" type="curve" smooth="yes"/>
      <point x="106" y="119"/>
      <point x="188" y="36"/>
      <point x="286" y="36" type="curve" smooth="yes"/>
      <point x="387" y="36"/>
      <point x="469" y="119"/>
    </contour>
    <contour>
      <point x="746" y="40" type="curve"/>
      <point x="727" y="97"/>
      <point x="703" y="136"/>
      <point x="643" y="165" type="curve" smooth="yes"/>
      <point x="619" y="177"/>
      <point x="594" y="181"/>
      <point x="569" y="181" type="curve" smooth="yes"/>
      <point x="555" y="181"/>
      <point x="541" y="180"/>
      <point x="527" y="177" type="curve"/>
      <point x="548" y="89"/>
      <point x="624" y="36"/>
      <point x="707" y="36" type="curve" smooth="yes"/>
      <point x="723" y="36"/>
      <point x="736" y="37"/>
    </contour>
    <contour>
      <point x="884" y="222" type="curve" smooth="yes"/>
      <point x="884" y="324"/>
      <point x="804" y="408"/>
      <point x="704" y="408" type="curve" smooth="yes"/>
      <point x="608" y="408"/>
      <point x="523" y="324"/>
      <point x="520" y="231" type="curve"/>
      <point x="534" y="233"/>
      <point x="547" y="234"/>
      <point x="560" y="234" type="curve" smooth="yes"/>
      <point x="597" y="234"/>
      <point x="633" y="226"/>
      <point x="665" y="210" type="curve" smooth="yes"/>
      <point x="737" y="173"/>
      <point x="764" y="137"/>
      <point x="796" y="62" type="curve"/>
      <point x="859" y="105"/>
      <point x="884" y="161"/>
    </contour>
    <contour>
      <point x="934" y="222" type="curve" smooth="yes"/>
      <point x="934" y="91"/>
      <point x="830" y="-15"/>
      <point x="704" y="-15" type="curve" smooth="yes"/>
      <point x="611" y="-15"/>
      <point x="534" y="37"/>
      <point x="495" y="114" type="curve"/>
      <point x="456" y="37"/>
      <point x="380" y="-15"/>
      <point x="289" y="-15" type="curve" smooth="yes"/>
      <point x="157" y="-15"/>
      <point x="55" y="91"/>
      <point x="55" y="222" type="curve" smooth="yes"/>
      <point x="55" y="351"/>
      <point x="158" y="459"/>
      <point x="286" y="459" type="curve" smooth="yes"/>
      <point x="379" y="459"/>
      <point x="456" y="405"/>
      <point x="495" y="329" type="curve"/>
      <point x="534" y="405"/>
      <point x="610" y="459"/>
      <point x="701" y="459" type="curve" smooth="yes"/>
      <point x="827" y="459"/>
      <point x="934" y="351"/>
    </contour>
  </outline>
</glyph>
<glyph name="uAA6E" format="2">
  <advance width="960"/>
  <unicode hex="AA6E"/>
  <anchor x="0" y="0" name="_R"/>
  <anchor x="679" y="-53" name="BS"/>
  <anchor x="679" y="-53" name="L"/>
  <anchor x="480" y="-53" name="BD"/>
  <anchor x="679" y="495" name="U"/>
  <outline>
    <contour>
      <point x="331" y="40" type="curve"/>
      <point x="312" y="97"/>
      <point x="288" y="136"/>
      <point x="228" y="165" type="curve" smooth="yes"/>
      <point x="204" y="177"/>
      <point x="179" y="181"/>
      <point x="154" y="181" type="curve" smooth="yes"/>
      <point x="140" y="181"/>
      <point x="126" y="180"/>
      <point x="112" y="177" type="curve"/>
      <point x="131" y="96"/>
      <point x="204" y="36"/>
      <point x="291" y="36" type="curve" smooth="yes"/>
      <point x="304" y="36"/>
      <point x="317" y="37"/>
    </contour>
    <contour>
      <point x="904" y="222" type="curve" smooth="yes"/>
      <point x="904" y="91"/>
      <point x="808" y="-15"/>
      <point x="679" y="-15" type="curve" smooth="yes"/>
      <point x="552" y="-15"/>
      <point x="475" y="91"/>
      <point x="454" y="222" type="curve" smooth="yes"/>
      <point x="438" y="322"/>
      <point x="382" y="408"/>
      <point x="280" y="408" type="curve" smooth="yes"/>
      <point x="183" y="408"/>
      <point x="114" y="334"/>
      <point x="105" y="231" type="curve"/>
      <point x="118" y="233"/>
      <point x="130" y="234"/>
      <point x="143" y="234" type="curve" smooth="yes"/>
      <point x="181" y="234"/>
      <point x="217" y="226"/>
      <point x="250" y="210" type="curve" smooth="yes"/>
      <point x="343" y="167"/>
      <point x="372" y="98"/>
      <point x="399" y="7" type="curve"/>
      <point x="367" y="-8"/>
      <point x="333" y="-15"/>
      <point x="297" y="-15" type="curve" smooth="yes"/>
      <point x="171" y="-15"/>
      <point x="55" y="80"/>
      <point x="55" y="222" type="curve" smooth="yes"/>
      <point x="55" y="351"/>
      <point x="153" y="459"/>
      <point x="280" y="459" type="curve" smooth="yes"/>
      <point x="408" y="459"/>
      <point x="485" y="350"/>
      <point x="505" y="222" type="curve" smooth="yes"/>
      <point x="520" y="122"/>
      <point x="581" y="36"/>
      <point x="679" y="36" type="curve" smooth="yes"/>
      <point x="778" y="36"/>
      <point x="853" y="119"/>
      <point x="853" y="222" type="curve" smooth="yes"/>
      <point x="853" y="322"/>
      <point x="778" y="408"/>
      <point x="679" y="408" type="curve" smooth="yes"/>
      <point x="662" y="408"/>
      <point x="646" y="404"/>
      <point x="630" y="397" type="curve"/>
      <point x="610" y="444" type="line"/>
      <point x="631" y="454"/>
      <point x="654" y="459"/>
      <point x="679" y="459" type="curve" smooth="yes"/>
      <point x="808" y="459"/>
      <point x="904" y="351"/>
    </contour>
  </outline>
</glyph>
<glyph name="uAA77" format="2">
  <advance width="832"/>
  <unicode hex="AA77"/>
  <anchor x="0" y="0" name="R"/>
  <anchor x="264" y="-53" name="BS"/>
  <anchor x="292" y="-53" name="LL"/>
  <anchor x="646" y="-53" name="L"/>
  <anchor x="155" y="-53" name="BD"/>
  <anchor x="292" y="495" name="U"/>
  <outline>
    <contour>
      <point x="792" y="0" type="line"/>
      <point x="614" y="0" type="line"/>
      <point x="614" y="393" type="line"/>
      <point x="456" y="393" type="line"/>
      <point x="503" y="348"/>
      <point x="532" y="282"/>
      <point x="532" y="202" type="curve" smooth="yes"/>
      <point x="532" y="-399" type="line"/>
      <point x="615" y="-399" type="line"/>
      <point x="615" y="-450" type="line"/>
      <point x="481" y="-450" type="line"/>
      <point x="481" y="202" type="line" smooth="yes"/>
      <point x="481" y="324"/>
      <point x="394" y="408"/>
      <point x="292" y="408" type="curve" smooth="yes"/>
      <point x="193" y="408"/>
      <point x="106" y="317"/>
      <point x="106" y="222" type="curve" smooth="yes"/>
      <point x="106" y="100"/>
      <point x="208" y="36"/>
      <point x="294" y="36" type="curve" smooth="yes"/>
      <point x="319" y="36"/>
      <point x="358" y="43"/>
      <point x="381" y="54" type="curve"/>
      <point x="397" y="7" type="line"/>
      <point x="372" y="-5"/>
      <point x="326" y="-15"/>
      <point x="292" y="-15" type="curve" smooth="yes"/>
      <point x="162" y="-15"/>
      <point x="55" y="91"/>
      <point x="55" y="222" type="curve" smooth="yes"/>
      <point x="55" y="333"/>
      <point x="135" y="428"/>
      <point x="241" y="451" type="curve"/>
      <point x="175" y="474"/>
      <point x="109" y="537"/>
      <point x="109" y="631" type="curve" smooth="yes"/>
      <point x="109" y="739"/>
      <point x="196" y="814"/>
      <point x="287" y="814" type="curve" smooth="yes"/>
      <point x="347" y="814"/>
      <point x="401" y="784"/>
      <point x="424" y="738" type="curve"/>
      <point x="395" y="714" type="line"/>
      <point x="367" y="760"/>
      <point x="322" y="775"/>
      <point x="287" y="775" type="curve" smooth="yes"/>
      <point x="221" y="775"/>
      <point x="148" y="720"/>
      <point x="148" y="631" type="curve" smooth="yes"/>
      <point x="148" y="522"/>
      <point x="257" y="483"/>
      <point x="292" y="483" type="curve"/>
      <point x="292" y="457" type="line"/>
      <point x="320" y="457"/>
      <point x="346" y="452"/>
      <point x="371" y="444" type="curve"/>
      <point x="665" y="444" type="line"/>
      <point x="665" y="51" type="line"/>
      <point x="792" y="51" type="line"/>
    </contour>
  </outline>
</glyph>
<glyph name="uAA78" format="2">
  <advance width="492"/>
  <unicode hex="AA78"/>
  <outline>
    <contour>
      <point x="164" y="223" type="curve" smooth="yes"/>
      <point x="164" y="140"/>
      <point x="120" y="86"/>
      <point x="86" y="58" type="curve"/>
      <point x="55" y="102" type="line"/>
      <point x="102" y="142"/>
      <point x="114" y="195"/>
      <point x="114" y="223" type="curve" smooth="yes"/>
      <point x="114" y="251"/>
      <point x="102" y="304"/>
      <point x="55" y="344" type="curve"/>
      <point x="86" y="388" type="line"/>
      <point x="120" y="360"/>
      <point x="164" y="306"/>
    </contour>
    <contour>
      <point x="442" y="429" type="line"/>
      <point x="414" y="395"/>
      <point x="360" y="351"/>
      <point x="277" y="351" type="curve" smooth="yes"/>
      <point x="194" y="351"/>
      <point x="140" y="395"/>
      <point x="112" y="429" type="curve"/>
      <point x="156" y="460" type="line"/>
      <point x="196" y="413"/>
      <point x="249" y="401"/>
      <point x="277" y="401" type="curve" smooth="yes"/>
      <point x="305" y="401"/>
      <point x="358" y="413"/>
      <point x="398" y="460" type="curve"/>
    </contour>
    <contour>
      <point x="760" y="630" type="curve"/>
      <point x="730" y="591" type="line"/>
      <point x="714" y="618"/>
      <point x="697" y="630"/>
      <point x="681" y="630" type="curve" smooth="yes"/>
      <point x="629" y="630"/>
      <point x="441" y="379"/>
      <point x="441" y="50" type="curve" smooth="yes"/>
      <point x="441" y="39"/>
      <point x="442" y="28"/>
      <point x="442" y="17" type="curve"/>
      <point x="398" y="-14" type="line"/>
      <point x="363" y="33"/>
      <point x="305" y="45"/>
      <point x="277" y="45" type="curve" smooth="yes"/>
      <point x="249" y="45"/>
      <point x="192" y="32"/>
      <point x="156" y="-14" type="curve"/>
      <point x="112" y="17" type="line"/>
      <point x="140" y="52"/>
      <point x="196" y="95"/>
      <point x="277" y="95" type="curve" smooth="yes"/>
      <point x="309" y="95"/>
      <point x="352" y="87"/>
      <point x="393" y="61" type="curve"/>
      <point x="395" y="386"/>
      <point x="586" y="681"/>
      <point x="681" y="681" type="curve" smooth="yes"/>
      <point x="708" y="681"/>
      <point x="735" y="667"/>
    </contour>
  </outline>
</glyph>
<glyph name="uAA7B" format="2">
  <advance width="258"/>
  <unicode hex="AA7B"/>
  <outline>
    <contour>
      <point x="176" y="76" type="curve" smooth="yes"/>
      <point x="176" y="99"/>
      <point x="158" y="123"/>
      <point x="129" y="123" type="curve" smooth="yes"/>
      <point x="101" y="123"/>
      <point x="83" y="99"/>
      <point x="83" y="76" type="curve" smooth="yes"/>
      <point x="83" y="54"/>
      <point x="101" y="28"/>
      <point x="129" y="28" type="curve" smooth="yes"/>
      <point x="158" y="28"/>
      <point x="176" y="54"/>
    </contour>
    <contour>
      <point x="204" y="76" type="curve" smooth="yes"/>
      <point x="204" y="34"/>
      <point x="170" y="0"/>
      <point x="129" y="0" type="curve" smooth="yes"/>
      <point x="120" y="0"/>
      <point x="111" y="1"/>
      <point x="102" y="4" type="curve"/>
      <point x="110" y="-26"/>
      <point x="131" y="-62"/>
      <point x="161" y="-81" type="curve"/>
      <point x="150" y="-89" type="line"/>
      <point x="110" y="-71"/>
      <point x="54" y="-11"/>
      <point x="54" y="73" type="curve" smooth="yes"/>
      <point x="54" y="76" type="line" smooth="yes"/>
      <point x="54" y="118"/>
      <point x="89" y="151"/>
      <point x="129" y="151" type="curve" smooth="yes"/>
      <point x="170" y="151"/>
      <point x="204" y="118"/>
    </contour>
  </outline>
</glyph>
<glyph name="uAA7E" format="2">
  <advance width="726"/>
  <unicode hex="AA7E"/>
  <anchor x="0" y="0" name="_R"/>
  <anchor x="84" y="-53" name="BS"/>
  <anchor x="67" y="-53" name="L"/>
  <anchor x="283" y="495" name="U"/>
  <anchor x="84" y="-53" name="BD"/>
  <outline>
    <contour>
      <point x="671" y="-455" type="line"/>
      <point x="409" y="-362" type="line"/>
      <point x="409" y="-450" type="line"/>
      <point x="275" y="-450" type="line"/>
      <point x="275" y="-399" type="line"/>
      <point x="358" y="-399" type="line"/>
      <point x="358" y="-3" type="line"/>
      <point x="334" y="-11"/>
      <point x="309" y="-15"/>
      <point x="283" y="-15" type="curve" smooth="yes"/>
      <point x="169" y="-15"/>
      <point x="72" y="54"/>
      <point x="55" y="153" type="curve"/>
      <point x="111" y="187"/>
      <point x="167" y="204"/>
      <point x="210" y="204" type="curve" smooth="yes"/>
      <point x="303" y="204"/>
      <point x="383" y="147"/>
      <point x="417" y="91" type="curve"/>
      <point x="449" y="126"/>
      <point x="469" y="170"/>
      <point x="469" y="222" type="curve" smooth="yes"/>
      <point x="469" y="323"/>
      <point x="386" y="408"/>
      <point x="283" y="408" type="curve" smooth="yes"/>
      <point x="214" y="408"/>
      <point x="140" y="366"/>
      <point x="106" y="297" type="curve"/>
      <point x="63" y="322" type="line"/>
      <point x="98" y="406"/>
      <point x="191" y="459"/>
      <point x="283" y="459" type="curve" smooth="yes"/>
      <point x="414" y="459"/>
      <point x="520" y="351"/>
      <point x="520" y="222" type="curve" smooth="yes"/>
      <point x="520" y="137"/>
      <point x="476" y="63"/>
      <point x="409" y="21" type="curve"/>
      <point x="409" y="-308" type="line"/>
      <point x="620" y="-383" type="line"/>
      <point x="620" y="444" type="line"/>
      <point x="671" y="444" type="line"/>
    </contour>
    <contour>
      <point x="374" y="59" type="curve"/>
      <point x="345" y="114"/>
      <point x="278" y="153"/>
      <point x="213" y="153" type="curve" smooth="yes"/>
      <point x="185" y="153"/>
      <point x="148" y="145"/>
      <point x="115" y="127" type="curve"/>
      <point x="151" y="66"/>
      <point x="215" y="36"/>
      <point x="283" y="36" type="curve" smooth="yes"/>
      <point x="318" y="36"/>
      <point x="346" y="44"/>
    </contour>
  </outline>
</glyph>
<glyph name=".notdef" format="2">
  <advance width="0"/>
  <outline>
    <contour>
      <point x="106" y="408" type="line"/>
      <point x="106" y="51" type="line"/>
      <point x="471" y="51" type="line"/>
      <point x="471" y="408" type="line"/>
    </contour>
    <contour>
      <point x="520" y="459" type="line"/>
      <point x="520" y="0" type="line"/>
      <point x="55" y="0" type="line"/>
      <point x="55" y="459" type="line"/>
    </contour>
  </outline>
</glyph>
<glyph name="u1002.med" format="2">
  <advance width="0"/>
  <anchor x="-239" y="-53" name="_BS"/>
  <anchor x="-566" y="-53" name="LLM"/>
  <anchor x="-239" y="-53" name="_BSM"/>
  <anchor x="88" y="-53" name="LM"/>
  <anchor x="565" y="-53" name="BSM"/>
  <outline>
    <contour>
      <point x="-56" y="-282" type="curve" smooth="yes"/>
      <point x="-56" y="-369"/>
      <point x="-87" y="-414"/>
      <point x="-131" y="-450" type="curve"/>
      <point x="-155" y="-417" type="line"/>
      <point x="-119" y="-384"/>
      <point x="-96" y="-341"/>
      <point x="-96" y="-282" type="curve" smooth="yes"/>
      <point x="-96" y="-202"/>
      <point x="-149" y="-125"/>
      <point x="-239" y="-125" type="curve" smooth="yes"/>
      <point x="-319" y="-125"/>
      <point x="-382" y="-189"/>
      <point x="-382" y="-281" type="curve" smooth="yes"/>
      <point x="-382" y="-340"/>
      <point x="-356" y="-384"/>
      <point x="-323" y="-417" type="curve"/>
      <point x="-347" y="-450" type="line"/>
      <point x="-391" y="-414"/>
      <point x="-422" y="-369"/>
      <point x="-422" y="-282" type="curve" smooth="yes"/>
      <point x="-422" y="-167"/>
      <point x="-341" y="-86"/>
      <point x="-239" y="-86" type="curve" smooth="yes"/>
      <point x="-137" y="-86"/>
      <point x="-56" y="-167"/>
    </contour>
  </outline>
</glyph>
<glyph name="u1004.kinzi_u1036" format="2">
  <advance width="55"/>
  <anchor x="-258" y="495" name="_U"/>
  <anchor x="-258" y="495" name="UM"/>
  <outline>
    <contour>
      <point x="-165" y="586" type="line"/>
      <point x="-183" y="552"/>
      <point x="-216" y="534"/>
      <point x="-257" y="534" type="curve" smooth="yes"/>
      <point x="-309" y="534"/>
      <point x="-357" y="582"/>
      <point x="-357" y="634" type="curve" smooth="yes"/>
      <point x="-357" y="675"/>
      <point x="-338" y="701"/>
      <point x="-311" y="718" type="curve"/>
      <point x="-339" y="738"/>
      <point x="-357" y="762"/>
      <point x="-357" y="804" type="curve" smooth="yes"/>
      <point x="-357" y="856"/>
      <point x="-314" y="904"/>
      <point x="-258" y="904" type="curve" smooth="yes"/>
      <point x="-212" y="904"/>
      <point x="-189" y="882"/>
      <point x="-176" y="853" type="curve"/>
      <point x="-207" y="831" type="line"/>
      <point x="-219" y="853"/>
      <point x="-231" y="865"/>
      <point x="-258" y="865" type="curve" smooth="yes"/>
      <point x="-290" y="865"/>
      <point x="-318" y="838"/>
      <point x="-318" y="804" type="curve" smooth="yes"/>
      <point x="-318" y="768"/>
      <point x="-286" y="735"/>
      <point x="-258" y="735" type="curve" smooth="yes"/>
      <point x="-215" y="735"/>
      <point x="-183" y="712"/>
      <point x="-165" y="682" type="curve"/>
      <point x="-198" y="664" type="line"/>
      <point x="-215" y="684"/>
      <point x="-231" y="697"/>
      <point x="-257" y="697" type="curve" smooth="yes"/>
      <point x="-285" y="697"/>
      <point x="-318" y="669"/>
      <point x="-318" y="634" type="curve" smooth="yes"/>
      <point x="-318" y="600"/>
      <point x="-285" y="573"/>
      <point x="-257" y="573" type="curve" smooth="yes"/>
      <point x="-231" y="573"/>
      <point x="-215" y="585"/>
      <point x="-198" y="604" type="curve"/>
    </contour>
    <contour>
      <point x="-29" y="675" type="curve" smooth="yes"/>
      <point x="-29" y="700"/>
      <point x="-50" y="720"/>
      <point x="-75" y="720" type="curve" smooth="yes"/>
      <point x="-102" y="720"/>
      <point x="-122" y="700"/>
      <point x="-122" y="675" type="curve" smooth="yes"/>
      <point x="-122" y="646"/>
      <point x="-102" y="627"/>
      <point x="-75" y="627" type="curve" smooth="yes"/>
      <point x="-50" y="627"/>
      <point x="-29" y="646"/>
    </contour>
    <contour>
      <point x="0" y="675" type="curve" smooth="yes"/>
      <point x="0" y="632"/>
      <point x="-35" y="598"/>
      <point x="-75" y="598" type="curve" smooth="yes"/>
      <point x="-116" y="598"/>
      <point x="-150" y="632"/>
      <point x="-150" y="675" type="curve" smooth="yes"/>
      <point x="-150" y="715"/>
      <point x="-116" y="750"/>
      <point x="-75" y="750" type="curve" smooth="yes"/>
      <point x="-35" y="750"/>
      <point x="0" y="715"/>
    </contour>
  </outline>
</glyph>
<glyph name="u1005.med" format="2">
  <advance width="0"/>
  <anchor x="-234" y="-53" name="_BS"/>
  <anchor x="-557" y="-53" name="LLM"/>
  <anchor x="-234" y="-53" name="_BSM"/>
  <anchor x="88" y="-53" name="LM"/>
  <anchor x="556" y="-53" name="BSM"/>
  <outline>
    <contour>
      <point x="-266" y="-267" type="curve" smooth="yes"/>
      <point x="-266" y="-242"/>
      <point x="-276" y="-194"/>
      <point x="-317" y="-153" type="curve"/>
      <point x="-351" y="-177"/>
      <point x="-374" y="-221"/>
      <point x="-374" y="-267" type="curve" smooth="yes"/>
      <point x="-374" y="-314"/>
      <point x="-353" y="-357"/>
      <point x="-318" y="-380" type="curve"/>
      <point x="-278" y="-339"/>
      <point x="-266" y="-296"/>
    </contour>
    <contour>
      <point x="-95" y="-267" type="curve" smooth="yes"/>
      <point x="-95" y="-189"/>
      <point x="-158" y="-125"/>
      <point x="-234" y="-125" type="curve" smooth="yes"/>
      <point x="-254" y="-125"/>
      <point x="-270" y="-128"/>
      <point x="-285" y="-134" type="curve"/>
      <point x="-243" y="-176"/>
      <point x="-231" y="-225"/>
      <point x="-231" y="-267" type="curve" smooth="yes"/>
      <point x="-231" y="-311"/>
      <point x="-246" y="-360"/>
      <point x="-287" y="-401" type="curve"/>
      <point x="-270" y="-407"/>
      <point x="-254" y="-410"/>
      <point x="-234" y="-410" type="curve" smooth="yes"/>
      <point x="-158" y="-410"/>
      <point x="-95" y="-345"/>
    </contour>
    <contour>
      <point x="-56" y="-267" type="curve" smooth="yes"/>
      <point x="-56" y="-369"/>
      <point x="-137" y="-450"/>
      <point x="-234" y="-450" type="curve" smooth="yes"/>
      <point x="-333" y="-450"/>
      <point x="-413" y="-369"/>
      <point x="-413" y="-267" type="curve" smooth="yes"/>
      <point x="-413" y="-165"/>
      <point x="-333" y="-84"/>
      <point x="-234" y="-84" type="curve" smooth="yes"/>
      <point x="-137" y="-84"/>
      <point x="-56" y="-165"/>
    </contour>
  </outline>
</glyph>
<glyph name="u1008.med" format="2">
  <advance width="162"/>
  <anchor x="250" y="-53" name="L"/>
  <anchor x="-218" y="-53" name="dot"/>
  <anchor x="0" y="495" name="U"/>
  <outline>
    <contour>
      <point x="-249" y="-252" type="curve" smooth="yes"/>
      <point x="-249" y="-227"/>
      <point x="-260" y="-179"/>
      <point x="-300" y="-138" type="curve"/>
      <point x="-336" y="-164"/>
      <point x="-357" y="-206"/>
      <point x="-357" y="-252" type="curve" smooth="yes"/>
      <point x="-357" y="-299"/>
      <point x="-336" y="-342"/>
      <point x="-302" y="-365" type="curve"/>
      <point x="-261" y="-324"/>
      <point x="-249" y="-278"/>
    </contour>
    <contour>
      <point x="-78" y="-252" type="curve" smooth="yes"/>
      <point x="-78" y="-174"/>
      <point x="-141" y="-110"/>
      <point x="-218" y="-110" type="curve" smooth="yes"/>
      <point x="-237" y="-110"/>
      <point x="-254" y="-113"/>
      <point x="-269" y="-119" type="curve"/>
      <point x="-227" y="-159"/>
      <point x="-215" y="-209"/>
      <point x="-215" y="-252" type="curve" smooth="yes"/>
      <point x="-215" y="-296"/>
      <point x="-228" y="-344"/>
      <point x="-270" y="-386" type="curve"/>
      <point x="-255" y="-392"/>
      <point x="-237" y="-395"/>
      <point x="-218" y="-395" type="curve" smooth="yes"/>
      <point x="-141" y="-395"/>
      <point x="-78" y="-330"/>
    </contour>
    <contour>
      <point x="106" y="-450" type="line"/>
      <point x="-107" y="-395" type="line"/>
      <point x="-138" y="-419"/>
      <point x="-176" y="-435"/>
      <point x="-218" y="-435" type="curve" smooth="yes"/>
      <point x="-317" y="-435"/>
      <point x="-396" y="-351"/>
      <point x="-396" y="-252" type="curve" smooth="yes"/>
      <point x="-396" y="-150"/>
      <point x="-317" y="-69"/>
      <point x="-218" y="-69" type="curve" smooth="yes"/>
      <point x="-120" y="-69"/>
      <point x="-39" y="-150"/>
      <point x="-39" y="-252" type="curve" smooth="yes"/>
      <point x="-39" y="-288"/>
      <point x="-48" y="-321"/>
      <point x="-68" y="-351" type="curve"/>
      <point x="55" y="-384" type="line"/>
      <point x="55" y="444" type="line"/>
      <point x="106" y="444" type="line"/>
    </contour>
  </outline>
</glyph>
<glyph name="u1009_u102C" format="2">
  <advance width="990"/>
  <anchor x="0" y="0" name="_R"/>
  <anchor x="1063" y="-53" name="BS"/>
  <anchor x="702" y="-53" name="L"/>
  <anchor x="702" y="495" name="U"/>
  <anchor x="1063" y="-53" name="BD"/>
  <outline>
    <contour>
      <point x="934" y="222" type="curve" smooth="yes"/>
      <point x="934" y="91"/>
      <point x="828" y="-15"/>
      <point x="702" y="-15" type="curve" smooth="yes"/>
      <point x="678" y="-15"/>
      <point x="654" y="-9"/>
      <point x="631" y="0" type="curve"/>
      <point x="651" y="46" type="line"/>
      <point x="667" y="39"/>
      <point x="685" y="36"/>
      <point x="702" y="36" type="curve" smooth="yes"/>
      <point x="802" y="36"/>
      <point x="883" y="120"/>
      <point x="883" y="222" type="curve" smooth="yes"/>
      <point x="883" y="324"/>
      <point x="802" y="408"/>
      <point x="702" y="408" type="curve" smooth="yes"/>
      <point x="610" y="408"/>
      <point x="521" y="304"/>
      <point x="513" y="214" type="curve" smooth="yes"/>
      <point x="511" y="192" type="line" smooth="yes"/>
      <point x="502" y="97"/>
      <point x="412" y="-15"/>
      <point x="276" y="-15" type="curve" smooth="yes"/>
      <point x="216" y="-15"/>
      <point x="153" y="7"/>
      <point x="106" y="49" type="curve"/>
      <point x="106" y="-167" type="line" smooth="yes"/>
      <point x="106" y="-244"/>
      <point x="116" y="-304"/>
      <point x="159" y="-347" type="curve" smooth="yes"/>
      <point x="202" y="-391"/>
      <point x="264" y="-399"/>
      <point x="337" y="-399" type="curve" smooth="yes"/>
      <point x="810" y="-399" type="line" smooth="yes"/>
      <point x="864" y="-399"/>
      <point x="868" y="-393"/>
      <point x="868" y="-338" type="curve" smooth="yes"/>
      <point x="868" y="-302" type="line"/>
      <point x="919" y="-302" type="line"/>
      <point x="919" y="-347" type="line" smooth="yes"/>
      <point x="919" y="-392"/>
      <point x="914" y="-410"/>
      <point x="903" y="-423" type="curve" smooth="yes"/>
      <point x="889" y="-440"/>
      <point x="874" y="-450"/>
      <point x="835" y="-450" type="curve" smooth="yes"/>
      <point x="321" y="-450" type="line" smooth="yes"/>
      <point x="227" y="-450"/>
      <point x="169" y="-430"/>
      <point x="121" y="-381" type="curve" smooth="yes"/>
      <point x="72" y="-331"/>
      <point x="55" y="-271"/>
      <point x="55" y="-185" type="curve" smooth="yes"/>
      <point x="55" y="121" type="line"/>
      <point x="100" y="147" type="line"/>
      <point x="136" y="76"/>
      <point x="205" y="36"/>
      <point x="276" y="36" type="curve" smooth="yes"/>
      <point x="372" y="36"/>
      <point x="462" y="116"/>
      <point x="462" y="222" type="curve" smooth="yes"/>
      <point x="462" y="324"/>
      <point x="378" y="408"/>
      <point x="276" y="408" type="curve" smooth="yes"/>
      <point x="205" y="408"/>
      <point x="136" y="367"/>
      <point x="100" y="297" type="curve"/>
      <point x="55" y="322" type="line"/>
      <point x="93" y="412"/>
      <point x="187" y="459"/>
      <point x="276" y="459" type="curve" smooth="yes"/>
      <point x="372" y="459"/>
      <point x="456" y="399"/>
      <point x="492" y="315" type="curve"/>
      <point x="535" y="397"/>
      <point x="613" y="459"/>
      <point x="702" y="459" type="curve" smooth="yes"/>
      <point x="828" y="459"/>
      <point x="934" y="351"/>
    </contour>
  </outline>
</glyph>
<glyph name="u100C.med" format="2">
  <advance width="0"/>
  <anchor x="235" y="-53" name="BSM"/>
  <anchor x="-900" y="-53" name="LLM"/>
  <anchor x="-405" y="-53" name="_BD"/>
  <anchor x="89" y="-53" name="LM"/>
  <anchor x="900" y="-53" name="_BSM"/>
  <anchor x="-405" y="-53" name="_BDM"/>
  <anchor x="406" y="-53" name="BDM"/>
  <outline>
    <contour>
      <point x="-55" y="-281" type="curve" smooth="yes"/>
      <point x="-55" y="-347"/>
      <point x="-93" y="-422"/>
      <point x="-160" y="-450" type="curve"/>
      <point x="-180" y="-417" type="line"/>
      <point x="-126" y="-389"/>
      <point x="-94" y="-335"/>
      <point x="-94" y="-281" type="curve" smooth="yes"/>
      <point x="-94" y="-201"/>
      <point x="-160" y="-138"/>
      <point x="-238" y="-138" type="curve" smooth="yes"/>
      <point x="-316" y="-138"/>
      <point x="-381" y="-201"/>
      <point x="-381" y="-281" type="curve" smooth="yes"/>
      <point x="-381" y="-335"/>
      <point x="-349" y="-389"/>
      <point x="-295" y="-417" type="curve"/>
      <point x="-315" y="-450" type="line"/>
      <point x="-621" y="-450" type="line" smooth="yes"/>
      <point x="-661" y="-450"/>
      <point x="-696" y="-431"/>
      <point x="-714" y="-413" type="curve" smooth="yes"/>
      <point x="-734" y="-393"/>
      <point x="-756" y="-361"/>
      <point x="-756" y="-315" type="curve" smooth="yes"/>
      <point x="-756" y="-188" type="line" smooth="yes"/>
      <point x="-756" y="-138"/>
      <point x="-718" y="-110"/>
      <point x="-676" y="-110" type="curve" smooth="yes"/>
      <point x="-636" y="-110"/>
      <point x="-597" y="-141"/>
      <point x="-597" y="-195" type="curve" smooth="yes"/>
      <point x="-597" y="-216"/>
      <point x="-603" y="-233"/>
      <point x="-615" y="-245" type="curve"/>
      <point x="-645" y="-218" type="line"/>
      <point x="-637" y="-210"/>
      <point x="-636" y="-201"/>
      <point x="-636" y="-195" type="curve" smooth="yes"/>
      <point x="-636" y="-165"/>
      <point x="-657" y="-149"/>
      <point x="-676" y="-149" type="curve" smooth="yes"/>
      <point x="-694" y="-149"/>
      <point x="-717" y="-165"/>
      <point x="-717" y="-188" type="curve" smooth="yes"/>
      <point x="-717" y="-293" type="line" smooth="yes"/>
      <point x="-717" y="-344"/>
      <point x="-711" y="-354"/>
      <point x="-687" y="-381" type="curve" smooth="yes"/>
      <point x="-669" y="-401"/>
      <point x="-640" y="-411"/>
      <point x="-612" y="-411" type="curve" smooth="yes"/>
      <point x="-370" y="-411" type="line"/>
      <point x="-405" y="-375"/>
      <point x="-420" y="-327"/>
      <point x="-420" y="-281" type="curve" smooth="yes"/>
      <point x="-420" y="-180"/>
      <point x="-339" y="-99"/>
      <point x="-238" y="-99" type="curve" smooth="yes"/>
      <point x="-136" y="-99"/>
      <point x="-55" y="-180"/>
    </contour>
  </outline>
</glyph>
<glyph name="u100D.med" format="2">
  <advance width="0"/>
  <anchor x="235" y="-53" name="BSM"/>
  <anchor x="-465" y="-53" name="LLM"/>
  <anchor x="-204" y="-53" name="_BS"/>
  <anchor x="50" y="-53" name="LM"/>
  <anchor x="172" y="-53" name="BSM"/>
  <outline>
    <contour>
      <point x="-55" y="-440" type="line"/>
      <point x="-130" y="-440" type="line"/>
      <point x="-130" y="-383" type="line"/>
      <point x="-149" y="-391"/>
      <point x="-164" y="-395"/>
      <point x="-203" y="-395" type="curve" smooth="yes"/>
      <point x="-227" y="-395"/>
      <point x="-284" y="-388"/>
      <point x="-307" y="-380" type="curve"/>
      <point x="-307" y="-280" type="line"/>
      <point x="-272" y="-292"/>
      <point x="-238" y="-293"/>
      <point x="-203" y="-293" type="curve" smooth="yes"/>
      <point x="-173" y="-293"/>
      <point x="-126" y="-277"/>
      <point x="-126" y="-251" type="curve" smooth="yes"/>
      <point x="-126" y="-226"/>
      <point x="-169" y="-209"/>
      <point x="-203" y="-209" type="curve" smooth="yes"/>
      <point x="-255" y="-209"/>
      <point x="-277" y="-212"/>
      <point x="-307" y="-223" type="curve"/>
      <point x="-320" y="-196" type="line"/>
      <point x="-290" y="-184"/>
      <point x="-255" y="-178"/>
      <point x="-203" y="-178" type="curve" smooth="yes"/>
      <point x="-161" y="-178"/>
      <point x="-94" y="-197"/>
      <point x="-94" y="-251" type="curve" smooth="yes"/>
      <point x="-94" y="-306"/>
      <point x="-166" y="-325"/>
      <point x="-203" y="-325" type="curve" smooth="yes"/>
      <point x="-231" y="-325"/>
      <point x="-261" y="-322"/>
      <point x="-278" y="-317" type="curve"/>
      <point x="-278" y="-355" type="line"/>
      <point x="-262" y="-359"/>
      <point x="-231" y="-364"/>
      <point x="-203" y="-364" type="curve" smooth="yes"/>
      <point x="-155" y="-364"/>
      <point x="-126" y="-352"/>
      <point x="-100" y="-337" type="curve"/>
      <point x="-100" y="-410" type="line"/>
      <point x="-55" y="-410" type="line"/>
    </contour>
  </outline>
</glyph>
<glyph name="u100E.med" format="2">
  <advance width="0"/>
  <anchor x="235" y="-53" name="BSM"/>
  <anchor x="-559" y="-53" name="LLM"/>
  <anchor x="95" y="-53" name="_BS"/>
  <anchor x="95" y="-53" name="LM"/>
  <anchor x="232" y="-53" name="_BSM"/>
  <outline>
    <contour>
      <point x="-56" y="-254" type="curve" smooth="yes"/>
      <point x="-56" y="-392"/>
      <point x="-158" y="-450"/>
      <point x="-238" y="-450" type="curve" smooth="yes"/>
      <point x="-346" y="-450"/>
      <point x="-415" y="-369"/>
      <point x="-415" y="-309" type="curve" smooth="yes"/>
      <point x="-415" y="-213"/>
      <point x="-307" y="-218"/>
      <point x="-307" y="-177" type="curve" smooth="yes"/>
      <point x="-307" y="-137"/>
      <point x="-328" y="-126"/>
      <point x="-347" y="-126" type="curve" smooth="yes"/>
      <point x="-367" y="-126"/>
      <point x="-379" y="-138"/>
      <point x="-382" y="-149" type="curve"/>
      <point x="-415" y="-129" type="line"/>
      <point x="-412" y="-110"/>
      <point x="-379" y="-87"/>
      <point x="-347" y="-87" type="curve" smooth="yes"/>
      <point x="-304" y="-87"/>
      <point x="-268" y="-118"/>
      <point x="-268" y="-177" type="curve" smooth="yes"/>
      <point x="-268" y="-252"/>
      <point x="-376" y="-240"/>
      <point x="-376" y="-309" type="curve" smooth="yes"/>
      <point x="-376" y="-329"/>
      <point x="-338" y="-410"/>
      <point x="-238" y="-410" type="curve" smooth="yes"/>
      <point x="-144" y="-410"/>
      <point x="-96" y="-329"/>
      <point x="-96" y="-254" type="curve" smooth="yes"/>
      <point x="-96" y="-188"/>
      <point x="-119" y="-153"/>
      <point x="-154" y="-119" type="curve"/>
      <point x="-130" y="-86" type="line"/>
      <point x="-84" y="-128"/>
      <point x="-56" y="-170"/>
    </contour>
  </outline>
</glyph>
<glyph name="u1010.med" format="2">
  <advance width="0"/>
  <anchor x="235" y="-53" name="BSM"/>
  <anchor x="-867" y="-53" name="LLM"/>
  <anchor x="-379" y="-53" name="_BD"/>
  <anchor x="104" y="-53" name="LM"/>
  <anchor x="-379" y="-53" name="_BSM"/>
  <anchor x="-379" y="-53" name="_BDM"/>
  <anchor x="384" y="-53" name="BDM"/>
  <outline>
    <contour>
      <point x="-405" y="-270" type="curve" smooth="yes"/>
      <point x="-405" y="-191"/>
      <point x="-462" y="-125"/>
      <point x="-544" y="-125" type="curve" smooth="yes"/>
      <point x="-622" y="-125"/>
      <point x="-684" y="-189"/>
      <point x="-684" y="-267" type="curve" smooth="yes"/>
      <point x="-684" y="-345"/>
      <point x="-622" y="-410"/>
      <point x="-544" y="-410" type="curve" smooth="yes"/>
      <point x="-460" y="-410"/>
      <point x="-405" y="-339"/>
    </contour>
    <contour>
      <point x="-40" y="-267" type="curve" smooth="yes"/>
      <point x="-40" y="-369"/>
      <point x="-121" y="-450"/>
      <point x="-219" y="-450" type="curve" smooth="yes"/>
      <point x="-238" y="-450"/>
      <point x="-258" y="-447"/>
      <point x="-274" y="-438" type="curve"/>
      <point x="-258" y="-402" type="line"/>
      <point x="-246" y="-410"/>
      <point x="-231" y="-410"/>
      <point x="-219" y="-410" type="curve" smooth="yes"/>
      <point x="-142" y="-410"/>
      <point x="-79" y="-345"/>
      <point x="-79" y="-267" type="curve" smooth="yes"/>
      <point x="-79" y="-189"/>
      <point x="-142" y="-125"/>
      <point x="-219" y="-125" type="curve" smooth="yes"/>
      <point x="-310" y="-125"/>
      <point x="-364" y="-232"/>
      <point x="-364" y="-277" type="curve" smooth="yes"/>
      <point x="-364" y="-328"/>
      <point x="-420" y="-450"/>
      <point x="-544" y="-450" type="curve" smooth="yes"/>
      <point x="-643" y="-450"/>
      <point x="-723" y="-369"/>
      <point x="-723" y="-267" type="curve" smooth="yes"/>
      <point x="-723" y="-165"/>
      <point x="-643" y="-84"/>
      <point x="-544" y="-84" type="curve" smooth="yes"/>
      <point x="-471" y="-84"/>
      <point x="-408" y="-129"/>
      <point x="-379" y="-194" type="curve"/>
      <point x="-345" y="-132"/>
      <point x="-285" y="-84"/>
      <point x="-219" y="-84" type="curve" smooth="yes"/>
      <point x="-121" y="-84"/>
      <point x="-40" y="-165"/>
    </contour>
  </outline>
</glyph>
<glyph name="u1013.med" format="2">
  <advance width="0"/>
  <anchor x="235" y="-53" name="BSM"/>
  <anchor x="-557" y="-53" name="LLM"/>
  <anchor x="-234" y="-53" name="_BSM"/>
  <anchor x="-234" y="-53" name="_BS"/>
  <anchor x="88" y="-53" name="LM"/>
  <outline>
    <contour>
      <point x="-122" y="-351" type="curve"/>
      <point x="-162" y="-311"/>
      <point x="-206" y="-300"/>
      <point x="-234" y="-300" type="curve" smooth="yes"/>
      <point x="-263" y="-300"/>
      <point x="-303" y="-311"/>
      <point x="-345" y="-351" type="curve"/>
      <point x="-320" y="-386"/>
      <point x="-287" y="-410"/>
      <point x="-234" y="-410" type="curve" smooth="yes"/>
      <point x="-182" y="-410"/>
      <point x="-147" y="-386"/>
    </contour>
    <contour>
      <point x="-95" y="-267" type="curve" smooth="yes"/>
      <point x="-95" y="-189"/>
      <point x="-158" y="-125"/>
      <point x="-234" y="-125" type="curve" smooth="yes"/>
      <point x="-312" y="-125"/>
      <point x="-374" y="-189"/>
      <point x="-374" y="-267" type="curve" smooth="yes"/>
      <point x="-374" y="-284"/>
      <point x="-371" y="-300"/>
      <point x="-363" y="-320" type="curve"/>
      <point x="-323" y="-279"/>
      <point x="-276" y="-266"/>
      <point x="-234" y="-266" type="curve" smooth="yes"/>
      <point x="-192" y="-266"/>
      <point x="-144" y="-279"/>
      <point x="-104" y="-320" type="curve"/>
      <point x="-98" y="-303"/>
      <point x="-95" y="-287"/>
    </contour>
    <contour>
      <point x="-56" y="-267" type="curve" smooth="yes"/>
      <point x="-56" y="-369"/>
      <point x="-137" y="-450"/>
      <point x="-234" y="-450" type="curve" smooth="yes"/>
      <point x="-333" y="-450"/>
      <point x="-413" y="-369"/>
      <point x="-413" y="-267" type="curve" smooth="yes"/>
      <point x="-413" y="-165"/>
      <point x="-333" y="-84"/>
      <point x="-234" y="-84" type="curve" smooth="yes"/>
      <point x="-137" y="-84"/>
      <point x="-56" y="-165"/>
    </contour>
  </outline>
</glyph>
<glyph name="u1014_u1010_u103B" format="2">
  <advance width="909"/>
  <anchor x="0" y="0" name="_R"/>
  <anchor x="1049" y="-53" name="BS"/>
  <anchor x="999" y="-53" name="L"/>
  <anchor x="765" y="495" name="U"/>
  <anchor x="1049" y="-53" name="BD"/>
  <outline>
    <contour>
      <point x="450" y="48" type="curve"/>
      <point x="415" y="79"/>
      <point x="333" y="147"/>
      <point x="280" y="147" type="curve" smooth="yes"/>
      <point x="236" y="147"/>
      <point x="204" y="128"/>
      <point x="204" y="97" type="curve" smooth="yes"/>
      <point x="204" y="41"/>
      <point x="277" y="36"/>
      <point x="334" y="36" type="curve" smooth="yes"/>
      <point x="373" y="36"/>
      <point x="414" y="36"/>
    </contour>
    <contour>
      <point x="586" y="-9" type="curve"/>
      <point x="550" y="-47" type="line"/>
      <point x="537" y="-32"/>
      <point x="525" y="-19"/>
      <point x="490" y="10" type="curve"/>
      <point x="445" y="-11"/>
      <point x="386" y="-15"/>
      <point x="334" y="-15" type="curve" smooth="yes"/>
      <point x="238" y="-15"/>
      <point x="153" y="6"/>
      <point x="153" y="97" type="curve" smooth="yes"/>
      <point x="153" y="149"/>
      <point x="203" y="198"/>
      <point x="280" y="198" type="curve" smooth="yes"/>
      <point x="350" y="198"/>
      <point x="428" y="137"/>
      <point x="498" y="78" type="curve"/>
      <point x="511" y="94"/>
      <point x="520" y="116"/>
      <point x="520" y="145" type="curve" smooth="yes"/>
      <point x="520" y="270"/>
      <point x="240" y="240"/>
      <point x="240" y="363" type="curve" smooth="yes"/>
      <point x="240" y="430"/>
      <point x="313" y="459"/>
      <point x="369" y="459" type="curve" smooth="yes"/>
      <point x="410" y="459"/>
      <point x="448" y="449"/>
      <point x="481" y="421" type="curve"/>
      <point x="448" y="382" type="line"/>
      <point x="439" y="390"/>
      <point x="406" y="408"/>
      <point x="369" y="408" type="curve" smooth="yes"/>
      <point x="336" y="408"/>
      <point x="291" y="396"/>
      <point x="291" y="363" type="curve" smooth="yes"/>
      <point x="291" y="300"/>
      <point x="571" y="309"/>
      <point x="571" y="145" type="curve" smooth="yes"/>
      <point x="571" y="100"/>
      <point x="558" y="66"/>
      <point x="535" y="42" type="curve"/>
      <point x="567" y="11"/>
      <point x="574" y="3"/>
    </contour>
    <contour>
      <point x="343" y="-270" type="curve" smooth="yes"/>
      <point x="343" y="-193"/>
      <point x="286" y="-123"/>
      <point x="204" y="-123" type="curve" smooth="yes"/>
      <point x="127" y="-123"/>
      <point x="64" y="-190"/>
      <point x="64" y="-267" type="curve" smooth="yes"/>
      <point x="64" y="-346"/>
      <point x="127" y="-411"/>
      <point x="204" y="-411" type="curve" smooth="yes"/>
      <point x="286" y="-411"/>
      <point x="343" y="-340"/>
    </contour>
    <contour>
      <point x="853" y="-450" type="line"/>
      <point x="654" y="-398" type="line"/>
      <point x="619" y="-433"/>
      <point x="577" y="-450"/>
      <point x="529" y="-450" type="curve" smooth="yes"/>
      <point x="508" y="-450"/>
      <point x="490" y="-446"/>
      <point x="474" y="-438" type="curve"/>
      <point x="490" y="-402" type="line"/>
      <point x="502" y="-408"/>
      <point x="515" y="-411"/>
      <point x="529" y="-411" type="curve" smooth="yes"/>
      <point x="606" y="-411"/>
      <point x="669" y="-346"/>
      <point x="669" y="-267" type="curve" smooth="yes"/>
      <point x="669" y="-190"/>
      <point x="606" y="-123"/>
      <point x="529" y="-123" type="curve" smooth="yes"/>
      <point x="437" y="-123"/>
      <point x="384" y="-236"/>
      <point x="384" y="-278" type="curve" smooth="yes"/>
      <point x="384" y="-344"/>
      <point x="320" y="-450"/>
      <point x="204" y="-450" type="curve" smooth="yes"/>
      <point x="107" y="-450"/>
      <point x="25" y="-370"/>
      <point x="25" y="-267" type="curve" smooth="yes"/>
      <point x="25" y="-166"/>
      <point x="107" y="-84"/>
      <point x="204" y="-84" type="curve" smooth="yes"/>
      <point x="276" y="-84"/>
      <point x="341" y="-130"/>
      <point x="369" y="-194" type="curve"/>
      <point x="402" y="-131"/>
      <point x="464" y="-84"/>
      <point x="529" y="-84" type="curve" smooth="yes"/>
      <point x="627" y="-84"/>
      <point x="708" y="-166"/>
      <point x="708" y="-267" type="curve" smooth="yes"/>
      <point x="708" y="-298"/>
      <point x="701" y="-327"/>
      <point x="687" y="-353" type="curve"/>
      <point x="802" y="-384" type="line"/>
      <point x="802" y="444" type="line"/>
      <point x="853" y="444" type="line"/>
    </contour>
  </outline>
</glyph>
<glyph name="u101C.med" format="2">
  <advance width="0"/>
  <anchor x="235" y="-53" name="BSM"/>
  <anchor x="-854" y="-53" name="LLM"/>
  <anchor x="-390" y="-53" name="_BD"/>
  <anchor x="88" y="-53" name="_BSM"/>
  <anchor x="88" y="-53" name="LM"/>
  <anchor x="-390" y="-53" name="_BDM"/>
  <anchor x="375" y="-53" name="BDM"/>
  <outline>
    <contour>
      <point x="-56" y="-267" type="curve" smooth="yes"/>
      <point x="-56" y="-369"/>
      <point x="-131" y="-450"/>
      <point x="-230" y="-450" type="curve" smooth="yes"/>
      <point x="-326" y="-450"/>
      <point x="-385" y="-367"/>
      <point x="-402" y="-267" type="curve" smooth="yes"/>
      <point x="-415" y="-191"/>
      <point x="-459" y="-125"/>
      <point x="-536" y="-125" type="curve" smooth="yes"/>
      <point x="-614" y="-125"/>
      <point x="-671" y="-189"/>
      <point x="-671" y="-267" type="curve" smooth="yes"/>
      <point x="-671" y="-344"/>
      <point x="-614" y="-410"/>
      <point x="-536" y="-410" type="curve" smooth="yes"/>
      <point x="-521" y="-410"/>
      <point x="-509" y="-407"/>
      <point x="-498" y="-402" type="curve"/>
      <point x="-482" y="-438" type="line"/>
      <point x="-501" y="-447"/>
      <point x="-516" y="-450"/>
      <point x="-536" y="-450" type="curve" smooth="yes"/>
      <point x="-635" y="-450"/>
      <point x="-710" y="-369"/>
      <point x="-710" y="-267" type="curve" smooth="yes"/>
      <point x="-710" y="-166"/>
      <point x="-635" y="-84"/>
      <point x="-536" y="-84" type="curve" smooth="yes"/>
      <point x="-437" y="-84"/>
      <point x="-378" y="-167"/>
      <point x="-363" y="-267" type="curve" smooth="yes"/>
      <point x="-351" y="-344"/>
      <point x="-305" y="-410"/>
      <point x="-230" y="-410" type="curve" smooth="yes"/>
      <point x="-152" y="-410"/>
      <point x="-95" y="-344"/>
      <point x="-95" y="-267" type="curve" smooth="yes"/>
      <point x="-95" y="-189"/>
      <point x="-152" y="-125"/>
      <point x="-230" y="-125" type="curve" smooth="yes"/>
      <point x="-243" y="-125"/>
      <point x="-255" y="-125"/>
      <point x="-267" y="-132" type="curve"/>
      <point x="-284" y="-98" type="line"/>
      <point x="-265" y="-87"/>
      <point x="-249" y="-84"/>
      <point x="-230" y="-84" type="curve" smooth="yes"/>
      <point x="-131" y="-84"/>
      <point x="-56" y="-166"/>
    </contour>
  </outline>
</glyph>
<glyph name="u1030_u108D" format="2">
  <advance width="310"/>
  <anchor x="154" y="-53" name="_BS"/>
  <anchor x="-89" y="-53" name="LLM"/>
  <anchor x="399" y="-53" name="LM"/>
  <anchor x="154" y="-53" name="BSM"/>
  <anchor x="154" y="-53" name="_BSM"/>
  <outline>
    <contour>
      <point x="-50" y="-292" type="line"/>
      <point x="-340" y="-292" type="line"/>
      <point x="-340" y="-252" type="line"/>
      <point x="-50" y="-252" type="line"/>
    </contour>
    <contour>
      <point x="106" y="-450" type="line"/>
      <point x="55" y="-450" type="line"/>
      <point x="55" y="-95" type="line"/>
      <point x="106" y="-95" type="line"/>
    </contour>
    <contour>
      <point x="337" y="-450" type="line"/>
      <point x="204" y="-450" type="line"/>
      <point x="204" y="-95" type="line"/>
      <point x="255" y="-95" type="line"/>
      <point x="255" y="-399" type="line"/>
      <point x="337" y="-399" type="line"/>
    </contour>
  </outline>
</glyph>
<glyph name="u1032_u102D" format="2">
  <advance width="55"/>
  <anchor x="-20" y="495" name="_Y"/>
  <anchor x="-180" y="495" name="_U"/>
  <anchor x="-180" y="495" name="UM"/>
  <outline>
    <contour>
      <point x="-39" y="720" type="curve" smooth="yes"/>
      <point x="-39" y="797"/>
      <point x="-102" y="864"/>
      <point x="-179" y="864" type="curve" smooth="yes"/>
      <point x="-255" y="864"/>
      <point x="-318" y="797"/>
      <point x="-318" y="720" type="curve" smooth="yes"/>
      <point x="-318" y="641"/>
      <point x="-255" y="576"/>
      <point x="-179" y="576" type="curve" smooth="yes"/>
      <point x="-102" y="576"/>
      <point x="-39" y="641"/>
    </contour>
    <contour>
      <point x="0" y="720" type="curve" smooth="yes"/>
      <point x="0" y="617"/>
      <point x="-81" y="537"/>
      <point x="-179" y="537" type="curve" smooth="yes"/>
      <point x="-277" y="537"/>
      <point x="-357" y="617"/>
      <point x="-357" y="720" type="curve" smooth="yes"/>
      <point x="-357" y="821"/>
      <point x="-277" y="903"/>
      <point x="-179" y="903" type="curve" smooth="yes"/>
      <point x="-81" y="903"/>
      <point x="0" y="821"/>
    </contour>
    <contour>
      <point x="-387" y="643" type="line"/>
      <point x="-410" y="610" type="line"/>
      <point x="-708" y="847" type="line"/>
      <point x="-686" y="880" type="line"/>
    </contour>
  </outline>
</glyph>
<glyph name="u1032_uAA70" format="2">
  <advance width="60"/>
  <anchor x="-158" y="495" name="_U"/>
  <anchor x="-158" y="495" name="UM"/>
  <outline>
    <contour>
      <point x="59" y="684" type="curve"/>
      <point x="42" y="649" type="line"/>
      <point x="2" y="655"/>
      <point x="-77" y="676"/>
      <point x="-118" y="695" type="curve"/>
      <point x="-98" y="735" type="line"/>
      <point x="-61" y="716"/>
      <point x="9" y="692"/>
    </contour>
    <contour>
      <point x="46" y="575" type="curve"/>
      <point x="29" y="540" type="line"/>
      <point x="-106" y="566"/>
      <point x="-314" y="614"/>
      <point x="-314" y="763" type="curve" smooth="yes"/>
      <point x="-314" y="802"/>
      <point x="-283" y="837"/>
      <point x="-242" y="837" type="curve" smooth="yes"/>
      <point x="-202" y="837"/>
      <point x="-164" y="804"/>
      <point x="-164" y="763" type="curve" smooth="yes"/>
      <point x="-164" y="735"/>
      <point x="-178" y="699"/>
      <point x="-217" y="688" type="curve"/>
      <point x="-188" y="635"/>
      <point x="-58" y="595"/>
    </contour>
  </outline>
</glyph>
<glyph name="u1036.dot" format="2">
  <advance width="55"/>
  <anchor x="-74" y="495" name="_U"/>
  <anchor x="-74" y="495" name="UM"/>
  <outline>
    <contour>
      <point x="0" y="720" type="curve" smooth="yes"/>
      <point x="0" y="679"/>
      <point x="-35" y="643"/>
      <point x="-75" y="643" type="curve" smooth="yes"/>
      <point x="-116" y="643"/>
      <point x="-150" y="679"/>
      <point x="-150" y="720" type="curve" smooth="yes"/>
      <point x="-150" y="760"/>
      <point x="-116" y="795"/>
      <point x="-75" y="795" type="curve" smooth="yes"/>
      <point x="-35" y="795"/>
      <point x="0" y="760"/>
    </contour>
  </outline>
</glyph>
<glyph name="u103B_u103D_u103E.tri" format="2">
  <advance width="162"/>
  <anchor x="250" y="-53" name="BS"/>
  <anchor x="-540" y="-53" name="LL"/>
  <anchor x="250" y="-53" name="L"/>
  <anchor x="-218" y="-53" name="dot"/>
  <anchor x="-36" y="495" name="U"/>
  <outline>
    <contour>
      <point x="-91" y="-335" type="curve" smooth="yes"/>
      <point x="-91" y="-264"/>
      <point x="-205" y="-134"/>
      <point x="-218" y="-134" type="curve" smooth="yes"/>
      <point x="-232" y="-134"/>
      <point x="-346" y="-267"/>
      <point x="-346" y="-335" type="curve" smooth="yes"/>
      <point x="-346" y="-383"/>
      <point x="-293" y="-396"/>
      <point x="-218" y="-396" type="curve" smooth="yes"/>
      <point x="-134" y="-396"/>
      <point x="-91" y="-382"/>
    </contour>
    <contour>
      <point x="106" y="-450" type="line"/>
      <point x="-77" y="-402" type="line"/>
      <point x="-104" y="-424"/>
      <point x="-151" y="-435"/>
      <point x="-218" y="-435" type="curve" smooth="yes"/>
      <point x="-316" y="-435"/>
      <point x="-388" y="-409"/>
      <point x="-388" y="-342" type="curve" smooth="yes"/>
      <point x="-388" y="-327"/>
      <point x="-383" y="-309"/>
      <point x="-376" y="-288" type="curve"/>
      <point x="-439" y="-353" type="line"/>
      <point x="-538" y="-279" type="line"/>
      <point x="-512" y="-248" type="line"/>
      <point x="-442" y="-299" type="line"/>
      <point x="-271" y="-128" type="line" smooth="yes"/>
      <point x="-247" y="-99"/>
      <point x="-229" y="-84"/>
      <point x="-218" y="-84" type="curve" smooth="yes"/>
      <point x="-194" y="-84"/>
      <point x="-49" y="-248"/>
      <point x="-49" y="-342" type="curve" smooth="yes"/>
      <point x="-49" y="-347"/>
      <point x="-49" y="-351"/>
      <point x="-50" y="-356" type="curve"/>
      <point x="55" y="-384" type="line"/>
      <point x="55" y="444" type="line"/>
      <point x="106" y="444" type="line"/>
    </contour>
  </outline>
</glyph>
<glyph name="u103C.alt.narr" format="2">
  <advance width="172"/>
  <anchor x="172" y="0" name="R"/>
  <anchor x="841" y="-53" name="BS"/>
  <anchor x="502" y="-53" name="LL"/>
  <anchor x="841" y="-53" name="L"/>
  <anchor x="841" y="-53" name="BD"/>
  <outline>
    <contour>
      <point x="697" y="-95" type="line"/>
      <point x="697" y="-185" type="line" smooth="yes"/>
      <point x="697" y="-239"/>
      <point x="688" y="-322"/>
      <point x="631" y="-381" type="curve" smooth="yes"/>
      <point x="573" y="-442"/>
      <point x="503" y="-450"/>
      <point x="432" y="-450" type="curve" smooth="yes"/>
      <point x="336" y="-450" type="line" smooth="yes"/>
      <point x="264" y="-450"/>
      <point x="195" y="-442"/>
      <point x="136" y="-381" type="curve" smooth="yes"/>
      <point x="79" y="-323"/>
      <point x="70" y="-239"/>
      <point x="70" y="-185" type="curve" smooth="yes"/>
      <point x="70" y="690" type="line" smooth="yes"/>
      <point x="70" y="744"/>
      <point x="80" y="828"/>
      <point x="136" y="884" type="curve" smooth="yes"/>
      <point x="195" y="943"/>
      <point x="265" y="953"/>
      <point x="352" y="953" type="curve"/>
      <point x="352" y="902" type="line"/>
      <point x="291" y="902"/>
      <point x="223" y="896"/>
      <point x="175" y="850" type="curve" smooth="yes"/>
      <point x="123" y="800"/>
      <point x="121" y="720"/>
      <point x="121" y="670" type="curve" smooth="yes"/>
      <point x="121" y="-167" type="line" smooth="yes"/>
      <point x="121" y="-214"/>
      <point x="124" y="-296"/>
      <point x="175" y="-347" type="curve" smooth="yes"/>
      <point x="222" y="-394"/>
      <point x="293" y="-399"/>
      <point x="358" y="-399" type="curve" smooth="yes"/>
      <point x="409" y="-399" type="line" smooth="yes"/>
      <point x="476" y="-399"/>
      <point x="546" y="-393"/>
      <point x="592" y="-347" type="curve" smooth="yes"/>
      <point x="640" y="-299"/>
      <point x="646" y="-223"/>
      <point x="646" y="-167" type="curve" smooth="yes"/>
      <point x="646" y="-95" type="line"/>
    </contour>
  </outline>
</glyph>
<glyph name="u103C_u102F.narr" format="2">
  <advance width="172"/>
  <anchor x="172" y="0" name="R"/>
  <anchor x="781" y="-53" name="BS"/>
  <anchor x="295" y="-53" name="LL"/>
  <anchor x="781" y="-53" name="L"/>
  <anchor x="781" y="-53" name="BD"/>
  <outline>
    <contour>
      <point x="720" y="-450" type="line"/>
      <point x="586" y="-450" type="line"/>
      <point x="586" y="-95" type="line"/>
      <point x="637" y="-95" type="line"/>
      <point x="637" y="-399" type="line"/>
      <point x="720" y="-399" type="line"/>
    </contour>
    <contour>
      <point x="699" y="742" type="curve"/>
      <point x="648" y="742" type="line"/>
      <point x="648" y="768"/>
      <point x="623" y="819"/>
      <point x="592" y="850" type="curve" smooth="yes"/>
      <point x="545" y="897"/>
      <point x="489" y="904"/>
      <point x="411" y="904" type="curve" smooth="yes"/>
      <point x="357" y="904" type="line" smooth="yes"/>
      <point x="287" y="904"/>
      <point x="221" y="897"/>
      <point x="175" y="852" type="curve" smooth="yes"/>
      <point x="127" y="805"/>
      <point x="121" y="728"/>
      <point x="121" y="670" type="curve" smooth="yes"/>
      <point x="121" y="-167" type="line" smooth="yes"/>
      <point x="121" y="-216"/>
      <point x="126" y="-293"/>
      <point x="175" y="-347" type="curve" smooth="yes"/>
      <point x="207" y="-383"/>
      <point x="234" y="-399"/>
      <point x="287" y="-399" type="curve" smooth="yes"/>
      <point x="318" y="-399" type="line" smooth="yes"/>
      <point x="370" y="-399"/>
      <point x="402" y="-390"/>
      <point x="417" y="-377" type="curve" smooth="yes"/>
      <point x="438" y="-358"/>
      <point x="439" y="-332"/>
      <point x="439" y="-309" type="curve" smooth="yes"/>
      <point x="439" y="-95" type="line"/>
      <point x="490" y="-95" type="line"/>
      <point x="490" y="-308" type="line" smooth="yes"/>
      <point x="490" y="-344"/>
      <point x="485" y="-386"/>
      <point x="453" y="-418" type="curve" smooth="yes"/>
      <point x="429" y="-442"/>
      <point x="382" y="-450"/>
      <point x="342" y="-450" type="curve" smooth="yes"/>
      <point x="280" y="-450" type="line" smooth="yes"/>
      <point x="216" y="-450"/>
      <point x="176" y="-429"/>
      <point x="136" y="-381" type="curve" smooth="yes"/>
      <point x="84" y="-321"/>
      <point x="70" y="-237"/>
      <point x="70" y="-185" type="curve" smooth="yes"/>
      <point x="70" y="690" type="line" smooth="yes"/>
      <point x="70" y="742"/>
      <point x="79" y="829"/>
      <point x="136" y="886" type="curve" smooth="yes"/>
      <point x="195" y="945"/>
      <point x="265" y="955"/>
      <point x="336" y="955" type="curve" smooth="yes"/>
      <point x="433" y="955" type="line" smooth="yes"/>
      <point x="504" y="955"/>
      <point x="573" y="944"/>
      <point x="631" y="885" type="curve" smooth="yes"/>
      <point x="677" y="837"/>
      <point x="699" y="777"/>
    </contour>
  </outline>
</glyph>
<glyph name="u103C_u102F.wide" format="2">
  <advance width="172"/>
  <anchor x="1174" y="0" name="A"/>
  <anchor x="172" y="0" name="R"/>
  <anchor x="1195" y="-53" name="BS"/>
  <anchor x="709" y="-53" name="LL"/>
  <anchor x="1195" y="-53" name="L"/>
  <anchor x="1195" y="-53" name="BD"/>
  <outline>
    <contour>
      <point x="904" y="-95" type="line"/>
      <point x="904" y="-305" type="line" smooth="yes"/>
      <point x="904" y="-340"/>
      <point x="902" y="-376"/>
      <point x="880" y="-405" type="curve" smooth="yes"/>
      <point x="861" y="-429"/>
      <point x="833" y="-450"/>
      <point x="744" y="-450" type="curve" smooth="yes"/>
      <point x="336" y="-450" type="line" smooth="yes"/>
      <point x="264" y="-450"/>
      <point x="208" y="-435"/>
      <point x="151" y="-381" type="curve" smooth="yes"/>
      <point x="91" y="-325"/>
      <point x="70" y="-237"/>
      <point x="70" y="-185" type="curve" smooth="yes"/>
      <point x="70" y="690" type="line" smooth="yes"/>
      <point x="70" y="742"/>
      <point x="90" y="830"/>
      <point x="151" y="886" type="curve" smooth="yes"/>
      <point x="207" y="939"/>
      <point x="264" y="955"/>
      <point x="336" y="955" type="curve" smooth="yes"/>
      <point x="853" y="955" type="line" smooth="yes"/>
      <point x="925" y="955"/>
      <point x="993" y="944"/>
      <point x="1051" y="885" type="curve" smooth="yes"/>
      <point x="1095" y="839"/>
      <point x="1116" y="777"/>
      <point x="1119" y="742" type="curve"/>
      <point x="1068" y="742" type="line"/>
      <point x="1068" y="762"/>
      <point x="1044" y="816"/>
      <point x="1012" y="850" type="curve" smooth="yes"/>
      <point x="963" y="902"/>
      <point x="888" y="904"/>
      <point x="832" y="904" type="curve" smooth="yes"/>
      <point x="366" y="904" type="line" smooth="yes"/>
      <point x="311" y="904"/>
      <point x="244" y="900"/>
      <point x="190" y="852" type="curve" smooth="yes"/>
      <point x="134" y="804"/>
      <point x="121" y="721"/>
      <point x="121" y="670" type="curve" smooth="yes"/>
      <point x="121" y="-167" type="line" smooth="yes"/>
      <point x="121" y="-212"/>
      <point x="134" y="-299"/>
      <point x="190" y="-347" type="curve" smooth="yes"/>
      <point x="244" y="-395"/>
      <point x="311" y="-399"/>
      <point x="366" y="-399" type="curve" smooth="yes"/>
      <point x="729" y="-399" type="line" smooth="yes"/>
      <point x="795" y="-399"/>
      <point x="819" y="-390"/>
      <point x="837" y="-369" type="curve" smooth="yes"/>
      <point x="850" y="-353"/>
      <point x="853" y="-322"/>
      <point x="853" y="-287" type="curve" smooth="yes"/>
      <point x="853" y="-95" type="line"/>
    </contour>
    <contour>
      <point x="1134" y="-450" type="line"/>
      <point x="1000" y="-450" type="line"/>
      <point x="1000" y="-95" type="line"/>
      <point x="1051" y="-95" type="line"/>
      <point x="1051" y="-399" type="line"/>
      <point x="1134" y="-399" type="line"/>
    </contour>
  </outline>
</glyph>
<glyph name="u103C_u103D.alt.narr.tri" format="2">
  <advance width="172"/>
  <anchor x="753" y="0" name="A"/>
  <anchor x="172" y="0" name="R"/>
  <anchor x="744" y="-53" name="BS"/>
  <anchor x="744" y="-53" name="BD"/>
  <anchor x="744" y="-53" name="L"/>
  <outline>
    <contour>
      <point x="601" y="-350" type="curve" smooth="yes"/>
      <point x="601" y="-279"/>
      <point x="487" y="-149"/>
      <point x="474" y="-149" type="curve" smooth="yes"/>
      <point x="460" y="-149"/>
      <point x="346" y="-282"/>
      <point x="346" y="-350" type="curve" smooth="yes"/>
      <point x="346" y="-398"/>
      <point x="399" y="-411"/>
      <point x="474" y="-411" type="curve" smooth="yes"/>
      <point x="558" y="-411"/>
      <point x="601" y="-397"/>
    </contour>
    <contour>
      <point x="643" y="-357" type="curve" smooth="yes"/>
      <point x="643" y="-419"/>
      <point x="587" y="-450"/>
      <point x="474" y="-450" type="curve" smooth="yes"/>
      <point x="349" y="-450" type="line" smooth="yes"/>
      <point x="274" y="-450"/>
      <point x="197" y="-445"/>
      <point x="136" y="-381" type="curve" smooth="yes"/>
      <point x="80" y="-322"/>
      <point x="70" y="-239"/>
      <point x="70" y="-185" type="curve" smooth="yes"/>
      <point x="70" y="690" type="line" smooth="yes"/>
      <point x="70" y="744"/>
      <point x="80" y="830"/>
      <point x="136" y="886" type="curve" smooth="yes"/>
      <point x="195" y="945"/>
      <point x="265" y="955"/>
      <point x="336" y="955" type="curve" smooth="yes"/>
      <point x="352" y="955" type="line"/>
      <point x="352" y="904" type="line"/>
      <point x="280" y="904"/>
      <point x="223" y="899"/>
      <point x="175" y="852" type="curve" smooth="yes"/>
      <point x="123" y="802"/>
      <point x="121" y="721"/>
      <point x="121" y="673" type="curve" smooth="yes"/>
      <point x="121" y="-167" type="line" smooth="yes"/>
      <point x="121" y="-215"/>
      <point x="123" y="-295"/>
      <point x="175" y="-347" type="curve" smooth="yes"/>
      <point x="213" y="-385"/>
      <point x="271" y="-399"/>
      <point x="309" y="-399" type="curve" smooth="yes"/>
      <point x="316" y="-399" type="line"/>
      <point x="309" y="-386"/>
      <point x="304" y="-372"/>
      <point x="304" y="-357" type="curve" smooth="yes"/>
      <point x="304" y="-267"/>
      <point x="450" y="-99"/>
      <point x="474" y="-99" type="curve" smooth="yes"/>
      <point x="498" y="-99"/>
      <point x="643" y="-263"/>
    </contour>
  </outline>
</glyph>
<glyph name="u103C_u103D.alt.wide.tri" format="2">
  <advance width="172"/>
  <anchor x="172" y="0" name="R"/>
  <anchor x="1135" y="-53" name="BS"/>
  <anchor x="1135" y="-53" name="BD"/>
  <anchor x="607" y="-53" name="LL"/>
  <anchor x="1135" y="-53" name="L"/>
  <outline>
    <contour>
      <point x="1003" y="-350" type="curve" smooth="yes"/>
      <point x="1003" y="-279"/>
      <point x="889" y="-149"/>
      <point x="876" y="-149" type="curve" smooth="yes"/>
      <point x="862" y="-149"/>
      <point x="748" y="-282"/>
      <point x="748" y="-350" type="curve" smooth="yes"/>
      <point x="748" y="-398"/>
      <point x="804" y="-411"/>
      <point x="876" y="-411" type="curve" smooth="yes"/>
      <point x="960" y="-411"/>
      <point x="1003" y="-397"/>
    </contour>
    <contour>
      <point x="1045" y="-357" type="curve" smooth="yes"/>
      <point x="1045" y="-419"/>
      <point x="989" y="-450"/>
      <point x="876" y="-450" type="curve" smooth="yes"/>
      <point x="336" y="-450" type="line" smooth="yes"/>
      <point x="264" y="-450"/>
      <point x="208" y="-435"/>
      <point x="151" y="-381" type="curve" smooth="yes"/>
      <point x="91" y="-325"/>
      <point x="70" y="-237"/>
      <point x="70" y="-185" type="curve" smooth="yes"/>
      <point x="70" y="690" type="line" smooth="yes"/>
      <point x="70" y="742"/>
      <point x="90" y="830"/>
      <point x="151" y="886" type="curve" smooth="yes"/>
      <point x="207" y="939"/>
      <point x="264" y="955"/>
      <point x="336" y="955" type="curve" smooth="yes"/>
      <point x="694" y="955" type="line"/>
      <point x="694" y="904" type="line"/>
      <point x="366" y="904" type="line" smooth="yes"/>
      <point x="311" y="904"/>
      <point x="244" y="900"/>
      <point x="190" y="852" type="curve" smooth="yes"/>
      <point x="134" y="804"/>
      <point x="121" y="720"/>
      <point x="121" y="673" type="curve" smooth="yes"/>
      <point x="121" y="-167" type="line" smooth="yes"/>
      <point x="121" y="-212"/>
      <point x="134" y="-299"/>
      <point x="190" y="-347" type="curve" smooth="yes"/>
      <point x="244" y="-395"/>
      <point x="311" y="-399"/>
      <point x="366" y="-399" type="curve" smooth="yes"/>
      <point x="718" y="-399" type="line"/>
      <point x="711" y="-386"/>
      <point x="706" y="-372"/>
      <point x="706" y="-357" type="curve" smooth="yes"/>
      <point x="706" y="-267"/>
      <point x="852" y="-99"/>
      <point x="876" y="-99" type="curve" smooth="yes"/>
      <point x="900" y="-99"/>
      <point x="1045" y="-263"/>
    </contour>
  </outline>
</glyph>
<glyph name="u103C_u103D.narr" format="2">
  <advance width="172"/>
  <anchor x="224" y="1" name="LL"/>
  <anchor x="172" y="0" name="R"/>
  <anchor x="796" y="-53" name="BS"/>
  <anchor x="796" y="-53" name="BD"/>
  <anchor x="796" y="-53" name="L"/>
  <outline>
    <contour>
      <point x="699" y="742" type="curve"/>
      <point x="648" y="742" type="line"/>
      <point x="647" y="769"/>
      <point x="629" y="814"/>
      <point x="594" y="852" type="curve" smooth="yes"/>
      <point x="551" y="899"/>
      <point x="479" y="904"/>
      <point x="412" y="904" type="curve" smooth="yes"/>
      <point x="345" y="904" type="line" smooth="yes"/>
      <point x="297" y="904"/>
      <point x="220" y="897"/>
      <point x="175" y="852" type="curve" smooth="yes"/>
      <point x="124" y="801"/>
      <point x="121" y="721"/>
      <point x="121" y="673" type="curve" smooth="yes"/>
      <point x="121" y="-167" type="line" smooth="yes"/>
      <point x="121" y="-214"/>
      <point x="124" y="-297"/>
      <point x="175" y="-345" type="curve" smooth="yes"/>
      <point x="220" y="-388"/>
      <point x="281" y="-399"/>
      <point x="325" y="-399" type="curve" smooth="yes"/>
      <point x="349" y="-399" type="line"/>
      <point x="314" y="-364"/>
      <point x="295" y="-320"/>
      <point x="295" y="-267" type="curve" smooth="yes"/>
      <point x="295" y="-166"/>
      <point x="375" y="-84"/>
      <point x="474" y="-84" type="curve" smooth="yes"/>
      <point x="571" y="-84"/>
      <point x="652" y="-166"/>
      <point x="652" y="-267" type="curve" smooth="yes"/>
      <point x="652" y="-369"/>
      <point x="571" y="-450"/>
      <point x="474" y="-450" type="curve" smooth="yes"/>
      <point x="336" y="-450" type="line" smooth="yes"/>
      <point x="258" y="-450"/>
      <point x="196" y="-441"/>
      <point x="136" y="-381" type="curve" smooth="yes"/>
      <point x="81" y="-326"/>
      <point x="70" y="-239"/>
      <point x="70" y="-185" type="curve" smooth="yes"/>
      <point x="70" y="690" type="line" smooth="yes"/>
      <point x="70" y="744"/>
      <point x="80" y="830"/>
      <point x="136" y="886" type="curve" smooth="yes"/>
      <point x="195" y="945"/>
      <point x="265" y="955"/>
      <point x="336" y="955" type="curve" smooth="yes"/>
      <point x="433" y="955" type="line" smooth="yes"/>
      <point x="514" y="955"/>
      <point x="575" y="944"/>
      <point x="633" y="885" type="curve" smooth="yes"/>
      <point x="677" y="839"/>
      <point x="697" y="781"/>
    </contour>
    <contour>
      <point x="613" y="-267" type="curve" smooth="yes"/>
      <point x="613" y="-189"/>
      <point x="550" y="-123"/>
      <point x="474" y="-123" type="curve" smooth="yes"/>
      <point x="396" y="-123"/>
      <point x="333" y="-189"/>
      <point x="333" y="-267" type="curve" smooth="yes"/>
      <point x="333" y="-327"/>
      <point x="369" y="-376"/>
      <point x="421" y="-399" type="curve" smooth="yes"/>
      <point x="438" y="-404"/>
      <point x="445" y="-404"/>
      <point x="474" y="-404" type="curve" smooth="yes"/>
      <point x="550" y="-404"/>
      <point x="613" y="-344"/>
    </contour>
  </outline>
</glyph>
<glyph name="u103C_u103D.wide" format="2">
  <advance width="172"/>
  <anchor x="1174" y="0" name="A"/>
  <anchor x="172" y="0" name="R"/>
  <anchor x="1198" y="-53" name="BS"/>
  <anchor x="1198" y="-53" name="BD"/>
  <anchor x="553" y="-53" name="LL"/>
  <anchor x="1198" y="-53" name="L"/>
  <outline>
    <contour>
      <point x="1015" y="-267" type="curve" smooth="yes"/>
      <point x="1015" y="-189"/>
      <point x="952" y="-123"/>
      <point x="876" y="-123" type="curve" smooth="yes"/>
      <point x="798" y="-123"/>
      <point x="735" y="-189"/>
      <point x="735" y="-267" type="curve" smooth="yes"/>
      <point x="735" y="-327"/>
      <point x="771" y="-376"/>
      <point x="823" y="-399" type="curve" smooth="yes"/>
      <point x="840" y="-404"/>
      <point x="847" y="-404"/>
      <point x="876" y="-404" type="curve" smooth="yes"/>
      <point x="952" y="-404"/>
      <point x="1015" y="-344"/>
    </contour>
    <contour>
      <point x="1119" y="742" type="curve"/>
      <point x="1068" y="742" type="line"/>
      <point x="1067" y="769"/>
      <point x="1049" y="814"/>
      <point x="1014" y="852" type="curve" smooth="yes"/>
      <point x="971" y="899"/>
      <point x="899" y="904"/>
      <point x="832" y="904" type="curve" smooth="yes"/>
      <point x="366" y="904" type="line" smooth="yes"/>
      <point x="311" y="904"/>
      <point x="243" y="900"/>
      <point x="190" y="852" type="curve" smooth="yes"/>
      <point x="135" y="802"/>
      <point x="121" y="723"/>
      <point x="121" y="673" type="curve" smooth="yes"/>
      <point x="121" y="-167" type="line" smooth="yes"/>
      <point x="121" y="-212"/>
      <point x="134" y="-299"/>
      <point x="190" y="-347" type="curve" smooth="yes"/>
      <point x="244" y="-395"/>
      <point x="311" y="-399"/>
      <point x="366" y="-399" type="curve" smooth="yes"/>
      <point x="751" y="-399" type="line"/>
      <point x="716" y="-364"/>
      <point x="697" y="-320"/>
      <point x="697" y="-267" type="curve" smooth="yes"/>
      <point x="697" y="-166"/>
      <point x="777" y="-84"/>
      <point x="876" y="-84" type="curve" smooth="yes"/>
      <point x="973" y="-84"/>
      <point x="1054" y="-166"/>
      <point x="1054" y="-267" type="curve" smooth="yes"/>
      <point x="1054" y="-369"/>
      <point x="973" y="-450"/>
      <point x="876" y="-450" type="curve" smooth="yes"/>
      <point x="336" y="-450" type="line" smooth="yes"/>
      <point x="264" y="-450"/>
      <point x="208" y="-436"/>
      <point x="151" y="-382" type="curve" smooth="yes"/>
      <point x="91" y="-326"/>
      <point x="70" y="-237"/>
      <point x="70" y="-185" type="curve" smooth="yes"/>
      <point x="70" y="690" type="line" smooth="yes"/>
      <point x="70" y="746"/>
      <point x="90" y="830"/>
      <point x="151" y="886" type="curve" smooth="yes"/>
      <point x="207" y="939"/>
      <point x="264" y="955"/>
      <point x="336" y="955" type="curve" smooth="yes"/>
      <point x="853" y="955" type="line" smooth="yes"/>
      <point x="934" y="955"/>
      <point x="994" y="944"/>
      <point x="1052" y="885" type="curve" smooth="yes"/>
      <point x="1096" y="839"/>
      <point x="1117" y="781"/>
    </contour>
  </outline>
</glyph>
<glyph name="u103C_u103D.wide.tri" format="2">
  <advance width="172"/>
  <anchor x="1174" y="0" name="A"/>
  <anchor x="172" y="0" name="R"/>
  <anchor x="1135" y="-53" name="BS"/>
  <anchor x="1135" y="-53" name="BD"/>
  <anchor x="607" y="-53" name="LL"/>
  <anchor x="1135" y="-53" name="L"/>
  <outline>
    <contour>
      <point x="1003" y="-350" type="curve" smooth="yes"/>
      <point x="1003" y="-279"/>
      <point x="889" y="-149"/>
      <point x="876" y="-149" type="curve" smooth="yes"/>
      <point x="862" y="-149"/>
      <point x="748" y="-282"/>
      <point x="748" y="-350" type="curve" smooth="yes"/>
      <point x="748" y="-398"/>
      <point x="804" y="-411"/>
      <point x="876" y="-411" type="curve" smooth="yes"/>
      <point x="960" y="-411"/>
      <point x="1003" y="-397"/>
    </contour>
    <contour>
      <point x="1119" y="742" type="curve"/>
      <point x="1068" y="742" type="line"/>
      <point x="1067" y="769"/>
      <point x="1049" y="814"/>
      <point x="1014" y="852" type="curve" smooth="yes"/>
      <point x="971" y="899"/>
      <point x="899" y="904"/>
      <point x="832" y="904" type="curve" smooth="yes"/>
      <point x="366" y="904" type="line" smooth="yes"/>
      <point x="311" y="904"/>
      <point x="244" y="900"/>
      <point x="190" y="852" type="curve" smooth="yes"/>
      <point x="134" y="804"/>
      <point x="121" y="720"/>
      <point x="121" y="673" type="curve" smooth="yes"/>
      <point x="121" y="-167" type="line" smooth="yes"/>
      <point x="121" y="-212"/>
      <point x="134" y="-299"/>
      <point x="190" y="-347" type="curve" smooth="yes"/>
      <point x="244" y="-395"/>
      <point x="311" y="-399"/>
      <point x="366" y="-399" type="curve" smooth="yes"/>
      <point x="718" y="-399" type="line"/>
      <point x="711" y="-386"/>
      <point x="706" y="-372"/>
      <point x="706" y="-357" type="curve" smooth="yes"/>
      <point x="706" y="-267"/>
      <point x="852" y="-99"/>
      <point x="876" y="-99" type="curve" smooth="yes"/>
      <point x="900" y="-99"/>
      <point x="1045" y="-263"/>
      <point x="1045" y="-357" type="curve" smooth="yes"/>
      <point x="1045" y="-419"/>
      <point x="989" y="-450"/>
      <point x="876" y="-450" type="curve" smooth="yes"/>
      <point x="336" y="-450" type="line" smooth="yes"/>
      <point x="264" y="-450"/>
      <point x="208" y="-435"/>
      <point x="151" y="-381" type="curve" smooth="yes"/>
      <point x="91" y="-325"/>
      <point x="70" y="-237"/>
      <point x="70" y="-185" type="curve" smooth="yes"/>
      <point x="70" y="690" type="line" smooth="yes"/>
      <point x="70" y="742"/>
      <point x="90" y="830"/>
      <point x="151" y="886" type="curve" smooth="yes"/>
      <point x="207" y="939"/>
      <point x="264" y="955"/>
      <point x="336" y="955" type="curve" smooth="yes"/>
      <point x="853" y="955" type="line" smooth="yes"/>
      <point x="934" y="955"/>
      <point x="994" y="944"/>
      <point x="1052" y="885" type="curve" smooth="yes"/>
      <point x="1096" y="839"/>
      <point x="1117" y="781"/>
    </contour>
  </outline>
</glyph>
<glyph name="u103D_u103E" format="2">
  <advance width="0"/>
  <anchor x="-234" y="-53" name="_BS"/>
  <anchor x="-611" y="-53" name="LLM"/>
  <anchor x="-234" y="-53" name="_BSM"/>
  <anchor x="88" y="-53" name="LM"/>
  <anchor x="610" y="-53" name="BSM"/>
  <outline>
    <contour>
      <point x="-95" y="-267" type="curve" smooth="yes"/>
      <point x="-95" y="-189"/>
      <point x="-158" y="-123"/>
      <point x="-233" y="-123" type="curve" smooth="yes"/>
      <point x="-303" y="-123"/>
      <point x="-374" y="-179"/>
      <point x="-374" y="-267" type="curve" smooth="yes"/>
      <point x="-374" y="-345"/>
      <point x="-311" y="-411"/>
      <point x="-233" y="-411" type="curve" smooth="yes"/>
      <point x="-153" y="-411"/>
      <point x="-95" y="-345"/>
    </contour>
    <contour>
      <point x="-56" y="-267" type="curve" smooth="yes"/>
      <point x="-56" y="-369"/>
      <point x="-137" y="-450"/>
      <point x="-233" y="-450" type="curve" smooth="yes"/>
      <point x="-326" y="-450"/>
      <point x="-402" y="-380"/>
      <point x="-413" y="-290" type="curve"/>
      <point x="-486" y="-407" type="line"/>
      <point x="-626" y="-327" type="line"/>
      <point x="-605" y="-293" type="line"/>
      <point x="-500" y="-351" type="line"/>
      <point x="-398" y="-185" type="line" smooth="yes"/>
      <point x="-354" y="-113"/>
      <point x="-304" y="-84"/>
      <point x="-233" y="-84" type="curve" smooth="yes"/>
      <point x="-132" y="-84"/>
      <point x="-56" y="-166"/>
    </contour>
  </outline>
</glyph>
<glyph name="u103D_u103E.tri" format="2">
  <advance width="0"/>
  <anchor x="-225" y="-53" name="_BS"/>
  <anchor x="-530" y="-53" name="LLM"/>
  <anchor x="-225" y="-53" name="_BSM"/>
  <anchor x="82" y="-53" name="LM"/>
  <anchor x="216" y="-53" name="BSM"/>
  <outline>
    <contour>
      <point x="-98" y="-350" type="curve" smooth="yes"/>
      <point x="-98" y="-279"/>
      <point x="-212" y="-149"/>
      <point x="-225" y="-149" type="curve" smooth="yes"/>
      <point x="-239" y="-149"/>
      <point x="-353" y="-282"/>
      <point x="-353" y="-350" type="curve" smooth="yes"/>
      <point x="-353" y="-398"/>
      <point x="-300" y="-411"/>
      <point x="-225" y="-411" type="curve" smooth="yes"/>
      <point x="-141" y="-411"/>
      <point x="-98" y="-397"/>
    </contour>
    <contour>
      <point x="-56" y="-357" type="curve" smooth="yes"/>
      <point x="-56" y="-419"/>
      <point x="-112" y="-450"/>
      <point x="-225" y="-450" type="curve" smooth="yes"/>
      <point x="-323" y="-450"/>
      <point x="-395" y="-424"/>
      <point x="-395" y="-357" type="curve" smooth="yes"/>
      <point x="-395" y="-342"/>
      <point x="-390" y="-324"/>
      <point x="-383" y="-303" type="curve"/>
      <point x="-446" y="-368" type="line"/>
      <point x="-545" y="-294" type="line"/>
      <point x="-519" y="-263" type="line"/>
      <point x="-449" y="-314" type="line"/>
      <point x="-278" y="-142" type="line" smooth="yes"/>
      <point x="-251" y="-115"/>
      <point x="-235" y="-99"/>
      <point x="-225" y="-99" type="curve" smooth="yes"/>
      <point x="-201" y="-99"/>
      <point x="-56" y="-263"/>
    </contour>
  </outline>
</glyph>
<glyph name="u103E_u102F" format="2">
  <advance width="0"/>
  <anchor x="-223" y="-53" name="_BS"/>
  <anchor x="-466" y="-53" name="LLM"/>
  <anchor x="-223" y="-53" name="_BSM"/>
  <anchor x="21" y="-53" name="LM"/>
  <anchor x="466" y="-53" name="BSM"/>
  <outline>
    <contour>
      <point x="-271" y="-450" type="line"/>
      <point x="-405" y="-450" type="line"/>
      <point x="-405" y="-399" type="line"/>
      <point x="-322" y="-399" type="line"/>
      <point x="-322" y="-95" type="line"/>
      <point x="-271" y="-95" type="line"/>
    </contour>
    <contour>
      <point x="-40" y="-450" type="line"/>
      <point x="-174" y="-450" type="line"/>
      <point x="-174" y="-95" type="line"/>
      <point x="-123" y="-95" type="line"/>
      <point x="-123" y="-399" type="line"/>
      <point x="-40" y="-399" type="line"/>
    </contour>
  </outline>
</glyph>
<glyph name="u103E_u102F.slantr" format="2">
  <advance width="0"/>
  <anchor x="-223" y="-53" name="_BS"/>
  <anchor x="21" y="-53" name="LLM"/>
  <anchor x="-223" y="-53" name="_BSM"/>
  <anchor x="-466" y="-53" name="LM"/>
  <anchor x="222" y="-53" name="BSM"/>
  <outline>
    <contour>
      <point x="-366" y="-450" type="line"/>
      <point x="-492" y="-405" type="line"/>
      <point x="-474" y="-357" type="line"/>
      <point x="-397" y="-384" type="line"/>
      <point x="-288" y="-86" type="line"/>
      <point x="-240" y="-102" type="line"/>
    </contour>
    <contour>
      <point x="-40" y="-450" type="line"/>
      <point x="-174" y="-450" type="line"/>
      <point x="-174" y="-95" type="line"/>
      <point x="-123" y="-95" type="line"/>
      <point x="-123" y="-399" type="line"/>
      <point x="-40" y="-399" type="line"/>
    </contour>
  </outline>
</glyph>
<glyph name="u103E_u1030.slantr" format="2">
  <advance width="0"/>
  <anchor x="-294" y="-53" name="_BS"/>
  <anchor x="21" y="-53" name="LLM"/>
  <anchor x="-294" y="-53" name="_BSM"/>
  <anchor x="-609" y="-53" name="LM"/>
  <anchor x="294" y="-53" name="BSM"/>
  <outline>
    <contour>
      <point x="-383" y="-102" type="line"/>
      <point x="-509" y="-450" type="line"/>
      <point x="-635" y="-405" type="line"/>
      <point x="-617" y="-357" type="line"/>
      <point x="-540" y="-384" type="line"/>
      <point x="-431" y="-86" type="line"/>
    </contour>
    <contour>
      <point x="-269" y="-450" type="line"/>
      <point x="-320" y="-450" type="line"/>
      <point x="-320" y="-95" type="line"/>
      <point x="-269" y="-95" type="line"/>
    </contour>
    <contour>
      <point x="-41" y="-450" type="line"/>
      <point x="-174" y="-450" type="line"/>
      <point x="-174" y="-95" type="line"/>
      <point x="-123" y="-95" type="line"/>
      <point x="-123" y="-399" type="line"/>
      <point x="-41" y="-399" type="line"/>
    </contour>
  </outline>
</glyph>
<glyph name="u1063_u103A" format="2">
  <advance width="568"/>
  <anchor x="306" y="-53" name="BS"/>
  <anchor x="276" y="-53" name="L"/>
  <anchor x="306" y="-53" name="BD"/>
  <outline>
    <contour>
      <point x="513" y="222" type="curve" smooth="yes"/>
      <point x="513" y="91"/>
      <point x="406" y="-15"/>
      <point x="276" y="-15" type="curve" smooth="yes"/>
      <point x="217" y="-15"/>
      <point x="153" y="7"/>
      <point x="106" y="49" type="curve"/>
      <point x="106" y="-450" type="line"/>
      <point x="55" y="-450" type="line"/>
      <point x="55" y="121" type="line"/>
      <point x="99" y="147" type="line"/>
      <point x="136" y="76"/>
      <point x="205" y="36"/>
      <point x="276" y="36" type="curve" smooth="yes"/>
      <point x="378" y="36"/>
      <point x="462" y="120"/>
      <point x="462" y="222" type="curve" smooth="yes"/>
      <point x="462" y="324"/>
      <point x="378" y="408"/>
      <point x="276" y="408" type="curve" smooth="yes"/>
      <point x="205" y="408"/>
      <point x="136" y="367"/>
      <point x="99" y="297" type="curve"/>
      <point x="55" y="322" type="line"/>
      <point x="85" y="394"/>
      <point x="151" y="438"/>
      <point x="222" y="453" type="curve"/>
      <point x="159" y="475"/>
      <point x="93" y="537"/>
      <point x="93" y="631" type="curve" smooth="yes"/>
      <point x="93" y="739"/>
      <point x="180" y="814"/>
      <point x="271" y="814" type="curve" smooth="yes"/>
      <point x="331" y="814"/>
      <point x="385" y="784"/>
      <point x="408" y="738" type="curve"/>
      <point x="379" y="714" type="line"/>
      <point x="351" y="760"/>
      <point x="306" y="775"/>
      <point x="271" y="775" type="curve" smooth="yes"/>
      <point x="205" y="775"/>
      <point x="132" y="720"/>
      <point x="132" y="631" type="curve" smooth="yes"/>
      <point x="132" y="522"/>
      <point x="241" y="483"/>
      <point x="276" y="483" type="curve"/>
      <point x="276" y="459" type="line"/>
      <point x="406" y="459"/>
      <point x="513" y="351"/>
    </contour>
  </outline>
</glyph>
<glyph name="u1082_u108D" format="2">
  <advance width="55"/>
  <anchor x="-242" y="-53" name="_BS"/>
  <anchor x="-719" y="-53" name="LLM"/>
  <anchor x="-242" y="-53" name="_BSM"/>
  <anchor x="76" y="-53" name="LM"/>
  <anchor x="76" y="-53" name="BSM"/>
  <outline>
    <contour>
      <point x="-400" y="-292" type="line"/>
      <point x="-690" y="-292" type="line"/>
      <point x="-690" y="-252" type="line"/>
      <point x="-400" y="-252" type="line"/>
    </contour>
    <contour>
      <point x="0" y="-389" type="line"/>
      <point x="-23" y="-436"/>
      <point x="-76" y="-465"/>
      <point x="-136" y="-465" type="curve" smooth="yes"/>
      <point x="-228" y="-465"/>
      <point x="-315" y="-390"/>
      <point x="-315" y="-282" type="curve" smooth="yes"/>
      <point x="-315" y="-161"/>
      <point x="-204" y="-95"/>
      <point x="-132" y="-95" type="curve"/>
      <point x="-132" y="-134" type="line"/>
      <point x="-167" y="-134"/>
      <point x="-276" y="-174"/>
      <point x="-276" y="-282" type="curve" smooth="yes"/>
      <point x="-276" y="-370"/>
      <point x="-203" y="-425"/>
      <point x="-136" y="-425" type="curve" smooth="yes"/>
      <point x="-101" y="-425"/>
      <point x="-57" y="-412"/>
      <point x="-28" y="-365" type="curve"/>
    </contour>
  </outline>
</glyph>
<glyph name="u108A.dot" format="2">
  <advance width="415"/>
  <outline>
    <contour>
      <point x="360" y="122" type="line"/>
      <point x="341" y="74"/>
      <point x="245" y="-19"/>
      <point x="140" y="-19" type="curve" smooth="yes"/>
      <point x="88" y="-19"/>
      <point x="55" y="18"/>
      <point x="55" y="58" type="curve" smooth="yes"/>
      <point x="55" y="99"/>
      <point x="90" y="132"/>
      <point x="130" y="132" type="curve" smooth="yes"/>
      <point x="171" y="132"/>
      <point x="205" y="99"/>
      <point x="205" y="58" type="curve" smooth="yes"/>
      <point x="205" y="55"/>
      <point x="205" y="51"/>
      <point x="204" y="46" type="curve"/>
      <point x="240" y="46"/>
      <point x="320" y="91"/>
      <point x="344" y="128" type="curve"/>
    </contour>
    <contour>
      <point x="360" y="449" type="line"/>
      <point x="341" y="401"/>
      <point x="245" y="308"/>
      <point x="140" y="308" type="curve" smooth="yes"/>
      <point x="88" y="308"/>
      <point x="55" y="345"/>
      <point x="55" y="385" type="curve" smooth="yes"/>
      <point x="55" y="426"/>
      <point x="90" y="459"/>
      <point x="130" y="459" type="curve" smooth="yes"/>
      <point x="171" y="459"/>
      <point x="205" y="426"/>
      <point x="205" y="385" type="curve" smooth="yes"/>
      <point x="205" y="382"/>
      <point x="205" y="378"/>
      <point x="204" y="373" type="curve"/>
      <point x="240" y="373"/>
      <point x="320" y="418"/>
      <point x="344" y="455" type="curve"/>
    </contour>
  </outline>
</glyph>
<glyph name="uAA60.kham" format="2">
  <advance width="938"/>
  <anchor x="0" y="0" name="_R"/>
  <anchor x="645" y="-53" name="BS"/>
  <anchor x="645" y="-53" name="L"/>
  <anchor x="465" y="-53" name="BD"/>
  <anchor x="645" y="495" name="U"/>
  <outline>
    <contour>
      <point x="825" y="177" type="curve"/>
      <point x="810" y="180"/>
      <point x="797" y="182"/>
      <point x="784" y="182" type="curve" smooth="yes"/>
      <point x="753" y="182"/>
      <point x="728" y="174"/>
      <point x="709" y="165" type="curve" smooth="yes"/>
      <point x="649" y="136"/>
      <point x="625" y="97"/>
      <point x="606" y="40" type="curve"/>
      <point x="619" y="37"/>
      <point x="632" y="36"/>
      <point x="645" y="36" type="curve" smooth="yes"/>
      <point x="728" y="36"/>
      <point x="804" y="89"/>
    </contour>
    <contour>
      <point x="883" y="222" type="curve" smooth="yes"/>
      <point x="883" y="80"/>
      <point x="766" y="-15"/>
      <point x="640" y="-15" type="curve" smooth="yes"/>
      <point x="606" y="-15"/>
      <point x="571" y="-8"/>
      <point x="538" y="7" type="curve"/>
      <point x="565" y="97"/>
      <point x="595" y="168"/>
      <point x="687" y="210" type="curve" smooth="yes"/>
      <point x="725" y="227"/>
      <point x="754" y="235"/>
      <point x="787" y="235" type="curve" smooth="yes"/>
      <point x="801" y="235"/>
      <point x="815" y="234"/>
      <point x="832" y="231" type="curve"/>
      <point x="832" y="328"/>
      <point x="745" y="408"/>
      <point x="645" y="408" type="curve" smooth="yes"/>
      <point x="571" y="408"/>
      <point x="522" y="370"/>
      <point x="495" y="340" type="curve"/>
      <point x="516" y="303"/>
      <point x="529" y="256"/>
      <point x="529" y="204" type="curve" smooth="yes"/>
      <point x="529" y="87"/>
      <point x="487" y="27"/>
      <point x="432" y="-15" type="curve"/>
      <point x="402" y="28" type="line"/>
      <point x="449" y="71"/>
      <point x="478" y="126"/>
      <point x="478" y="202" type="curve" smooth="yes"/>
      <point x="478" y="322"/>
      <point x="394" y="406"/>
      <point x="292" y="406" type="curve" smooth="yes"/>
      <point x="190" y="406"/>
      <point x="106" y="322"/>
      <point x="106" y="202" type="curve" smooth="yes"/>
      <point x="106" y="170"/>
      <point x="112" y="140"/>
      <point x="123" y="111" type="curve"/>
      <point x="138" y="126"/>
      <point x="157" y="136"/>
      <point x="180" y="136" type="curve" smooth="yes"/>
      <point x="220" y="136"/>
      <point x="255" y="102"/>
      <point x="255" y="61" type="curve" smooth="yes"/>
      <point x="255" y="21"/>
      <point x="220" y="-15"/>
      <point x="180" y="-15" type="curve" smooth="yes"/>
      <point x="99" y="-15"/>
      <point x="55" y="106"/>
      <point x="55" y="202" type="curve" smooth="yes"/>
      <point x="55" y="354"/>
      <point x="161" y="457"/>
      <point x="292" y="457" type="curve" smooth="yes"/>
      <point x="372" y="457"/>
      <point x="424" y="424"/>
      <point x="465" y="382" type="curve"/>
      <point x="502" y="424"/>
      <point x="565" y="459"/>
      <point x="645" y="459" type="curve" smooth="yes"/>
      <point x="775" y="459"/>
      <point x="883" y="354"/>
    </contour>
  </outline>
</glyph>
<glyph name="uAA63.kham" format="2">
  <advance width="990"/>
  <anchor x="0" y="0" name="_R"/>
  <anchor x="701" y="-53" name="BS"/>
  <anchor x="701" y="-53" name="L"/>
  <anchor x="500" y="-53" name="BD"/>
  <anchor x="701" y="495" name="U"/>
  <outline>
    <contour>
      <point x="471" y="199" type="curve" smooth="yes"/>
      <point x="471" y="266"/>
      <point x="454" y="299"/>
      <point x="435" y="325" type="curve"/>
      <point x="390" y="290"/>
      <point x="363" y="248"/>
      <point x="363" y="184" type="curve" smooth="yes"/>
      <point x="363" y="153"/>
      <point x="369" y="111"/>
      <point x="400" y="64" type="curve"/>
      <point x="439" y="103"/>
      <point x="471" y="147"/>
    </contour>
    <contour>
      <point x="884" y="222" type="curve" smooth="yes"/>
      <point x="884" y="322"/>
      <point x="804" y="408"/>
      <point x="704" y="408" type="curve" smooth="yes"/>
      <point x="604" y="408"/>
      <point x="521" y="324"/>
      <point x="521" y="224" type="curve" smooth="yes"/>
      <point x="521" y="111"/>
      <point x="605" y="36"/>
      <point x="701" y="36" type="curve" smooth="yes"/>
      <point x="802" y="36"/>
      <point x="884" y="119"/>
    </contour>
    <contour>
      <point x="935" y="222" type="curve" smooth="yes"/>
      <point x="935" y="91"/>
      <point x="832" y="-15"/>
      <point x="704" y="-15" type="curve" smooth="yes"/>
      <point x="615" y="-15"/>
      <point x="540" y="32"/>
      <point x="500" y="104" type="curve"/>
      <point x="475" y="51"/>
      <point x="433" y="14"/>
      <point x="397" y="-15" type="curve"/>
      <point x="328" y="54"/>
      <point x="312" y="126"/>
      <point x="312" y="181" type="curve" smooth="yes"/>
      <point x="312" y="262"/>
      <point x="342" y="318"/>
      <point x="399" y="366" type="curve"/>
      <point x="368" y="391"/>
      <point x="328" y="406"/>
      <point x="285" y="406" type="curve" smooth="yes"/>
      <point x="178" y="406"/>
      <point x="109" y="326"/>
      <point x="109" y="282" type="curve" smooth="yes"/>
      <point x="109" y="270"/>
      <point x="115" y="265"/>
      <point x="147" y="265" type="curve" smooth="yes"/>
      <point x="221" y="265"/>
      <point x="270" y="198"/>
      <point x="270" y="129" type="curve" smooth="yes"/>
      <point x="270" y="51"/>
      <point x="205" y="-15"/>
      <point x="130" y="-15" type="curve" smooth="yes"/>
      <point x="90" y="-15"/>
      <point x="55" y="21"/>
      <point x="55" y="61" type="curve" smooth="yes"/>
      <point x="55" y="102"/>
      <point x="90" y="136"/>
      <point x="130" y="136" type="curve" smooth="yes"/>
      <point x="153" y="136"/>
      <point x="185" y="124"/>
      <point x="201" y="87" type="curve"/>
      <point x="217" y="98"/>
      <point x="219" y="112"/>
      <point x="219" y="129" type="curve" smooth="yes"/>
      <point x="219" y="159"/>
      <point x="201" y="215"/>
      <point x="147" y="215" type="curve" smooth="yes"/>
      <point x="92" y="215"/>
      <point x="55" y="231"/>
      <point x="55" y="289" type="curve" smooth="yes"/>
      <point x="55" y="354"/>
      <point x="144" y="457"/>
      <point x="285" y="457" type="curve" smooth="yes"/>
      <point x="376" y="457"/>
      <point x="454" y="407"/>
      <point x="494" y="327" type="curve"/>
      <point x="533" y="404"/>
      <point x="609" y="459"/>
      <point x="701" y="459" type="curve" smooth="yes"/>
      <point x="833" y="459"/>
      <point x="935" y="351"/>
    </contour>
  </outline>
</glyph>
<glyph name="uAA76.kham" format="2">
  <advance width="1139"/>
  <outline>
    <contour>
      <point x="664" y="-399" type="curve" smooth="yes"/>
      <point x="680" y="-399"/>
      <point x="708" y="-385"/>
      <point x="710" y="-351" type="curve" smooth="yes"/>
      <point x="710" y="-333" type="line"/>
      <point x="706" y="-326"/>
      <point x="688" y="-308"/>
      <point x="664" y="-308" type="curve" smooth="yes"/>
      <point x="638" y="-308"/>
      <point x="618" y="-329"/>
      <point x="618" y="-353" type="curve" smooth="yes"/>
      <point x="618" y="-377"/>
      <point x="638" y="-399"/>
    </contour>
    <contour>
      <point x="1099" y="816" type="curve"/>
      <point x="1053" y="796" type="line"/>
      <point x="1042" y="831"/>
      <point x="1005" y="853"/>
      <point x="969" y="853" type="curve" smooth="yes"/>
      <point x="897" y="853"/>
      <point x="840" y="794"/>
      <point x="840" y="726" type="curve" smooth="yes"/>
      <point x="840" y="586"/>
      <point x="1084" y="591"/>
      <point x="1084" y="390" type="curve" smooth="yes"/>
      <point x="1084" y="-293" type="line" smooth="yes"/>
      <point x="1084" y="-417"/>
      <point x="1019" y="-450"/>
      <point x="948" y="-450" type="curve" smooth="yes"/>
      <point x="879" y="-450"/>
      <point x="804" y="-409"/>
      <point x="756" y="-366" type="curve"/>
      <point x="756" y="-391"/>
      <point x="723" y="-450"/>
      <point x="664" y="-450" type="curve" smooth="yes"/>
      <point x="613" y="-450"/>
      <point x="567" y="-412"/>
      <point x="567" y="-353" type="curve" smooth="yes"/>
      <point x="567" y="-295"/>
      <point x="613" y="-257"/>
      <point x="664" y="-257" type="curve" smooth="yes"/>
      <point x="677" y="-257"/>
      <point x="695" y="-260"/>
      <point x="710" y="-271" type="curve"/>
      <point x="710" y="38" type="line"/>
      <point x="718" y="37"/>
      <point x="731" y="36"/>
      <point x="738" y="36" type="curve" smooth="yes"/>
      <point x="846" y="36"/>
      <point x="898" y="135"/>
      <point x="898" y="222" type="curve" smooth="yes"/>
      <point x="898" y="324"/>
      <point x="817" y="408"/>
      <point x="716" y="408" type="curve" smooth="yes"/>
      <point x="617" y="408"/>
      <point x="532" y="298"/>
      <point x="532" y="200" type="curve" smooth="yes"/>
      <point x="532" y="-275" type="line" smooth="yes"/>
      <point x="532" y="-321"/>
      <point x="512" y="-364"/>
      <point x="480" y="-396" type="curve" smooth="yes"/>
      <point x="447" y="-429"/>
      <point x="402" y="-450"/>
      <point x="356" y="-450" type="curve" smooth="yes"/>
      <point x="190" y="-450" type="line" smooth="yes"/>
      <point x="125" y="-450"/>
      <point x="89" y="-399"/>
      <point x="89" y="-347" type="curve" smooth="yes"/>
      <point x="89" y="-297"/>
      <point x="130" y="-245"/>
      <point x="200" y="-245" type="curve" smooth="yes"/>
      <point x="227" y="-245"/>
      <point x="248" y="-252"/>
      <point x="263" y="-267" type="curve"/>
      <point x="229" y="-306" type="line"/>
      <point x="218" y="-299"/>
      <point x="209" y="-296"/>
      <point x="200" y="-296" type="curve" smooth="yes"/>
      <point x="160" y="-296"/>
      <point x="140" y="-318"/>
      <point x="140" y="-347" type="curve" smooth="yes"/>
      <point x="140" y="-371"/>
      <point x="159" y="-399"/>
      <point x="190" y="-399" type="curve" smooth="yes"/>
      <point x="326" y="-399" type="line" smooth="yes"/>
      <point x="391" y="-399"/>
      <point x="408" y="-393"/>
      <point x="442" y="-362" type="curve" smooth="yes"/>
      <point x="467" y="-338"/>
      <point x="481" y="-300"/>
      <point x="481" y="-264" type="curve" smooth="yes"/>
      <point x="481" y="202" type="line" smooth="yes"/>
      <point x="481" y="325"/>
      <point x="394" y="408"/>
      <point x="292" y="408" type="curve" smooth="yes"/>
      <point x="202" y="408"/>
      <point x="131" y="334"/>
      <point x="119" y="282" type="curve"/>
      <point x="124" y="283"/>
      <point x="130" y="283"/>
      <point x="135" y="283" type="curve" smooth="yes"/>
      <point x="178" y="283"/>
      <point x="211" y="251"/>
      <point x="211" y="208" type="curve" smooth="yes"/>
      <point x="211" y="166"/>
      <point x="178" y="133"/>
      <point x="134" y="133" type="curve" smooth="yes"/>
      <point x="87" y="133"/>
      <point x="55" y="175"/>
      <point x="55" y="227" type="curve" smooth="yes"/>
      <point x="55" y="338"/>
      <point x="152" y="457"/>
      <point x="292" y="457" type="curve" smooth="yes"/>
      <point x="424" y="457"/>
      <point x="496" y="357"/>
      <point x="511" y="312" type="curve"/>
      <point x="551" y="394"/>
      <point x="628" y="459"/>
      <point x="716" y="459" type="curve" smooth="yes"/>
      <point x="844" y="459"/>
      <point x="949" y="351"/>
      <point x="949" y="222" type="curve" smooth="yes"/>
      <point x="949" y="94"/>
      <point x="865" y="3"/>
      <point x="761" y="-12" type="curve"/>
      <point x="761" y="-301" type="line"/>
      <point x="811" y="-346"/>
      <point x="898" y="-398"/>
      <point x="948" y="-398" type="curve" smooth="yes"/>
      <point x="1023" y="-398"/>
      <point x="1034" y="-359"/>
      <point x="1034" y="-244" type="curve" smooth="yes"/>
      <point x="1034" y="390" type="line" smooth="yes"/>
      <point x="1034" y="558"/>
      <point x="789" y="551"/>
      <point x="789" y="726" type="curve" smooth="yes"/>
      <point x="789" y="825"/>
      <point x="869" y="904"/>
      <point x="969" y="904" type="curve" smooth="yes"/>
      <point x="1027" y="904"/>
      <point x="1082" y="870"/>
    </contour>
  </outline>
</glyph>
